<svg width="1835" height="1835" viewBox="0 0 1835 1835" fill="none" xmlns="http://www.w3.org/2000/svg">
<path d="M1290.3 1546C1290.3 1546 1290.3 1545.3 1290.6 1545.2C1292.9 1543.5 1295.6 1542 1297.6 1540C1299.4 1538.1 1300.3 1535.4 1301.8 1533.1C1305.1 1528.1 1309.3 1523.8 1314.4 1520.4C1316.3 1519.1 1318.3 1517.8 1320.5 1516.3C1318.7 1514 1316.9 1512 1315.4 1509.8C1311.1 1503.2 1309.4 1496.2 1311.8 1488.4C1312.9 1484.8 1314.9 1481.9 1318.1 1480C1320.3 1478.8 1322.8 1478.6 1324.9 1480.2C1327 1481.8 1327.8 1484.1 1327.1 1486.6C1326.4 1488.9 1325.3 1491 1324.3 1493.1C1323.2 1495.2 1321.8 1497.2 1320.8 1499.3C1318.7 1503.9 1320.8 1509.4 1324.9 1512.9C1326.8 1514.5 1330.5 1514.3 1332.3 1512.5C1333.2 1511.7 1333.8 1510.7 1334.6 1509.8C1337.4 1506.7 1340 1503.3 1343 1500.5C1345.8 1497.9 1349.1 1495.8 1352.6 1493.1C1351.3 1491.9 1350.1 1490.8 1348.9 1489.6C1342.6 1483.5 1340.6 1476 1341.6 1467.5C1342.7 1458.3 1346.9 1450.4 1352.8 1443.5C1354.7 1441.3 1356.8 1439.1 1359 1436.7C1357.9 1434.1 1356.9 1431.7 1355.8 1429.2C1345.5 1404.3 1347.3 1380.1 1359.8 1356.6C1362.3 1351.9 1365.7 1347.6 1369.5 1343.8C1384.8 1328.2 1405.3 1327.3 1423.3 1335.9C1424 1336.2 1424.4 1337 1425 1337.7C1422.6 1339 1420.7 1337.7 1418.7 1337.3C1413.4 1336.5 1408.1 1335.2 1402.8 1335C1388.2 1334.4 1376.8 1341 1367.9 1352C1360.4 1361.3 1356.2 1372.2 1354.1 1383.8C1350.9 1401 1352.9 1417.7 1361.6 1433.9C1363.3 1433.1 1364.9 1432.4 1366.3 1431.6C1368.8 1430.1 1371.2 1428.4 1373.6 1426.9C1375.2 1428.6 1374 1429.5 1373.2 1430.2C1370.4 1432.8 1367.4 1435.3 1364.1 1438.1C1370.5 1448.4 1379.4 1454.9 1390.7 1459.6C1391.5 1457.8 1392.5 1456.3 1392.7 1454.8C1393.6 1448.9 1394.3 1443 1393.2 1436.9C1391.6 1427.6 1387.2 1420.7 1377.8 1417.9C1376.7 1417.6 1375.7 1417 1373.3 1415.9C1379.4 1414.9 1383.2 1416.8 1386.7 1419.3C1392.7 1423.6 1395.6 1429.8 1396.3 1436.9C1396.8 1441.9 1396.5 1447 1396.3 1452.1C1396.3 1454.7 1395.7 1457.4 1395.5 1459.9C1398.2 1462.5 1401.3 1461.9 1404.2 1461.9C1425.6 1461.9 1442.5 1442.5 1439.6 1421.3C1438.9 1416.1 1437 1411.5 1431.9 1408.8C1430.9 1409.7 1430.2 1410.5 1429.3 1411.2C1427.9 1412.2 1426.2 1412.1 1425.3 1410.8C1424.6 1409.8 1424.1 1407.9 1424.5 1406.8C1425.4 1403.9 1428.7 1402.4 1431.8 1403.1C1435.2 1403.9 1437.7 1405.9 1439.6 1408.7C1443.7 1414.7 1445.1 1421.3 1444.1 1428.3C1443.6 1431.5 1442.8 1434.8 1441.7 1437.8C1434.8 1457.4 1420 1466.8 1399.5 1465C1398 1464.9 1396.6 1464.6 1394.5 1464.3C1393.5 1466.4 1392.3 1468.4 1391.5 1470.5C1387.6 1480.3 1382.3 1489.3 1375.5 1497.4C1370.7 1503.2 1365.1 1508.1 1358.7 1512.1C1351.2 1516.8 1343.2 1519.8 1334 1520.1C1332.7 1522 1331.2 1523.9 1330 1525.9C1323.1 1537.5 1317.8 1549.9 1313.9 1562.8C1309.8 1576.2 1306 1589.8 1302 1603.2C1300.9 1606.8 1301.3 1610.2 1302 1613.8C1303.3 1620.8 1304.5 1627.9 1305.3 1635C1310.2 1679.7 1282.8 1713.4 1255.2 1728C1242.5 1734.7 1229.1 1738.1 1214.6 1736.9C1204.8 1736.1 1195.8 1733 1188 1727.2C1184.5 1724.6 1180.8 1723.4 1176.6 1722.6C1169.3 1721.3 1162.1 1719.4 1154.1 1717.6C1153.6 1718.7 1153 1720.3 1152.3 1721.8C1151.3 1724 1150.5 1726.2 1149.3 1728.3C1137.3 1749 1109.4 1759 1086.9 1750.9C1075.1 1746.6 1064.7 1740.5 1057.4 1729.9C1054.3 1725.4 1050.1 1722.1 1045.6 1719.1C1044.4 1718.3 1043.1 1717.2 1044 1715.4C1044.8 1713.7 1046.3 1713.8 1047.8 1714.2C1048.6 1714.4 1049.5 1714.5 1050.2 1714.6C1051.9 1713.4 1051.3 1711.8 1051.2 1710.4C1049.9 1692 1066.8 1677.5 1084.1 1677.3C1092.9 1677.2 1100.6 1679.9 1107.1 1685.7C1113.7 1691.5 1116.2 1698.9 1114.5 1707.6C1113.3 1714.3 1109.4 1719.1 1102.9 1721.2C1100.7 1721.9 1098.2 1722.1 1095.9 1721.9C1092.6 1721.7 1090 1719.1 1089.6 1716.4C1089.2 1713.3 1090.8 1711.2 1093.3 1709.8C1095.1 1708.8 1097.2 1708.2 1099 1707.2C1104.6 1704.4 1105.7 1698.6 1101.7 1693.8C1096 1687 1082.9 1683.4 1074.5 1686.7C1068.3 1689.1 1062.2 1692.5 1059.6 1698.9C1055.7 1708.4 1055.4 1717.7 1062.6 1726.7C1071.9 1738.3 1083.8 1743.7 1098.4 1744.2C1121.1 1744.9 1137.9 1734.9 1150.8 1716.1C1149.1 1714.4 1147.7 1712.9 1146.2 1711.7C1138.6 1705.9 1133.4 1698.4 1129.5 1689.8C1124.4 1678.4 1123.9 1666.7 1127.6 1654.8C1128.4 1652.3 1129.3 1649.8 1130.3 1646.7C1128 1645.9 1126.2 1644.9 1124.3 1644.8C1118.2 1644.2 1112.4 1645.7 1106.6 1647.3C1088.3 1652.7 1071.7 1661.3 1056.8 1673.2C1045.9 1681.9 1037.2 1692.5 1030.6 1704.8C1026.7 1712.2 1023 1719.7 1019.3 1727.3C1015.2 1735.6 1010.8 1743.8 1005 1751.1C993.6 1765.5 979 1774.7 960.9 1778.2C947.4 1780.8 934.8 1779 922.6 1772.9C921 1772.1 919.4 1771.3 917.6 1770.4C916 1771.2 914.4 1771.9 912.8 1772.7C898.6 1780.1 883.7 1781.2 868.4 1776.9C852.6 1772.5 839.6 1763.6 829.9 1750.5C825.5 1744.5 821.7 1738 818.1 1731.5C814.2 1724.4 810.9 1717.1 807.3 1709.8C797.1 1689 781.7 1673.2 761.7 1661.7C749.2 1654.5 736.1 1648.7 721.9 1645.8C718.1 1645 714.2 1644.9 710.3 1644.9C708.7 1644.9 707.1 1646 705 1646.8C707.6 1655.4 710.7 1663.5 710.1 1672.3C709.5 1680.8 706.8 1688.7 702.6 1696C698.3 1703.7 692.3 1709.9 684.6 1714.9C685.7 1717 686.3 1718.6 687.3 1720C701.2 1739.6 726.2 1748.4 749.1 1742.5C760.9 1739.4 769 1732 775.7 1722.5C778.2 1718.9 778.1 1714.5 778.1 1710.4C778.1 1699.4 774.3 1692.9 761.7 1687.2C753.5 1683.5 740.8 1686.6 734.2 1693.1C730.3 1696.9 729.4 1704.8 736.9 1707.7C739.1 1708.5 741.4 1709.5 743.3 1710.9C747.2 1713.8 746.4 1718.9 742.1 1721.1C739 1722.7 735.7 1722.4 732.5 1721.4C724.3 1718.7 719.1 1709.8 720.3 1700.7C721.2 1694.2 724.3 1688.9 729.4 1684.7C745.6 1671.5 771.4 1676.9 781.1 1695.5C784.1 1701.3 784.5 1707.5 784.2 1714.4C786.1 1714.3 787.7 1714 789.3 1714.1C790 1714.1 791 1714.9 791.2 1715.6C791.5 1716.3 791.1 1717.2 790.9 1718.1C790.9 1718.4 790.6 1718.6 790.3 1718.8C783.4 1722.8 778.8 1729.2 773.7 1735C763.6 1746.6 750 1751.8 735.2 1754.2C728.6 1755.3 722.1 1753.9 715.8 1751.6C707.6 1748.5 700.2 1744 693.8 1738.1C688.9 1733.6 685 1728.3 683 1721.9C682.6 1720.5 682 1719.2 681.5 1718C672.1 1719.9 663.1 1721.7 654.2 1723.7C652.5 1724.1 650.9 1725 649.5 1726.1C632.5 1738.8 613.7 1740.1 594.1 1734.1C562.3 1724.3 535.9 1693.1 530.7 1660.1C528.6 1646.6 529.3 1633.2 532.3 1620C534.1 1611.9 534.1 1604.3 531.3 1596.4C527.1 1584.3 524 1571.8 520.2 1559.5C516.6 1548.1 511.7 1537.1 505.6 1526.8C504.4 1524.8 503 1522.8 501.8 1520.9C497.5 1520 493.3 1519.6 489.4 1518.4C479.8 1515.4 471.6 1509.9 464.5 1502.9C455.9 1494.3 449.5 1484.3 444.7 1473.2C443.5 1470.5 442.4 1467.8 441.1 1464.8C434 1465.5 427.3 1466.1 420.5 1464.4C413.5 1462.7 407.7 1459.4 403 1454.2C395.1 1445.4 390.8 1435.1 391.1 1423.2C391.1 1417.6 393.1 1412.7 396.4 1408.2C398.3 1405.7 400.8 1404.1 403.8 1403.5C406.5 1402.9 409.5 1404.2 410.7 1406.6C411.6 1408.3 411.5 1410.3 410 1411.5C408.9 1412.5 407.4 1412.4 405.9 1411.5C402.8 1409.6 401.8 1409.7 400.2 1411.7C396.4 1416.4 395 1421.8 395.5 1427.7C396.5 1437.9 400.5 1446.8 407.8 1453.9C415.9 1461.8 428.2 1464.4 439.9 1460.7C439.5 1457.3 439.3 1453.8 438.7 1450.3C437.8 1444.9 438.4 1439.5 439.6 1434.3C441.9 1424.8 447.5 1418.3 457.3 1416.1C457.9 1416 458.5 1415.9 459.1 1416C459.7 1416 460.2 1416.3 461.7 1416.6C459.3 1417.6 457.6 1418.4 455.8 1419C449.4 1421.3 445.4 1426 443.4 1432.3C440.4 1441.4 441.1 1450.4 443.9 1459.4C455.3 1456.7 465.7 1448.4 470.6 1438.2C467.9 1434.5 463 1432.7 460 1427.5C465.9 1428.2 468.5 1433 473.3 1434.3C474 1433.2 475 1432.1 475.6 1430.8C487.2 1404.7 484.8 1379.4 469.7 1355.5C462.3 1343.9 451.4 1336.4 437.2 1335.6C430.7 1335.2 424.2 1336.8 417.6 1337.5C415.6 1337.7 413.6 1338.1 411.2 1337.5C412.6 1336.6 413.8 1335.3 415.3 1334.8C436.9 1326.8 456.2 1331.3 470.6 1349.7C477.8 1358.8 481.6 1369.5 484.1 1380.7C488 1397.9 485.9 1414.6 478.9 1430.7C478.2 1432.3 477.4 1434 476.7 1435.6C476.6 1435.9 476.7 1436.2 476.5 1437.2C477.5 1438.4 478.7 1440 480.1 1441.5C484.5 1446.1 488.1 1451.2 490.6 1457C492.5 1461.4 493.6 1466.1 493.7 1470.9C493.9 1478.8 491.6 1485.6 485.5 1490.9C484.6 1491.7 483.8 1492.5 482.4 1493.7C490.4 1498.4 496.5 1504.8 502 1511.9C504.8 1515.5 508.8 1515.3 511.9 1511.9C515.6 1507.7 516.2 1502.8 513.6 1497.8C512.2 1495.2 510.4 1492.7 509.1 1490.1C507.1 1485.9 507.8 1482.2 510.7 1480.5C513.6 1478.8 517.5 1479.8 520.3 1483C522.5 1485.6 523.8 1488.5 524.2 1491.9C525 1499 523.7 1505.6 519.2 1511.4C517.9 1513 516.6 1514.6 514.8 1516.7C516.4 1517.8 517.7 1518.8 519.1 1519.7C525.8 1523.9 531.4 1529.3 535.1 1536.3C537.2 1540.3 540.3 1542.4 543.9 1544.7C554.1 1551.2 565.1 1555.9 576.9 1558.2C585.1 1559.8 593.5 1560.5 601.8 1560.9C615.3 1561.6 628.6 1562.8 641.7 1566.5C658.8 1571.3 673.5 1580.2 685.8 1592.9C697.9 1605.5 704.9 1620.3 705.5 1637.9C705.5 1639.1 705.7 1640.2 705.9 1641.8C709.6 1641.8 713.1 1641.6 716.6 1641.8C719.9 1642.1 723.1 1642.7 726.3 1643.5C751.6 1650.3 774 1662.4 792.5 1681.2C800.3 1689.2 806.4 1698.4 811.5 1708.3C815.6 1716.3 819.8 1724.2 823.7 1732.3C826 1737.1 829.5 1740.5 834.2 1743C840.6 1746.4 847.1 1749.4 854.4 1750C857.6 1750.3 861.1 1750.1 864.1 1749.2C871.7 1746.9 875.4 1738.7 872.7 1731.2C869.6 1722.6 861.5 1717.4 853.2 1718.7C852 1718.9 850.9 1719.3 849.8 1719.8C847.9 1720.8 847 1723.2 847.8 1725.2C848.1 1726 848.7 1726.8 849.2 1727.4C850.2 1728.7 850.8 1729.9 849.5 1731.3C848.3 1732.5 846.1 1732.3 844.6 1731C840 1726.8 840.7 1719.2 846.2 1715.6C850.2 1712.9 854.7 1712.8 859.2 1713.6C867.8 1715 876.2 1723.6 877.8 1732.3C879.8 1743.9 872.2 1753.6 860.3 1754.8C854.8 1755.3 849.6 1754 844.4 1752.4C841.9 1751.6 839.7 1749.8 836.8 1750.1C852.5 1774.7 893.9 1782.6 913.2 1767.3C912.3 1766.2 911.5 1765 910.6 1764C899.7 1751.8 896.4 1737.3 898.1 1721.5C899.5 1709.1 903.8 1697.7 910.7 1687.3C911.9 1685.6 913 1683.8 914.1 1682C914.2 1681.8 914.2 1681.4 914.3 1680.9C913.4 1678.1 910.8 1676.4 908.5 1674.6C893.8 1662.9 877.3 1658.7 858.9 1663.4C853.6 1664.7 848.8 1667 844.5 1670.5C836.9 1676.6 834.9 1685.8 839.2 1694.6C840.6 1697.5 842.2 1700.5 843.4 1703.5C844 1705.2 843.9 1707.1 842 1708.2C840.3 1709.2 838.5 1708.9 836.9 1708C833.9 1706.2 832.4 1703.2 831.4 1700.1C828.1 1690.6 830 1681.8 835.8 1673.8C839.9 1668.1 845.6 1664.2 852.1 1661.6C865.5 1656.3 878.9 1656.4 892.5 1661C899.7 1663.4 906 1667.3 911.8 1672.2C913.8 1673.9 915.8 1675.7 918 1677.6C920.4 1675.5 922.6 1673.4 924.9 1671.6C941.2 1658.4 959.5 1654.5 979.6 1660.1C986.6 1662 992.8 1665.6 997.8 1671C1004.5 1678.3 1007.2 1686.9 1005.2 1696.7C1004.6 1699.8 1003 1702.8 1001.4 1705.7C1000.4 1707.6 998.5 1708.6 996.2 1708.9C994 1709.1 992.1 1707.4 992.2 1705.2C992.3 1701.4 994.4 1698.4 996.2 1695.3C999.5 1689.6 999.2 1684 997 1678.1C995.4 1673.9 992.3 1671.2 988.8 1668.9C979.1 1662.6 968.3 1660.7 957 1662C942.8 1663.6 930.8 1669.8 920.9 1680.9C922.3 1683.2 923.6 1685.4 925.1 1687.6C932.1 1698.3 936.5 1709.9 937.6 1722.7C939 1738.6 935.6 1753 924.4 1765C923.8 1765.6 923.4 1766.4 923 1767.1C923.1 1769.6 925.2 1769.9 926.7 1770.6C937.4 1775.7 948.7 1776.5 960 1774.4C975.2 1771.6 988 1764.2 998.2 1752.5C998.6 1752.1 998.8 1751.5 999 1750.9C999 1750.7 999 1750.5 998.7 1749.6C996.2 1750.6 993.8 1751.6 991.3 1752.4C986.2 1754.2 981 1755.4 975.5 1754.9C966.4 1754.1 959.6 1748.3 957.7 1739.7C957.7 1739.4 957.5 1739.1 957.5 1738.8C955.3 1727.4 968.6 1709.2 986 1714.1C993.3 1716.2 996.4 1723.8 992.3 1729.7C991.5 1730.8 990 1731.6 988.7 1732.2C988.1 1732.5 986.9 1732.1 986.3 1731.6C985.8 1731.1 985.4 1730 985.5 1729.3C985.8 1728.2 986.8 1727.3 987.2 1726.2C988.5 1723 987.2 1720 984 1719.2C979.8 1718.1 975.7 1718.4 971.9 1720.6C967.9 1723 965 1726.3 963.2 1730.5C959.8 1738.6 963.9 1747.4 972.5 1749.6C975.3 1750.3 978.4 1750.3 981.4 1750.1C987.1 1749.7 992.4 1747.5 997.6 1745.2C1004.6 1742 1010.2 1737.5 1013.3 1730C1015.7 1724.2 1019 1718.8 1021.6 1713.1C1035.5 1683.4 1058.5 1663.6 1088.2 1650.8C1093.7 1648.4 1099.4 1646.6 1105 1644.7C1112.7 1642.1 1120.7 1641.2 1129.2 1641.9C1129.6 1639.3 1130 1637 1130.2 1634.7C1131.6 1618.5 1138.3 1604.9 1149.4 1593.2C1163.7 1578.2 1181 1568.6 1201.2 1564.7C1211.4 1562.8 1221.9 1561.5 1232.3 1561.1C1252.1 1560.5 1270.9 1556.7 1288.1 1546.7C1288.8 1546.3 1289.8 1546.2 1290.7 1546C1290.5 1549.3 1287.6 1550.2 1285.4 1551.5C1272 1559.4 1257.6 1563.7 1242.1 1564.6C1229.6 1565.3 1217 1565.8 1204.6 1568.1C1183.7 1572.1 1165.7 1581.4 1151.1 1597C1140.5 1608.3 1134.4 1621.6 1133.5 1637.2C1133.5 1638.2 1133.9 1639.3 1134.3 1641.4C1136.9 1638.7 1138.6 1636.7 1140.4 1634.9C1145.5 1629.8 1151.4 1625.7 1158.2 1623.1C1163.1 1621.3 1168.1 1620.7 1173.2 1621.9C1181.6 1623.9 1187.8 1632.9 1186.3 1640.7C1185.5 1644.5 1182.6 1647.2 1178.9 1647.4C1175.3 1647.6 1172.7 1646 1171.3 1642.3C1170.4 1639.9 1169.8 1637.3 1169.1 1635.1C1155.3 1633.7 1142.8 1642.7 1137.8 1657.3C1139.5 1660.9 1142.3 1663.5 1145.7 1665.4C1150.8 1668.2 1156.1 1670 1161.9 1667.1C1162.3 1666.9 1162.4 1666.2 1162.7 1665.7C1162.8 1664.3 1160.7 1663.4 1161.9 1661.8C1162.5 1661.6 1163.1 1661.4 1163.6 1661.4C1165.9 1661.4 1167.7 1662.5 1168.2 1664.8C1168.7 1667.2 1167.6 1669 1165.6 1670C1163.5 1671 1161.2 1671.9 1158.9 1672.1C1152.7 1672.8 1147.1 1671.1 1142 1667.4C1140.2 1666.1 1138.4 1664.7 1135.9 1662.9C1133.4 1670.2 1134.9 1676.6 1137 1682.8C1140.3 1692.3 1145.6 1700.6 1154.1 1706.3C1159.8 1710.1 1166 1712.6 1173.5 1713C1171.9 1708.4 1170.4 1704.5 1169.3 1700.6C1167.4 1693.2 1167.1 1685.8 1170.2 1678.6C1174.4 1668.9 1184.8 1663.8 1194.5 1666.6C1198.4 1667.7 1201.5 1670 1203.2 1673.7C1204.1 1675.7 1204.2 1677.7 1203 1679.7C1201.9 1681.6 1199.6 1682.4 1197.6 1681.5C1195.5 1680.6 1195.1 1679 1196.1 1676.4C1196.4 1675.7 1196.9 1675 1197.3 1674.1C1193.5 1669.8 1188.9 1669.5 1184.1 1671.2C1178.7 1673.1 1175 1677 1173.6 1682.6C1170.7 1693.5 1173.6 1703.3 1179.6 1712.4C1180.6 1714 1182.3 1714.7 1184.2 1714.6C1186 1714.6 1187.8 1714.4 1189.6 1714.2C1212.1 1711.8 1231.4 1702.4 1248.4 1687.9C1259.5 1678.4 1263.7 1666 1263.2 1651.9C1262.8 1640.1 1253.6 1632.3 1241.6 1632.7C1237.8 1632.8 1234.2 1635.5 1233 1639.3C1232.5 1640.7 1232.5 1642.3 1231.9 1643.6C1231 1645.9 1229.1 1647.4 1226.8 1648.3C1223.8 1649.4 1220.3 1647.4 1220.4 1644.2C1220.4 1641.9 1220.9 1639.4 1222 1637.4C1224.6 1632.4 1229.1 1629.3 1234.4 1627.7C1239.6 1626.2 1244.9 1625.7 1250.4 1626.9C1259.7 1628.9 1265.9 1634.5 1268.8 1643.4C1269.9 1646.7 1270 1650.4 1270.4 1654C1270.6 1655.9 1270.6 1657.9 1270.7 1660C1273.7 1659.2 1274.2 1657 1275.2 1655.3C1284.2 1640 1290.1 1623.4 1295.2 1606.5C1295.7 1604.8 1296.1 1602.9 1295.8 1601.2C1294.5 1594 1293 1586.8 1291.4 1578.8C1288.1 1580.7 1286.6 1583.3 1284.7 1585.4C1278 1592.8 1270.3 1598.9 1261.1 1602.8C1254.6 1605.6 1247.9 1606.5 1240.9 1605.8C1236.9 1605.4 1233.3 1603.9 1230.2 1601.5C1222.4 1595.3 1222.2 1583.7 1229.8 1577.2C1231.7 1575.5 1233.8 1574.7 1236.4 1575.1C1238.4 1575.4 1239.6 1576.6 1240.3 1578.3C1241 1580.1 1241 1581.9 1239.7 1583.3C1238.2 1584.9 1236.5 1584.2 1234.9 1583.3C1234.2 1582.9 1233.4 1582.9 1232.5 1582.6C1229.8 1585.7 1229 1589 1230.4 1592.7C1231.8 1596.3 1234.6 1598.6 1238.1 1599.7C1240.3 1600.4 1242.8 1600.7 1245.1 1600.8C1252.2 1601.1 1258.6 1598.9 1264.7 1595.5C1275.2 1589.7 1282.8 1581 1289.7 1571.5C1290.5 1570.3 1291.1 1568.8 1291.4 1567.4C1292.5 1560.1 1293.5 1552.9 1294.5 1545.7C1293.1 1545.9 1291.7 1546.1 1290.3 1546.3V1546ZM1314.2 1544.9C1312.8 1544.3 1312 1545.2 1311.4 1546.2C1306.3 1554.3 1301.1 1562.3 1296.1 1570.4C1295.3 1571.6 1294.5 1573.2 1294.6 1574.5C1295.3 1580.7 1295.1 1587 1298 1593.3C1298.7 1592.1 1299.3 1591.5 1299.6 1590.8C1304.4 1575.4 1309.2 1560.1 1314 1544.7C1314.3 1544.3 1314.7 1543.9 1315 1543.4C1315 1543.2 1315 1542.9 1314.8 1542.7C1314.4 1542.9 1313.8 1543.2 1313.8 1543.4C1313.8 1543.9 1314.1 1544.4 1314.3 1544.9H1314.2ZM665.7 1634.9C664.9 1637.8 664.5 1640.1 663.7 1642.4C662.7 1645.1 660.6 1646.7 657.7 1647C654.4 1647.3 651.7 1646.1 650.2 1643.2C649.3 1641.4 648.9 1639.2 648.9 1637.2C649.1 1629.7 655.1 1623 662.6 1621.4C667.7 1620.3 672.7 1621.1 677.5 1622.9C685.2 1625.9 691.5 1630.8 697.1 1636.8C698.2 1638 698.9 1640.1 701.9 1639.3C701.5 1635.6 701.4 1631.7 700.7 1628C698.1 1615.3 691.9 1604.6 682.9 1595.4C668.5 1580.6 650.9 1571.7 630.6 1567.8C617.9 1565.4 605.1 1565.1 592.2 1564.2C574.3 1562.9 557.6 1557.8 543.2 1546.6C542.5 1546 541.5 1545.7 540.3 1545.1C541.4 1551.5 543 1557 543.3 1562.6C543.6 1567.7 545.1 1571.8 548.5 1575.5C551.9 1579.2 555.1 1583.3 558.7 1586.8C564.3 1592.2 570.9 1596.4 578.4 1598.9C583.3 1600.6 588.3 1601.1 593.4 1600.4C595.7 1600 598 1599.2 600.1 1598.1C602.9 1596.7 604.6 1594.2 605.1 1591C605.6 1587.6 605.1 1584.5 602.1 1582.2C601.1 1582.7 600.4 1583.1 599.7 1583.5C598.3 1584.4 596.6 1584.6 595.6 1583.4C594.8 1582.4 594.3 1580.7 594.4 1579.4C594.8 1576.4 597.3 1574.4 600.1 1575C602.1 1575.4 604.2 1576.2 605.6 1577.5C613 1584.1 612.4 1595.8 604.5 1601.8C600.8 1604.6 596.6 1605.7 592 1606C581 1606.7 571.5 1602.5 562.8 1596.4C556.9 1592.3 551.9 1587.1 547.3 1581.6C546.5 1580.6 545.2 1580.1 543.7 1579C543 1582.7 542.7 1585.8 541.8 1588.5C537.8 1599.7 540.5 1610.1 544.5 1620.7C549.3 1633.3 554.2 1645.8 561.2 1657.3C561.9 1658.5 562.4 1660.1 565 1659.7C565 1656.3 564.8 1652.8 565 1649.3C565.8 1638.9 572.8 1630.2 582.2 1627.4C588.4 1625.6 594.7 1625.8 600.8 1627.7C607 1629.7 611.9 1633.6 614.3 1639.9C615.6 1643.3 614.7 1646.4 612.3 1647.9C609.8 1649.4 605.8 1648.1 603.8 1644.9C603.2 1643.9 602.8 1642.7 602.4 1641.6C602.1 1640.8 602.2 1639.8 601.9 1639C600.5 1635.9 598.4 1633.1 594.9 1632.8C585.5 1631.7 574.5 1636.2 572.4 1647.6C569.8 1661.9 573.6 1675.1 584.1 1685.4C595.1 1696.2 608.3 1703.9 622.8 1709.1C631.3 1712.1 640.1 1713.7 649.1 1714.5C652.5 1714.8 654.8 1713.5 656.5 1710.6C661 1702.8 663.1 1694.6 662 1685.7C661.1 1679 657.7 1673.9 651.3 1671.3C646.2 1669.2 641.4 1669.4 637.6 1674C637.9 1674.7 638 1675.3 638.3 1675.7C639.4 1676.9 640.3 1678.3 639.1 1679.6C638.2 1680.6 636.7 1681.6 635.4 1681.6C633.6 1681.6 632 1680.4 631.5 1678.5C630.6 1675.3 631.7 1672.6 633.9 1670.3C637.7 1666.4 642.6 1665.2 647.9 1665.8C658.2 1667 665.7 1675.1 667 1686.5C667.8 1693.2 666.4 1699.6 664.1 1705.8C663.3 1707.9 662.6 1710.1 661.5 1713.1C670.9 1712 678.5 1708.8 684.8 1703.1C692.4 1696.3 697.1 1687.7 699.4 1677.9C700.9 1671.4 700.5 1668 698.1 1663.4C696.4 1664.7 694.9 1666.1 693.2 1667.1C690.4 1668.7 687.5 1670.5 684.4 1671.3C679.4 1672.6 674.3 1672.9 669.6 1669.9C667.2 1668.4 666.3 1666.1 667.2 1663.8C668.1 1661.5 669.3 1661.2 673.8 1662C673.2 1663.3 672.7 1664.6 672.1 1666.1C675.8 1669.1 680 1668.7 684.1 1667.5C690.1 1665.7 694.7 1662.2 697.7 1656.4C694.2 1648.1 688.6 1641.8 680.8 1637.2C676.3 1634.6 671.5 1633.1 665.7 1635V1634.9ZM1193.4 1724C1194.2 1725.3 1194.3 1725.7 1194.5 1725.8C1195.2 1726.3 1195.9 1726.9 1196.7 1727.3C1208.1 1733 1220.1 1734.6 1232.5 1732C1266.5 1724.6 1288.2 1703.3 1299.2 1670.9C1304.9 1654.3 1303.5 1637.3 1300.1 1620.4C1299.9 1619.4 1299.2 1618.5 1298.3 1616.5C1296 1622.5 1294.2 1627.4 1292.3 1632.4C1286 1649 1277.9 1664.6 1266.5 1678.3C1262.1 1683.6 1257.7 1688.9 1253.1 1694C1238.8 1709.8 1221.4 1720.2 1199.9 1722.6C1197.9 1722.8 1195.9 1723.5 1193.5 1724H1193.4ZM642.6 1724.3C639.3 1723.6 637 1723 634.7 1722.6C632.1 1722.1 629.4 1721.9 626.8 1721.3C608.4 1717 593.4 1707.2 581.1 1693C578.6 1690.1 576.2 1687 573.6 1684.1C563.2 1672.7 554.9 1660 548.7 1646C545 1637.5 541.8 1628.8 538.4 1620.2C538 1619.2 538.1 1617.7 536.3 1618.1C535.9 1618.6 535.3 1618.9 535.2 1619.4C533 1630 532.1 1640.6 532.5 1651.5C533.8 1686.3 560.8 1720.6 595.6 1730.5C609.8 1734.5 623.9 1734.5 637.5 1727.8C639 1727 640.4 1725.9 642.7 1724.3H642.6ZM918.1 1684.5C916.9 1685.3 916.2 1685.5 915.9 1686C906.3 1698.4 901.3 1712.6 901.2 1728.3C901.2 1738.3 903.6 1747.8 909.5 1756.1C911.7 1759.2 913.9 1762.4 917.6 1763.9C925.6 1757.9 931 1749.5 932.7 1739.3C936 1719.1 931 1701 918.1 1684.5ZM496.9 1515.7C496.9 1514.9 497.2 1514.2 497 1513.8C493.2 1507.6 488.5 1502.3 482.8 1497.8C480.4 1495.9 477.9 1494.6 474.6 1494.8C472.6 1495 470.4 1494.7 468.4 1494.1C460.5 1491.9 455.3 1483.9 456.7 1476.4C457.6 1471.3 461.2 1468.4 466.1 1468.8C468.4 1469 470.2 1470.9 469.9 1472.9C469.6 1474.6 468 1475.7 465.9 1475.7C464.3 1475.7 462.6 1474 460.8 1476C459.4 1479.8 460.1 1483.4 462.9 1486.6C465.9 1490.1 469.7 1491.2 474.2 1490.8C478 1490.5 481 1488.9 483.7 1486.3C488.9 1481.4 490.6 1475.2 490.1 1468.4C489.3 1456.6 482.9 1448 474.1 1440.3C470.9 1443.7 468.3 1447 465.3 1449.8C462.2 1452.6 458.8 1455 455.4 1457.5C452.1 1459.9 447.9 1460.8 444.7 1463.8C449.5 1478.6 457.1 1491.3 467.9 1501.9C473.7 1507.6 480.5 1511.9 488.3 1514.6C491.1 1515.6 493.9 1516.4 496.9 1515.7ZM1374 1474.9C1371.7 1475.3 1369.9 1475.9 1368.3 1475.6C1367.1 1475.4 1365.8 1474.1 1365.2 1473C1364.5 1471.6 1366.2 1469.4 1367.9 1469C1372.5 1467.9 1377 1470.6 1378.2 1475.3C1379.1 1478.9 1378.8 1482.4 1376.9 1485.7C1373.5 1491.7 1368.4 1494.8 1361.5 1494.8C1359.1 1494.8 1356.7 1494.7 1354.6 1496.1C1347.4 1501.1 1341.6 1507.2 1337.5 1515.2C1341 1516.5 1343.8 1515.6 1346.6 1514.6C1354.9 1511.7 1362.2 1507 1368.3 1500.7C1377.6 1491.2 1384.4 1480 1389 1467.5C1389.5 1466.2 1389.7 1464.7 1389.9 1463.4C1371.3 1452.1 1376.4 1456.5 1361 1440.8C1351.9 1447.8 1346.2 1456.8 1344.8 1466.6C1343.5 1475.7 1347.6 1484.9 1354.9 1488.9C1359.7 1491.5 1364.7 1491.8 1369.4 1488.8C1374.2 1485.7 1376 1481.3 1374 1474.8V1474.9ZM1295.9 1562.3C1298.9 1558 1300.7 1555.4 1302.5 1552.7C1304.5 1549.7 1306.3 1546.7 1308.2 1543.7C1310 1541 1311.7 1538.2 1313.6 1535.5C1315.6 1532.6 1317.8 1529.7 1319.8 1526.8C1321.5 1524.3 1324.3 1522.4 1324.9 1518.7C1308.8 1524.1 1296.3 1542.3 1295.9 1562.3ZM508.9 1518.5C512.4 1523.1 515 1526.4 517.4 1529.7C519.8 1533.1 522.2 1536.5 524.5 1540C527 1543.7 529.2 1547.6 531.7 1551.2C534 1554.5 535.5 1558.5 539.2 1561.3C539.8 1543.6 526.1 1523.5 508.9 1518.5ZM537.9 1593.8C538.8 1587.7 539.5 1582.7 540.2 1577.7C540.7 1574.3 539.8 1571.4 537.9 1568.5C533.3 1561.6 529 1554.5 524.6 1547.5C523.6 1545.8 522.4 1544.3 520 1541C524.9 1556.8 529.2 1570.5 533.5 1584.3C534.2 1586.6 534.9 1588.8 535.6 1591.1C535.8 1591.6 536.3 1592 537.8 1593.8H537.9Z" fill="#CFA257"/>
<path d="M723.4 226.2C730.8 233.2 739.2 233.4 747.7 230.5C756.3 227.5 763.6 222.3 770.4 216.4C782.7 205.8 791.2 192.7 796.3 177.4C791.3 174.1 791.3 174.1 787.8 176.9C784.5 179.5 781.4 182.3 778.1 184.8C760 198.4 739.5 203.7 717.3 201.2C701.5 199.4 688.3 192.3 679.6 178.4C676.9 178 676.1 180.6 674.4 181.4C671.4 182.8 668.5 184.2 665.4 185.2C663.6 185.8 661.6 184.9 661.1 183C660.8 181.8 661.5 180.2 662 179C662.3 178.2 663.3 177.8 663.9 177.1C670 170.8 674.7 163.6 677 155C679.3 146.5 684.4 140.1 692.3 136C697.8 133.1 703.7 132.2 709.7 133.3C715.9 134.4 720.8 137.6 723.5 143.5C726 148.9 725 154.5 720.9 158.3C716.9 162 710.5 163.1 705.9 160.9C701 158.6 700.2 154.8 704.2 150C704.7 151.3 704.9 152.3 705.5 153.1C707.3 155.7 710.3 156 713.2 153.9C715.3 152.4 715.9 149.7 714.6 147.6C713.1 145.1 710.8 144 708 143.5C695.6 141.4 684.1 151.6 684.7 164.5C685 172 688 178.5 693.8 183.3C700.9 189.1 709 192.9 718.1 194C740.7 196.6 760.7 190.5 777.8 175.3C778.9 174.4 779.7 173.1 780.8 171.8C778.1 170.3 775.7 169 773.4 167.7C766.5 163.8 760.7 158.7 756.2 152.2C751.5 145.3 749.2 137.7 750.1 129.3C750.6 124.8 752 120.5 755.2 117.1C758 114.1 761.4 112.5 765.7 113.3C767.8 113.7 769.4 115.9 769 117.9C768.5 119.9 766.4 121.3 764.1 120.6C762.7 120.2 761.5 119.2 760.1 118.5C755.6 120.8 754.4 125.1 753.7 129.6C752.6 137.7 754.8 145 759.7 151.5C766 159.9 774.3 165.5 784.3 169C785.8 167.7 787.2 166.6 788.3 165.3C791.3 161.9 794.1 158.4 797 155C803.3 147.7 808.1 139.7 811.1 130.3C813.8 122.1 818.2 114.5 822.1 106C819.7 99.9002 811.8 96.4002 810 88.1002H815.3C824.7 72.6002 833.2 71.3002 847.3 83.4002C856.5 79.2002 866.1 75.1002 877.1 75.6002C877.3 74.0002 877.4 72.9002 877.5 71.7002C877.9 63.8002 882.5 59.0002 889.6 56.7002C896.9 54.4002 903.8 55.3002 909.6 60.9002C912.8 64.0002 914.2 67.8002 913.6 72.3002C913.1 75.7002 911.5 76.8002 906.2 76.7002C908.1 74.4002 911 72.9002 910.2 69.4002C909.4 65.9002 907.2 63.6002 904.3 61.9002C898.8 58.8002 893.4 59.3002 888.1 62.5002C881.3 66.7002 880.7 75.6002 887 80.6002C888.4 81.7002 890 82.5002 891.7 83.1002C901.1 86.4002 909.8 90.9002 916.7 97.7002C917.8 97.5002 918.5 97.7002 918.8 97.3002C925.7 90.9002 933.8 86.5002 942.7 83.5002C946.5 82.2002 949.7 80.3002 951.5 76.5002C953.2 73.0002 953.2 69.5002 951 66.3002C945.8 58.2002 931.7 58.1002 926.3 66.1002C924 69.6002 924.3 71.6002 927.6 75.4002C928 75.8002 928.2 76.4002 929 77.6002C926.8 77.0002 925 77.0002 923.6 76.1002C921.4 74.7002 920.9 72.2002 921.2 69.7002C921.8 63.7002 926.7 58.1002 933.1 56.5002C937.5 55.4002 942 55.5002 946.3 57.1002C952.7 59.5002 956.7 63.9002 957.6 70.9002C957.8 72.3002 957.8 73.8002 957.9 75.7002C968.9 75.1002 978.5 79.3002 987.7 83.5002C996.8 75.9002 999.6 74.7002 1005.3 75.6002C1012.6 76.8002 1016.5 81.9002 1019.5 87.9002H1024C1025.5 89.6002 1024.9 91.3002 1023.7 92.7002C1020.1 97.1002 1016.5 101.4 1012.6 106.1C1013.6 107.8 1014.5 109.7 1015.6 111.4C1020.3 119.1 1023.7 127.4 1026.4 136C1027.8 140.4 1029.7 144.3 1032.6 147.8C1036.6 152.6 1040.4 157.6 1044.4 162.5C1046.3 164.8 1048.4 166.9 1050.3 169.1C1061.2 165.6 1069.6 159.6 1075.9 151C1080.3 145 1082.6 138.3 1081.7 130.8C1081.1 126 1080 121.3 1075.2 118.5C1073.6 119.3 1072.2 120.3 1070.6 120.8C1068.3 121.4 1066.2 119.8 1066.1 117.7C1066 116 1067.3 114.1 1069 113.7C1072.1 113 1074.9 113.5 1077.5 115.3C1080.6 117.4 1082.6 120.3 1083.7 123.8C1086.9 133.3 1085 142.1 1080.1 150.5C1075.6 158.1 1069 163.8 1061.4 168.2C1059.1 169.5 1056.9 170.8 1054.8 172C1055 172.8 1055 173.1 1055.2 173.3C1073.3 191.2 1095.2 197.6 1120.1 193.8C1127.9 192.6 1134.9 189 1141 184C1147.9 178.3 1151.2 170.8 1150.4 161.8C1149.4 150.6 1138.8 142.2 1127.8 143.7C1125 144.1 1122.6 145.1 1120.9 147.4C1119.3 149.5 1119.6 152.1 1121.5 153.8C1123.2 155.2 1125.3 156.3 1127.2 155.3C1128.8 154.5 1129.8 152.5 1131.1 151C1133.9 153.4 1134.5 155.1 1133.4 157.3C1132.2 159.5 1130.3 161.1 1128 161.7C1122.4 163.2 1117.3 162 1113.3 157.6C1109.8 153.8 1109.4 147.5 1112.2 142.5C1115.4 136.9 1120.5 134 1126.8 133.3C1140.7 131.7 1153.3 140 1157.6 154C1159.6 160.4 1162.4 166.2 1166.3 171.6C1167.9 173.8 1169.8 175.7 1171.6 177.7C1172.4 178.6 1173.3 179.4 1173.9 180.4C1175.3 182.5 1173.5 185.7 1170.9 185.5C1168.6 185.3 1166.2 184.7 1164.1 183.7C1161.5 182.4 1159.2 180.4 1156.3 178.4C1155.7 179 1154.7 179.6 1154.1 180.5C1144.8 194.2 1131.2 200.3 1115.4 201.7C1091.9 203.8 1071.1 197 1052.9 182C1050.8 180.3 1048.8 178.5 1046.7 176.8C1044.3 174.9 1044.3 174.9 1039.3 176.6C1039.3 177.4 1038.9 178.4 1039.1 179.1C1047.4 202.1 1062.6 219 1084.5 229.9C1090.5 232.9 1096.6 232.9 1102.9 231.7C1106.1 231.1 1109.2 229.8 1111.1 226.2C1110.4 225.5 1109.6 224.7 1108.9 223.8C1106.5 220.5 1107.3 217.4 1110.9 215.9C1115.7 213.8 1120.9 216.6 1121.7 221.9C1122.5 227.2 1120.4 231.3 1116.3 234.4C1110.8 238.6 1104.4 239.8 1097.6 238.8C1091.3 237.9 1085.4 235.9 1079.8 232.9C1060 222.4 1045.9 206.7 1037.1 186.2C1035.8 183.2 1034.6 180.2 1033.2 176.8C1009.8 177.7 988.5 171.8 969.6 158.3C950.9 145 938.4 127.3 933 104.8C927.2 104.2 922.6 106.7 917.4 108.1C912.7 107 907.9 104 901.7 104.9C896.2 127.5 883.5 145.5 864.5 158.8C845.8 171.9 824.7 177.6 801.6 176.8C800.2 180.1 799 183.1 797.7 186.1C789.1 206.4 775.2 221.9 755.8 232.5C750 235.7 743.8 237.9 737.2 238.9C731.1 239.8 725.3 238.8 719.9 235.6C715.8 233.2 713.3 229.6 712.7 224.8C711.9 218.4 717.9 213.7 723.7 215.9C727 217.2 728.6 221.2 725.9 223.8C725.1 224.6 724.3 225.4 723.2 226.6L723.4 226.2ZM995.7 95.7002C995.2 92.3002 992.8 91.4002 989.9 90.5002C990.7 94.6002 990.6 94.8002 991.7 95.1002C993.1 95.4002 994.5 95.4002 995.9 95.5002C991.4 98.0002 988.9 97.6002 987.6 93.9002C986.8 91.7002 986.6 89.4002 986 86.7002C981.4 84.7002 976.9 82.4002 972.1 80.8002C967.9 79.4002 963.5 78.7002 959.1 78.1002C956.6 77.7002 955.9 79.2002 956.3 82.9002C950 85.4002 943.7 87.8002 937.6 90.6002C936.7 91.0002 936.7 93.4002 936 95.6002C940.7 95.4002 944.5 95.0002 948.3 95.1002C954.5 95.3002 960.7 95.8002 966.9 96.1002C967.2 96.1002 967.5 96.1002 967.7 95.8002C967.9 95.6002 967.9 95.3002 968.1 94.6002C965.8 91.1002 962.5 88.2002 958.9 85.6002C957.8 84.8002 956.9 83.6002 956 82.6002C959.8 82.9002 962.9 85.1002 965 87.9002C971.5 96.6002 980.9 100.9 990.1 105.6C995.5 108.4 1000 107.9 1006.1 104.5C1002 101.3 1000.7 96.7002 995.6 95.8002L995.7 95.7002ZM879 83.0002C879 79.1002 878.4 78.0002 876 78.0002C875.4 78.0002 874.8 78.0002 874.2 78.0002C865 79.4002 856.3 82.2002 848.9 87.4002C847.5 94.3002 847.4 95.2002 845.3 96.5002C844.3 97.2002 842.7 96.9002 839.6 97.3002C842.2 95.7002 843.6 95.1002 844.5 94.1002C845.4 93.1002 846.1 91.6002 843.7 90.3002C838.8 94.6002 833 98.1002 829.9 104.7C835.4 107.7 840.2 108.3 845.3 104.9C848.2 103 851.6 101.5 854.9 100.3C858.3 99.0002 861.2 97.1002 863.5 94.2002C865.4 91.9002 867.5 89.8002 869.6 87.7002C871.3 86.1002 872.9 84.2002 875.6 84.2002C873.2 86.8002 870.8 89.3002 868.6 92.0002C867.8 93.0002 866.2 93.9002 867.1 95.4002C877.7 95.2002 888.1 94.9002 898.3 94.7002C899.3 92.2002 898.6 90.5002 896.3 89.5002C891.1 87.3002 885.9 85.1002 880.7 82.9002C880.2 82.7002 879.5 82.8002 878.9 82.8002L879 83.0002ZM937.1 103.2C944.2 143.3 992.8 178.3 1031.6 172C1030 163.5 1028.4 155.2 1022 148.5C1016.9 143.1 1012.5 137 1007.3 131.6C1002.1 126.3 996.7 121 990.8 116.6C975 104.8 957 101.1 937 103.3L937.1 103.2ZM897.6 103.5C896.4 103.2 895.2 102.8 894.1 102.8C871.4 101.4 851.7 108.1 835.2 124C826.3 132.5 818.4 141.8 810.8 151.5C806.6 156.8 804.4 163.9 804.1 172.5C814.4 174 824.3 172.1 834.1 169.2C862 160.7 882.2 143.3 894.3 116.7C896.1 112.7 898.1 108.6 897.6 103.7V103.5ZM991.3 85.2002C997.8 91.1002 1003.9 96.6002 1009.9 102.1C1015.3 96.9002 1016.2 95.3002 1016 90.7002C1015.9 86.9002 1014.4 83.8002 1011.6 81.3002C1004.9 75.2002 997.8 76.4002 991.2 85.2002H991.3ZM843.9 84.9002C840 79.4002 835.6 76.3002 829.2 77.8002C823.8 79.1002 819.2 84.4002 818.8 90.0002C818.7 92.3002 819.2 94.8002 820.2 96.8002C821.3 99.0002 822.4 101.8 825.4 101.9C831.5 96.3002 837.4 90.9002 843.9 84.9002ZM827.1 108.4C820.5 116.2 817.4 122.5 817.1 129.1C823 122.9 829.3 117.6 835.2 110.9C831.9 109.9 829.5 109.1 827.1 108.4ZM1018.3 129.4C1017.2 121.4 1011.1 110 1007.5 108.5C1005.3 109.6 1002.5 109.5 999.9 111.4C1006.2 117.6 1012.1 123.3 1018.2 129.4H1018.3ZM912.3 98.5002C908.1 96.2002 906.1 93.3002 902.2 93.0002C902.7 97.5002 903 97.7002 912.3 98.5002ZM924.4 98.3002C927.4 99.6002 929.6 97.6002 932 96.7002C933.6 96.1002 933.4 94.4002 932.2 93.0002C929.1 93.9002 926.4 95.5002 924.4 98.3002ZM1037.4 166C1036.8 166.4 1036.1 166.9 1035.5 167.3C1035.8 168.4 1035.9 169.6 1036.4 170.5C1037 171.6 1038 172.5 1039.2 171.4C1039.6 171 1039.4 169.8 1039.2 169.1C1038.8 168 1038 167 1037.4 165.9V166ZM799.2 166.8C798.4 167.1 798 167.1 797.8 167.3C796.6 168.4 794.7 169.2 795.7 171.4C795.8 171.6 796.2 171.8 796.4 171.8C798.9 171.8 798.7 169.7 799.4 168.2C799.4 168 799.4 167.7 799.1 166.8H799.2Z" fill="#CFA257"/>
<path d="M358.4 949.5C350.9 954 344.9 958.3 339.5 963.6C332.9 970.1 328.8 977.9 326.8 986.9C325.4 993.3 326.2 999.5 330.3 1004.8C331.9 1006.8 334.3 1008.3 336.7 1009.4C338.9 1010.5 341.4 1010.2 343.5 1008.6C343.1 1006.9 342.5 1005.2 342.5 1003.4C342.5 1000.8 344.4 998.8 346.7 998.3C349.5 997.8 352.1 999.4 352.9 1002.2C354.7 1008.5 350.8 1014.9 344 1016.3C339.5 1017.3 335.1 1016.6 331.1 1013.9C325 1009.8 321.9 1003.8 320.9 996.7C320.2 992 320.5 987.2 321.8 982.5C324.5 973.1 329.1 964.8 336.4 958.2C340.6 954.4 345.3 951.2 349.8 947.7C351.7 946.3 353.5 944.9 355.3 943.5C351.8 933.1 346.6 925.7 335.2 915C336.9 915 338 915 338.8 915.2C344.1 917.2 347.6 921.3 350.8 925.6C354.1 930.2 357 935 360.1 939.8C384.7 930.4 399.2 908.2 389.5 875.8C393.1 877.1 393.9 880.2 394.7 883.1C399.6 900.4 397.2 916.4 384.8 929.9C380.8 934.2 375.7 937.6 371 941.2C368.7 943 366.1 944.5 363.4 946.4C364 948.4 364.5 950.1 365.1 951.7C372.7 972.7 377.3 994.2 376.8 1016.6C376.7 1022 377.1 1027.4 377.1 1032.7C377.1 1040.2 380.5 1045.8 386.2 1050.4C388.1 1051.9 390 1053.2 391.8 1054.8C393.2 1056 392.6 1058.4 390.9 1059.3C386.9 1061.4 383.1 1060.4 380.1 1057.7C378 1055.8 376.2 1053.1 375 1050.5C373.8 1047.8 373.5 1044.7 373 1041.8C372.2 1037.1 371.6 1032.4 370.7 1026.4C369.5 1028.4 368.7 1029.3 368.4 1030.3C363.7 1045.5 356.8 1059.7 349.8 1074C345.5 1082.9 341.5 1091.9 337.9 1101.1C333.7 1111.7 331.1 1122.7 330.5 1134.1C332.7 1134.9 332.9 1133 333.8 1132C336.3 1129.1 338.6 1125.8 341.5 1123.4C349.9 1116.7 360.2 1118.1 366.9 1126.3C369.4 1129.4 371.1 1132.8 371.7 1136.8C372.5 1141.9 371.3 1146.4 366.6 1149.2C361.9 1152 356.9 1152 352.1 1149.2C349.2 1147.5 349.1 1145.6 351.2 1140.8C352.9 1140.1 352.9 1141.7 353.6 1142.5C355.9 1145.5 358.8 1146.3 362.1 1145C364.8 1143.9 366.1 1141 365.4 1137.5C364.7 1133.9 362.8 1130.8 360.1 1128.3C356.4 1124.9 351.3 1124.1 346.9 1126.8C344.4 1128.3 342 1130.3 340.3 1132.7C334.1 1141.1 331.9 1150.3 334.6 1160.7C339 1177.6 350.3 1186.6 367.6 1186.7C369.7 1186.7 371.7 1186.4 374.4 1186.3C374.1 1184.7 374.2 1183.1 373.6 1182C370.3 1175.7 365.7 1170.8 358.7 1168.6C357.9 1168.3 357.1 1167.9 356.3 1167.5C356.1 1167.4 356.1 1167 356 1166.7C364.2 1164.5 368.6 1167.7 380.3 1184.8C387.1 1183.3 392.7 1179.5 397.2 1174.1C401.9 1168.5 404.9 1162 406.3 1154.8C407 1151.1 406.5 1147.7 404.4 1144.5C402.4 1141.4 399.9 1141.2 397.1 1143.9C395.8 1145.1 394.7 1146.6 393.2 1147.5C389.3 1150 384.6 1148.1 383.2 1143.6C381.8 1139.1 384.1 1133.9 388.8 1131.7C395.1 1128.7 401.1 1129.6 406.6 1133.6C410.6 1136.5 413.2 1140.6 414.1 1145.5C414.6 1148.7 415 1152.1 414.6 1155.3C412.3 1171.4 404.4 1183.8 389.4 1191C387.3 1192 385 1192.9 382.4 1194C382.6 1203.5 382.9 1213 380.9 1222.4C378.9 1231.7 376.8 1241.1 374.7 1250.8C376.5 1252.7 378.3 1254.6 380.2 1256.5C395 1271.9 401.5 1290.1 398.5 1311.4C398.2 1313.5 397.9 1315.6 397.6 1317.6C397.3 1319.6 396.8 1321.6 396.4 1323.9C401.3 1326.8 406.2 1326.6 411.2 1325.3C424.2 1322 433.4 1309.7 432.5 1296.8C432.2 1293.4 431.3 1290.3 429.2 1287.7C425.6 1283.2 419.2 1282 414.7 1284.8C410.4 1287.6 408.8 1294.2 411.6 1299.2C412.6 1301 414.1 1302.5 415.4 1304C413 1308.9 410.2 1309.5 406.9 1305.7C401.9 1299.9 402 1289.4 407.2 1283.3C412.1 1277.4 420.7 1275.8 427.6 1279.5C434 1282.9 436.9 1288.6 437.7 1295.5C439.7 1313.2 426.9 1325.8 415.7 1330C411.7 1331.5 407.6 1332.3 403.4 1332C400.8 1331.8 398.1 1331.6 395 1331.3C392 1338.2 392.1 1345.3 392.3 1352.5C392.5 1360.4 394.5 1367.8 398.4 1374.6C406.6 1373.1 408.4 1369.9 406 1361.5C407.7 1359.8 409.4 1360.2 410.4 1362C413.1 1366.8 412 1371.3 408.7 1375.3C407 1377.3 404.8 1378.9 402.9 1380.7C405.7 1386.1 407.1 1387.8 411.8 1391.4C420.2 1397.8 429.6 1401.2 440.2 1400.2C452.7 1399.1 461.3 1385.9 457.5 1374C456.5 1370.8 454.7 1368.1 451.7 1366.3C449.9 1365.3 447.8 1366.1 447.6 1368.1C447.4 1370.5 447.6 1372.9 447.4 1375.2C447 1378.4 445.1 1380.4 442.4 1380.6C439.6 1380.9 437.3 1379.6 435.9 1376.9C434.6 1374.4 434.3 1371.9 434.8 1369.1C436.4 1360.1 449.1 1352.3 458.6 1361C466.2 1368 467.8 1376.9 465.9 1386.5C463.5 1398.9 454.8 1407 442.3 1409.3C440.8 1409.6 439.3 1409.6 437.9 1410C428.8 1412.7 424.5 1418.2 424.2 1427.7C424 1432.1 424.7 1436.1 429.4 1438.2C430.2 1438.6 430.9 1439.2 431.4 1439.9C431.7 1440.3 431.9 1441.1 431.7 1441.5C431.3 1442.2 430.7 1443 430 1443.2C427.1 1444.1 424.7 1442.9 422.5 1441.1C412.5 1433 412.2 1416.5 422.2 1408.9C424 1407.5 426 1406.3 428.5 1404.6C414.9 1400.4 405.1 1392.4 398 1381.9C396.7 1381.5 396.2 1381.3 395.6 1381.2C384.9 1380.6 379.6 1373.8 377.5 1364.3C375.5 1355.4 375.6 1346.6 381.6 1338.7C381.4 1340.2 381.4 1341.8 381.1 1343.3C379.7 1350.5 379.8 1357.6 382.2 1364.5C383.6 1368.5 385.7 1372.1 389.6 1374.3C390.5 1374.8 391.7 1374.8 393.7 1375.2C392.4 1370.8 391.2 1367.2 390.4 1363.5C389.6 1359.7 388.9 1355.9 388.6 1352C388.4 1348.4 388.6 1344.8 388.9 1341.3C389.2 1337.5 389.9 1333.6 390.5 1329.3C389.2 1328.4 387.7 1327.4 386.3 1326.5C374.9 1319 368.6 1308.2 365.7 1295.1C363.3 1284.3 364.3 1273.7 366.5 1263.1C367.2 1259.6 368.1 1256.1 368.9 1252.5C359.4 1241.6 354.9 1228.9 355.7 1214.5C355.9 1211.3 355.7 1207.3 360.3 1204.9C358.6 1215.4 359.5 1225.2 363.1 1234.5C364.6 1238.4 366.2 1242.2 369.6 1245.1C373 1239.8 375.1 1232.6 377.7 1218.2C379.2 1209.9 379.2 1203.1 377.5 1195.5C375.6 1195.5 373.6 1195.5 371.6 1195.2C366.3 1194.6 360.8 1194.5 355.7 1193C342.5 1189.2 333.4 1180.5 328.2 1167.9C323.7 1156.9 322.6 1145.4 323.4 1133.6C324.6 1117.3 329.2 1101.9 336 1087.1C339.5 1079.5 343.4 1072.1 347.2 1064.6C353.3 1052.6 359 1040.4 363.2 1027.6C370.9 1003.4 370.4 979.3 361.5 955.5C360.8 953.6 359.8 951.8 358.6 949L358.4 949.5ZM373.2 1258C369 1272.6 368.3 1286.4 372.9 1300.1C375.6 1308.2 380.3 1315.1 387.2 1320.2C388.5 1321.2 390.2 1321.5 391.8 1322.2C398.8 1297.3 391.6 1271.7 373.1 1258H373.2Z" fill="#CFA257"/>
<path d="M1491.8 1008.9C1497 1011.3 1501.1 1009.3 1504.3 1005.3C1508.1 1000.7 1509.4 995.1 1508.5 989.3C1507.3 980.8 1503.8 973.3 1498.3 966.7C1493.3 960.7 1485.5 954.7 1477.2 950.4C1474.7 951 1474.6 953.5 1473.9 955.3C1464.4 980 1464.1 1004.9 1472.6 1029.9C1476.7 1042.1 1482.3 1053.7 1488 1065.2C1492.6 1074.3 1497.2 1083.3 1501.3 1092.6C1507.6 1107 1511.5 1122 1511.8 1137.8C1512 1147.1 1511.3 1156.3 1508.2 1165.2C1502.6 1181.5 1489.4 1194.8 1466.1 1195.7C1463.5 1195.7 1460.8 1195.7 1458 1195.7C1456.2 1198.6 1456.1 1201.6 1456.3 1204.5C1456.9 1218.3 1459.7 1231.7 1464.4 1244.7C1464.4 1245 1464.8 1245.1 1465 1245.3C1473 1238.1 1475.2 1230.2 1475.7 1205.2C1477.1 1207.3 1478.4 1208.5 1478.6 1209.9C1480.9 1222.8 1478.4 1234.9 1471.4 1245.9C1470 1248.2 1468.2 1250.2 1466.4 1252.8C1467.1 1256.4 1467.9 1260.1 1468.7 1263.9C1470.8 1273.3 1471.4 1282.8 1469.9 1292.4C1467.7 1307 1461.1 1318.9 1448.5 1327.2C1447.5 1327.9 1446.5 1328.5 1445.5 1329.2C1445.3 1329.4 1445.2 1329.7 1445.1 1329.8C1445.6 1337.7 1446.8 1345.4 1446.3 1353.1C1445.8 1360.4 1443.6 1367.6 1442.1 1375C1443.3 1376.1 1444.6 1375.4 1445.9 1374.7C1450 1372.2 1452.1 1368.2 1453.4 1363.9C1455.3 1357.5 1455.9 1351 1454.1 1344.4C1453.6 1342.5 1453.2 1340.5 1452.4 1337C1454 1338.7 1455 1339.3 1455.3 1340.2C1459.6 1349.3 1459.9 1358.7 1456.7 1368.1C1454.1 1375.7 1449.2 1381 1440.6 1381.6C1439.7 1381.6 1438.9 1381.9 1438.4 1382C1433.5 1386.9 1429.3 1392.1 1424.2 1396C1419.2 1399.9 1413.1 1402.4 1407.3 1405.8C1409 1406.9 1410.7 1407.9 1412.4 1409C1422.9 1415.8 1422.7 1434.1 1412.4 1441.7C1410.4 1443.2 1408.3 1444.2 1405.8 1443.7C1405 1443.5 1404.1 1443 1403.8 1442.3C1403.5 1441.6 1403.8 1440.6 1404.2 1439.8C1404.4 1439.3 1405 1438.9 1405.5 1438.6C1410.5 1436.4 1411.2 1432.1 1410.9 1427.4C1410.6 1422.2 1409.6 1417.2 1404.9 1414C1401.4 1411.7 1397.7 1410 1393.4 1409.5C1376.2 1407.4 1366.1 1390.9 1369.5 1373.7C1370.6 1367.9 1373.7 1363.2 1378.6 1359.8C1383.6 1356.3 1388.7 1356.7 1393.8 1359.8C1398.9 1362.9 1401.2 1367.5 1400.5 1373.4C1400.3 1375.3 1399.3 1377.5 1398 1379C1395 1382.6 1389.1 1381.2 1388.1 1376.6C1387.4 1373.5 1387.6 1370.1 1387.4 1367.2C1385.3 1365.4 1383.7 1366.3 1382.3 1367.4C1379.4 1369.7 1377.9 1373 1377.2 1376.6C1375.1 1387.7 1383.7 1399.2 1395 1400.4C1403 1401.2 1410.4 1399.4 1417.5 1395.6C1423.7 1392.3 1428.8 1387.8 1433.1 1381.7C1431 1379.8 1429 1378.1 1427.3 1376.2C1423.2 1371.7 1422.4 1366.9 1425.1 1362.3C1425.7 1361.4 1427.4 1361.1 1429.5 1360.1C1429.5 1364.1 1426.8 1367.1 1428.9 1370.2C1430.7 1372.7 1432.6 1374.8 1435.8 1375.3C1443.6 1365.5 1445.4 1349.5 1440.6 1332C1438.5 1332.1 1436.2 1332.2 1433.9 1332.3C1419.2 1333.2 1408.6 1326.5 1401.4 1314.2C1397.4 1307.5 1396.7 1300.1 1398.4 1292.5C1400.2 1284.2 1406.8 1278.5 1414.6 1278C1421.6 1277.6 1426.8 1280.5 1430.2 1286.6C1433.7 1292.8 1432.9 1301 1428.7 1306C1425.9 1309.3 1423.6 1309.2 1419.9 1305.1C1420.6 1304.1 1421.4 1302.9 1422.3 1301.8C1422.8 1301.1 1423.5 1300.4 1423.9 1299.7C1426.8 1294.5 1425.5 1288.4 1421 1285.3C1416.3 1282.1 1409.6 1283.5 1405.9 1288.5C1403.7 1291.5 1402.8 1295.1 1402.8 1298.7C1402.8 1318.7 1424.3 1330.8 1437.2 1325.3C1437.7 1325.1 1438.1 1324.6 1438.6 1324.3C1431.8 1289.8 1439.8 1271.5 1460.7 1250.8C1456.9 1232.7 1450.8 1214.6 1453.2 1194.9C1451.5 1194 1449.7 1193 1447.9 1192.3C1431.5 1185.2 1423.1 1172.2 1420.5 1155.1C1419.4 1148 1421.3 1141.4 1426.4 1136C1431.4 1130.7 1439.1 1128.9 1445.3 1131.5C1450.2 1133.5 1453 1138 1452.3 1142.8C1451.6 1148.1 1445.9 1150.7 1441.6 1147.6C1439.9 1146.4 1438.7 1144.6 1437.2 1143.2C1435.9 1141.9 1433.5 1141.9 1432.4 1143.4C1431 1145.3 1429.8 1147.4 1429.1 1149.6C1428.6 1151.2 1428.8 1153.2 1429 1154.9C1430.6 1168.8 1441 1180.8 1455.4 1185.1C1456.8 1182.7 1458.3 1180.1 1459.9 1177.7C1463.6 1172 1468.4 1167.7 1475.3 1166.2C1476.6 1165.9 1478.1 1166.2 1480.8 1166.2C1477.6 1169.7 1473.8 1169.4 1471.4 1171.5C1469.2 1173.5 1466.8 1175.3 1464.9 1177.6C1462.9 1180.1 1460.5 1182.6 1460.9 1186.2C1475.2 1189.1 1487.3 1185.1 1494.4 1174.7C1502.7 1162.7 1504.6 1149.9 1497.2 1136.8C1495.3 1133.5 1492.6 1130.5 1489.6 1128.2C1484.6 1124.3 1478.6 1125.2 1474.3 1129.8C1471.8 1132.5 1470.1 1135.6 1469.8 1139.3C1469.6 1142.4 1471 1144.8 1473.6 1145.7C1476.8 1146.7 1479.3 1146 1481.4 1143.4C1482.1 1142.6 1482.7 1141.7 1483.3 1140.9C1485.8 1142.5 1486.4 1144.6 1485.6 1146.6C1485 1148.1 1483.6 1149.8 1482.1 1150.4C1477.1 1152.4 1472.1 1152.4 1467.7 1149C1463.7 1145.9 1462.3 1140.8 1464.2 1135.2C1465.3 1132.2 1466.8 1129.1 1468.8 1126.6C1475.6 1118.3 1485.9 1117.2 1494.2 1124.1C1497.6 1126.9 1500.2 1130.6 1503.3 1133.9C1505.3 1133.3 1504.7 1131.5 1504.5 1130.3C1503 1122.7 1501.9 1114.9 1499.5 1107.6C1496.3 1098 1492.4 1088.6 1488 1079.4C1480.3 1063.2 1472.1 1047.2 1466.7 1030C1466.5 1029.5 1466 1029.1 1465.5 1028.3C1463.5 1031.5 1463.3 1035 1462.8 1038.5C1462.3 1042 1461.9 1045.6 1461.1 1049.1C1460.3 1052.6 1458.5 1055.8 1455.5 1058.1C1452.5 1060.4 1449.3 1061.6 1445.5 1060.2C1442.9 1059.2 1442.2 1056.4 1444.4 1054.6C1446.2 1053.1 1448.3 1051.8 1450.1 1050.3C1455.1 1046.1 1458.3 1041 1458.3 1034.1C1458.3 1024.8 1458.9 1015.6 1459.1 1006.3C1459.5 987.8 1464 970.2 1470.2 953C1470.8 951.3 1471.4 949.6 1472.2 947.5C1470.7 946.3 1469.2 944.9 1467.6 943.8C1463.5 940.8 1459 938.2 1455.2 934.9C1439.6 921.3 1435.4 904.2 1440.4 884.6C1441.2 881.4 1442.3 877.9 1446.1 875.9C1436.3 910.7 1450.8 929.4 1474.8 940.8C1475.9 939.3 1477 937.6 1478.1 936C1481.4 931.4 1484.5 926.6 1488 922.1C1490.4 919 1493.5 916.5 1497.3 915.4C1498 915.2 1498.9 915.4 1501 915.4C1490.8 923.5 1484.1 932.7 1479.8 943.9C1482.5 945.8 1485 947.4 1487.3 949.2C1491.8 952.7 1496.4 956 1500.5 960C1508 967.3 1512.5 976.3 1514.5 986.6C1516.1 994.9 1514.7 1002.7 1509.5 1009.6C1505.2 1015.3 1499.5 1018 1492.3 1016.9C1486.5 1016 1482.2 1011.4 1482.2 1006C1482.2 1004.3 1482.8 1002.4 1483.6 1000.9C1484.7 998.8 1486.8 998.3 1489 998.6C1491 998.9 1492.4 1000.3 1492.7 1002.1C1493 1004.3 1492.5 1006.7 1492.4 1009.2L1491.8 1008.9ZM1462.1 1258.3C1453.6 1263.6 1447.2 1272.7 1443.3 1284.4C1439.2 1296.9 1439.1 1309.5 1443.1 1322.6C1444.9 1321.8 1446.3 1321.3 1447.4 1320.5C1454.9 1315 1459.8 1307.6 1462.5 1298.8C1466.5 1285.5 1465.6 1272.3 1462.1 1258.3Z" fill="#CFA257"/>
<path d="M1412.7 737.9C1411.1 735 1409.3 732.3 1408.1 729.3C1404.5 720.6 1407.3 712.1 1415 707.5C1419.2 705 1423.6 704.9 1427.7 707.5C1432.1 710.2 1434.3 714.3 1433.7 719.6C1433.7 720.4 1433.3 721.5 1432.7 722C1431.9 722.7 1430.7 723.2 1429.6 723.2C1429.1 723.2 1428.3 721.9 1428.2 721.2C1428.1 720.1 1428.2 718.7 1428.7 717.8C1430.4 714.9 1429.5 712.7 1427.5 710.6C1425 708 1421.9 707.2 1418.4 708.2C1411.7 710.2 1407.5 717.7 1409.3 724.6C1410.3 728.4 1412.3 731.8 1415.2 734.5C1418.9 738.1 1423.4 740.5 1428.2 742.3C1429.5 742.8 1431.1 743 1432.5 742.9C1441.2 741.7 1449.3 739 1456.3 733.3C1464.1 727 1470.1 719.2 1474.4 710.2C1480.5 697.4 1484.3 683.9 1485.9 669.9C1486.7 662.8 1486.9 655.6 1487.2 648.4C1487.2 646.7 1486.8 645 1486.4 641.9C1484.9 643.9 1484.1 644.6 1483.7 645.5C1480.3 652.2 1476.2 658.5 1470.6 663.6C1468.3 665.7 1467.2 668.3 1466.1 671.2C1463.2 679.5 1458.2 686.6 1451.8 692.7C1447.8 696.5 1443.2 699.1 1437.7 700.1C1434.4 700.7 1431.1 700.4 1428.1 698.9C1424.7 697.2 1423.5 693.1 1425.4 689.7C1425.9 688.8 1427.2 687.9 1428.2 687.8C1429.2 687.6 1430.5 688.1 1431.4 688.8C1431.9 689.1 1431.8 690.5 1431.6 691.3C1431.3 692.3 1430.6 693.2 1429.8 694.7C1434.5 696.6 1438.5 696.2 1442.3 694.2C1450.9 689.4 1457.2 682.4 1460.8 673.2C1460.8 673.1 1460.5 672.8 1460 672.1C1457.4 672.9 1454.7 674 1451.9 674.7C1428.8 680.9 1413.4 669.7 1405.7 653.7C1401.2 644.4 1402.1 635 1407.5 626.2C1412.3 618.3 1420.6 614.8 1428.1 617.3C1436 619.9 1441.4 628.2 1440.8 637C1440.7 638.7 1440.2 640.5 1439.4 642.1C1438.5 644.2 1436.7 645.2 1434.3 645.1C1432.2 644.9 1430.5 643.5 1430 641.2C1429.7 639.8 1429.7 638.2 1429.5 636.8C1429.3 635 1429.5 633.2 1429.1 631.5C1428.2 627.3 1425.1 624.8 1421.3 623.7C1418.1 622.8 1415.6 625.1 1413.5 627.3C1407.6 633.5 1406.2 644 1410.3 652.5C1416.7 665.7 1431.3 676.5 1451.7 669.6C1456.9 667.9 1461.5 665.2 1465.6 661.6C1474.4 654 1480.4 644.5 1484.4 633.6C1485.6 630.4 1485.6 627.3 1484.9 624C1478.9 594.3 1463.4 571.2 1437.9 554.8C1437.1 554.3 1436.4 553.8 1435.7 553.2C1435.6 553.1 1435.7 552.7 1435.7 552.3C1436.8 550.7 1438.4 551.3 1439.7 551.8C1443.7 553.7 1448.1 555.3 1451.6 557.9C1474.4 574.8 1489.4 596.8 1493.5 625.3C1494.7 633.9 1496.1 642.5 1496.7 651.1C1497.8 666.3 1498 681.6 1493.7 696.5C1488.9 713 1480.8 727.4 1466.6 737.7C1458.5 743.6 1456.7 751.5 1458.6 760.6C1460.3 768.7 1464.9 772.8 1474 775C1478 772.3 1480.8 768.9 1480.8 763.5C1480.8 762.5 1482.6 760.9 1483.7 760.8C1484.9 760.7 1486.5 761.7 1487.4 762.7C1488.3 763.8 1488.8 765.4 1488.8 766.8C1489 770.3 1487.7 773.3 1485 775.5C1481.4 778.6 1477.2 779.7 1472.5 778.7C1462.7 776.7 1455.1 768.5 1453.8 758.2C1453.4 755.3 1453.5 752.3 1453.4 749.3C1451.4 748.7 1450.6 750 1449.8 751.3C1442 764 1442.1 776.8 1449.4 789.5C1452 794.1 1455.7 798.2 1459.1 802.3C1463.5 807.6 1468.3 812.5 1472.5 817.9C1479.2 826.5 1483.9 836.1 1485.3 847.1C1486 852.6 1485.5 857.9 1484.1 863.1C1482.7 868.2 1480 872.4 1475.3 875.1C1470.7 877.6 1466.1 877.6 1461.7 874.8C1457.7 872.3 1454.9 868.8 1455.3 863.8C1455.3 862.6 1456.5 861.1 1457.6 860.4C1459 859.4 1461.2 860.4 1462.2 862C1462.4 862.3 1462.5 862.5 1462.6 862.8C1462.7 863.1 1462.8 863.4 1462.9 863.6C1463.9 866.4 1464.5 869.7 1468.4 869.6C1472.5 869.5 1476.1 867.8 1477.9 863.9C1479.2 861 1480.1 857.7 1480.5 854.5C1481.3 848.2 1480.2 842 1477.9 836C1475.3 829.2 1471.6 823.1 1467 817.5C1463.2 812.9 1459.3 808.4 1455.2 803.9C1447.8 795.8 1441.9 786.9 1440 775.9C1439.9 775.1 1439.3 774.3 1438.7 773C1432.5 780.8 1429.3 789.2 1430.6 798.8C1431.4 804.6 1434.6 809.5 1439 813.3C1442.2 816 1445.7 818.3 1449.1 820.7C1452.5 823.2 1455.9 825.6 1459.1 828.2C1461.5 830.1 1463 832.7 1463.7 835.7C1464.7 840.6 1460.8 844.8 1456 844C1454.1 843.7 1452.5 842.4 1452.6 840.5C1452.6 839.3 1453.9 838 1455 837.3C1456.1 836.6 1457.7 836.6 1459.1 836.3C1458.7 832.1 1456 830.1 1453.4 828.2C1450 825.7 1446.5 823.5 1443 821.2C1438.5 818.2 1434.3 814.9 1431.1 810.4C1426.3 803.6 1425.1 796.1 1426.8 788.2C1428.4 780.8 1431.4 774 1438.7 769.9C1440.4 764.1 1442.1 758.1 1443.9 751.8C1442.6 751.8 1441.2 751.6 1439.9 751.8C1434.8 752.6 1429.8 752.2 1424.8 751.5C1417.7 750.5 1410.6 749.7 1403.8 747.2C1394.6 743.8 1386.8 738.5 1381 730.5C1376.1 723.7 1373.7 716.2 1374.5 707.7C1374.9 703.4 1376.4 699.5 1379.5 696.4C1384.6 691.2 1392.5 692.1 1396.4 698.3C1398.6 701.7 1398.9 705.6 1398.9 709.5C1398.9 713.1 1398.6 716.7 1398.9 720.3C1399.4 729.2 1403.8 735.4 1412.3 738.5C1412.9 738.9 1413.4 739.3 1414.1 739.6C1414.1 739.6 1414.5 739.3 1414.7 739.1C1414.1 738.7 1413.5 738.2 1413 737.8L1412.7 737.9Z" fill="#CFA257"/>
<path d="M382 748C381.8 751.9 381.9 754.6 381.5 757.3C380.1 768.2 372.5 776.6 362.4 778.5C355.7 779.8 349.2 776.5 346.9 770.7C345.7 767.7 345.7 764.7 347.8 762.3C348.6 761.3 350.4 760.4 351.5 760.5C352.6 760.7 354.1 762.2 354.4 763.3C356.1 770.6 356 770.6 361 774.7C366.3 774.7 370.2 771.6 373.3 767.4C379.6 759 378 744.7 369.6 738.3C351 724.3 341.5 705.1 338.7 682.6C337.3 671.7 336.6 660.6 338.4 649.6C339.8 640.5 340.5 631.2 342 622.1C346.6 595 361.2 574.2 382.8 557.9C385.9 555.6 389.4 553.8 392.9 552.2C394.7 551.4 396.8 551.4 400.7 550.6C398.6 552.7 398 553.6 397.2 554.1C372 570.3 356.6 593.2 350.1 622.3C349.1 626.9 349.4 631.1 351.2 635.4C354.9 644 359.7 651.9 366.4 658.5C373.2 665.2 381.2 669.5 390.7 670.9C408.6 673.6 422.2 660.9 426 648.1C428.2 640.9 426.8 633.8 422 627.8C419.7 625 416.9 622.1 412.9 623.5C408.7 624.9 405.8 627.9 405.3 632.6C405.1 635 405.3 637.4 405 639.8C404.7 642.6 403.1 644.5 400.7 644.8C398.1 645.2 395.6 643.4 394.6 640.5C392.1 633.1 396.1 622.8 403.1 618.6C410 614.5 418.5 615.7 424.3 622.2C431.1 629.9 433.5 638.9 430.6 648.9C424.8 669.2 403.6 680.5 383.1 674.4C380 673.5 377 672.3 372.8 670.8C373.8 673.1 374.1 674.4 374.8 675.6C378.2 681.3 382.2 686.5 387.4 690.7C392.3 694.6 397.6 696.8 404.7 694.8C404.1 693.4 403.4 692.2 403.3 690.9C403.3 689.9 403.6 688.4 404.4 687.9C405.2 687.4 406.8 687.4 407.7 687.9C411.6 690.2 411.4 695.9 407.5 698.3C404.6 700.1 401.3 700.5 398 700C392.9 699.2 388.3 697 384.4 693.5C377.6 687.4 372.3 680.3 369.2 671.6C367.9 667.8 365.7 664.9 363.1 661.9C359.2 657.4 356 652.3 352.6 647.5C351.4 645.8 350.6 644 349.6 642.4C347.3 642.8 347.9 644.3 347.9 645.3C347.2 666.2 350.6 686.4 358.7 705.8C362.6 715 367.8 723.3 375.2 730.1C382.4 736.9 390.8 741 400.6 742.5C403.4 742.9 406 743 408.4 741.7C411.8 739.8 415.4 738.1 418.3 735.7C424.3 730.6 427.9 724.3 425.3 715.9C425.2 715.5 425.6 714.9 425.8 714.4C430.5 722 429.5 727.2 421 738.9C422.6 740.5 423.8 738.9 424.9 738.3C432.8 733.7 437 727 436.3 717.6C436.1 714.6 435.8 711.6 436.2 708.6C436.6 705.4 437.1 702 438.5 699.1C442.1 691.9 451.2 691 456.4 697.2C459.2 700.5 460.6 704.4 460.8 708.7C461.3 715.8 459.3 722.3 455.5 728.3C450.9 735.6 444.7 741.1 436.9 744.7C430.1 747.9 423.1 750.3 415.5 750.7C411.6 750.9 407.8 752 404 752.2C399.9 752.4 395.8 751.8 390.9 751.6C392 754.6 393.1 757.3 393.8 760C394.6 762.9 395 765.8 395.7 769.1C402.7 773.1 406.4 779.8 408.2 787.6C410.4 797.2 408.5 806.1 401.4 813.4C398.5 816.4 395.1 818.9 391.7 821.3C388.6 823.6 385.2 825.6 382 827.8C379.3 829.7 376.8 831.8 376 834.9C376.7 837.8 379.2 836.3 380.4 837.3C381.2 838 382.4 839.2 382.3 840C382.1 841.3 381.2 842.9 380.1 843.5C377.8 844.7 375.4 844.3 373.5 842.5C371.4 840.5 370.6 838 371.3 835.1C372.2 831.8 374.2 829.2 376.8 827.1C379.9 824.7 383.1 822.6 386.3 820.3C389.4 818 392.8 816 395.6 813.4C403.9 805.9 406.8 796.7 403.1 785.8C401.6 781.4 400 777 396 772.9C395.3 774.6 394.7 775.6 394.5 776.7C393.2 785.3 389.2 792.5 383.7 799C379.5 804.1 375 808.9 370.7 813.9C365.6 819.8 361.2 826.2 358 833.3C354.4 841.2 353.5 849.4 354.9 857.9C355.8 863.2 358.2 867.5 363.8 869.1C367.3 870.1 369.4 869.3 371 865.9C371.8 864.3 372.2 862.4 373.3 861.1C374.1 860.2 376 859.9 377.3 860.1C378.2 860.2 379.2 861.6 379.5 862.6C379.8 864 379.8 865.6 379.3 867C376.2 876.4 365.1 879.6 357.4 873.4C354 870.7 352 867.1 350.8 863C348.1 853.7 349 844.7 352.2 835.7C354.7 828.6 358.5 822.1 363.3 816.3C367.3 811.5 371.7 806.9 375.7 802.1C379.3 797.7 383.2 793.4 385.9 788.5C393 775.7 392.8 762.8 384.6 750.3C384.2 749.6 383.3 749.2 381.7 747.9L382 748Z" fill="#CFA257"/>
<path d="M449.1 502C439.8 506.7 433.6 505.9 426.9 499.1C419.4 491.5 416.9 482.2 418.4 471.9C419.1 467.2 420.4 462.5 422.4 458.2C424.7 453.3 425.2 448.7 424.4 443.5C423.1 435.1 423.7 426.8 426.3 418.7C432.4 399.4 445 387.1 465.6 384.1C466.7 383.9 467.7 383.5 469.4 383C467.7 379.7 466.3 376.8 464.8 373.9C457.4 360 457.8 333.7 473.6 318C482.2 309.5 492.2 305.1 504.4 307.5C505.9 307.8 507.3 309 509.9 310.4C505.3 312 502 313 498.7 314.3C494 316.2 489.2 318 484.7 320.3C476.8 324.4 472 331.1 470.1 339.7C467.5 351.4 468.1 362.8 474.3 373.6C479.9 383.5 486.4 392.8 493.2 402.4C495.2 402.1 497.3 401.9 499.2 401.4C507.9 399.2 516.3 396.1 524 391.3C534.1 385 541.2 376.4 543.1 364.4C544.7 354.2 544 344.1 540.6 334.3C539.7 331.9 537.9 329.6 538.6 326.2C539.8 327.1 541 327.5 541.5 328.4C543.1 330.9 544.7 333.5 545.7 336.2C549.6 346.2 550 356.7 547.9 367.1C545.5 378.5 538.6 387 529.2 393.5C522 398.4 514 401.8 505.7 404.4C502.9 405.3 500.2 406.3 496.9 407.5C498.3 410.4 499.5 412.7 500.5 415.1C502.5 419.8 504.4 424.5 506.1 429.2C506.8 431.1 507.1 433.3 507.3 435.3C508 444.8 503.7 449.8 494.1 450.8C492.9 450.9 491.7 450.8 490 450.8C489.8 452.6 489.6 454.3 489.5 455.9C489.1 460.7 489.3 465.5 488.3 470.2C487.4 474.8 487 479 489 483.3C489.5 484.4 489.9 485.6 489.8 486.7C489.8 487.7 489 488.8 488.2 489.5C487.8 489.8 486.3 489.5 485.9 488.9C484.6 487 483.3 485 482.4 482.8C481.8 481.3 481.9 479.5 481.5 476.4C480 478.8 479 479.9 478.6 481.2C477 485.4 475.9 489.8 474.1 493.9C471.5 499.9 469 506 465.6 511.7C463 516.1 462 519.8 463.3 525C466.6 537.9 464.9 550.5 458.7 562.4C455.3 568.9 450.7 574.3 444.9 578.7C436.6 585 427.2 587.3 417 585.3C409.9 583.9 404.2 580.4 400.9 573.7C399.2 570.3 398.9 566.8 400 563.3C401 560 404.2 557.1 407 557.2C410.4 557.3 413.2 558.7 414.6 561.8C412.9 564.4 411.1 562.7 409.5 562.8C406.7 562.8 405 564.4 404.9 567.1C404.6 572.6 407.6 576.2 412 578.7C418 582.1 424.4 582.9 431.1 581.1C437.3 579.5 442.7 576.4 447.2 571.8C459.8 558.6 463.5 543 459.7 525.4C459.6 524.9 459.1 524.4 458.4 523.4C457.3 524.2 456.1 524.9 455.1 525.7C451 529.1 447.1 533 442.7 535.9C430.3 543.8 416.7 546.1 402.3 542.4C394.8 540.5 388.6 536.4 384.2 530C379.2 522.7 378.6 515 382.8 507.1C384.7 503.5 387.5 501 391.5 499.8C395.3 498.7 398.9 500.4 400.2 504.1C400.6 505.3 400.3 507 399.8 508.2C399.1 509.7 397.6 509.8 396 509.6C391.4 508.9 390.6 509.4 389.1 512.6C386.7 517.7 387.6 522.5 390.5 527C393.8 531.9 398.4 535.1 404 536.8C414.1 539.9 424.1 539.2 433.9 535.3C443.3 531.5 450.8 525.3 457.2 517.3C455.4 511.5 453.3 506.1 449.1 501.8V502ZM488.1 409.8C481.1 411.2 474.7 413.5 468.4 416.2C458.3 420.5 449.8 427 443.2 435.8C439.5 440.8 436.4 446.3 432.9 451.5C430.9 454.5 430.9 457.5 432.1 460.8C435.4 469.8 439.8 478.3 444.7 486.5C449.6 494.7 454.4 502.9 459.3 511.1C459.5 511.4 460.2 511.5 461.1 511.8C463.5 509.3 465.3 506.2 466.6 502.9C468.9 497.1 471 491.2 473 485.2C475.1 479 476.9 472.6 482.4 468.3C483.1 467.8 483.6 466.9 483.8 466.1C485.3 458.8 485 451.8 480.1 445.7C477.3 442.2 473.4 440.7 469.1 440.6C459.9 440.6 452.4 447.2 451.5 456.4C451.3 458.8 451.5 461.2 451.5 463.5C451.5 465.3 451.7 467.1 451.7 468.9C451.7 470.9 450.6 472.3 448.8 473C447 473.7 444.6 472.5 443.6 470.6C443.1 469.5 442.7 468.4 442.4 467.2C441.3 463 441.8 458.9 442.8 454.8C446.7 439.2 461.3 431.1 476.7 436.1C477.8 436.5 478.9 436.8 480.2 437.1C481.5 435.5 482.4 434 483.7 432.9C486.5 430.2 490.6 430.2 493.4 432.5C495.5 434.3 495.5 435.7 493.4 440.3C493.2 440.7 493.4 441.4 493.4 441.9C498.2 442.7 500.1 441.7 500.2 438C500.2 436.5 500.3 435 499.9 433.5C497.5 424.8 493.9 416.7 488 409.6L488.1 409.8ZM472.9 387.7C444.2 388.1 421.6 417.4 429.8 443.2C432.7 439.4 435.2 435.9 438.1 432.6C441 429.2 444 425.8 447.4 422.9C451 419.8 455 417.1 459.2 414.8C463.1 412.6 467.3 411 471.4 409.4C475.5 407.8 479.8 406.6 483.7 405.2C483.7 404.2 483.9 403.4 483.7 403C480.2 397.9 476.5 392.8 472.9 387.6V387.7ZM428.1 462.8C424.9 468.9 424.6 474.1 424.7 479.5C424.9 487.2 428.2 492.5 435.6 495.3C439.2 496.6 440.1 496.4 443.2 491.8C438.4 482.7 433.6 473.5 428.1 462.9V462.8Z" fill="#CFA257"/>
<path d="M1442.4 508.6C1441.1 509 1440.3 509.3 1439.5 509.6C1438 510.2 1436.6 510.1 1435.4 508.8C1434 507.3 1433.9 505.6 1434.8 503.8C1436.4 500.6 1439.7 499 1443 499.8C1446.6 500.7 1449.4 502.8 1451.5 506C1456.1 513 1456 522.4 1451 529.7C1446.4 536.4 1440.1 540.7 1432.2 542.6C1413.9 547 1398 542.1 1384 529.9C1381.8 527.9 1379.6 525.9 1377.4 523.9C1377.2 523.8 1376.9 523.9 1376.1 523.9C1374.2 526.1 1374.4 529.3 1374.1 532.1C1372.5 546.2 1376.4 558.7 1385.6 569.6C1390.5 575.5 1396.8 579.5 1404.3 581.4C1410.3 582.9 1416.2 582.1 1421.8 579.6C1425.5 577.9 1428.2 575.2 1429.6 571.4C1431.6 566.1 1429.2 563.1 1423.3 563.5C1422.7 563.5 1422.1 563.5 1421.5 563.5C1421.2 563.5 1421 563.2 1420.4 562.8C1420.5 559.7 1423.1 558.8 1425.4 557.8C1427.9 556.7 1430.2 557.5 1432 559.3C1435.4 562.4 1436.4 566.4 1435.2 570.8C1433.5 576.9 1429.6 581.3 1423.8 583.8C1416.4 587 1408.7 587.2 1401 584.8C1395.8 583.2 1391.1 580.5 1387.2 576.7C1374 564.1 1368.3 548.7 1370.7 530.5C1371 527.8 1371.5 525.2 1372.3 522.6C1373.1 519.8 1373 517.5 1371.3 515C1365.4 506.6 1361.8 497.1 1358.6 487.4C1357.6 484.2 1357.1 480.5 1353.8 477.8C1352.5 482.1 1352.8 486.7 1348.9 489.3C1348.3 489.7 1347.1 489.9 1346.5 489.7C1345.8 489.4 1345.4 488.5 1345 487.7C1344.8 487.2 1345 486.5 1345.2 486C1345.3 485.4 1345.6 484.9 1345.8 484.3C1347.7 479.7 1347.7 475.3 1346.7 470.4C1345.4 464.4 1345.7 458 1345.2 451.4C1343.5 451.4 1341.8 451.3 1340.1 451.1C1331.9 450.1 1327.7 445.6 1327.9 437.4C1327.9 434.2 1328.5 430.8 1329.5 427.8C1331.3 422.7 1333.6 417.9 1335.7 412.9C1336.4 411.3 1337 409.8 1337.9 407.7C1334.6 406.5 1331.8 405.5 1329 404.6C1321.3 402.1 1313.8 399 1307 394.6C1286.3 381.1 1279.3 353.8 1291.1 332.1C1291.9 330.5 1293.1 329.1 1294.2 327.7C1294.5 327.3 1295.2 327.3 1295.8 327.1C1297.5 328.4 1296.1 329.8 1295.7 331C1293.2 336.8 1291.7 342.9 1291.2 349.2C1289.2 371.2 1297.8 384.8 1314.6 393.6C1322.8 397.9 1331.5 400.9 1341.1 402.8C1342.4 401.2 1343.9 399.8 1345 398.1C1350.5 389.6 1356.3 381.2 1361.4 372.4C1367.6 361.7 1367.4 350.1 1364.5 338.5C1362.5 330.5 1357.7 324.5 1350.6 320.7C1345.9 318.2 1340.8 316.4 1335.8 314.4C1332.8 313.2 1329.8 312.2 1325.4 310.6C1328 309.2 1329.3 308 1330.8 307.7C1342 305.4 1351.5 308.9 1359.6 316.4C1368.8 324.9 1373.6 335.6 1374.7 348C1375.6 358.1 1374 367.7 1369 376.6C1367.9 378.6 1367 380.7 1365.8 383.3C1367.6 383.8 1368.7 384.2 1369.7 384.3C1392.2 387.8 1408.5 404.8 1410.7 427.7C1411.3 433.6 1411.1 439.7 1410.5 445.6C1410.1 450 1410.5 453.8 1412.5 457.7C1415.2 463.1 1416.7 468.9 1417 475C1417.4 484 1415.2 492.2 1408.8 498.9C1404.9 502.9 1400.4 505.8 1394.6 505.3C1391.8 505 1389 503.8 1385.5 502.7C1382 506.6 1380.1 511.8 1378.3 516.8C1391.4 537.3 1415.7 542.3 1430.7 537.5C1436.3 535.7 1441 532.7 1444.5 528C1446.5 525.3 1447.5 522.1 1447.5 518.8C1447.5 515.5 1446.6 513.7 1442.7 509L1442.4 508.6ZM1354.6 437.2C1356.1 436.8 1356.7 436.8 1357.3 436.6C1377.1 427.8 1396.3 446.8 1392.7 467.1C1392.4 468.8 1391.6 470.6 1390.4 471.8C1389.5 472.7 1387.6 473.3 1386.4 473C1385.3 472.7 1383.9 471.2 1383.6 470C1383.2 468 1383.6 465.9 1383.6 463.8C1383.6 461.1 1383.9 458.4 1383.6 455.8C1382 443.4 1367.7 437.3 1358.5 442.8C1353.5 445.8 1351.3 450.7 1350.7 456.3C1350.1 461.3 1350 466.1 1354.5 470.2C1357.2 472.7 1358.8 476.6 1360.3 480.1C1361.9 483.6 1362.8 487.4 1363.9 491.2C1365.8 497.5 1368.3 503.6 1371.8 509.2C1372.5 510.4 1373.1 512 1375.5 511.7C1376 510.9 1376.6 510 1377.2 509C1381.1 502.3 1385 495.6 1389 489C1394.3 480.3 1399.2 471.4 1402.7 461.8C1404 458.3 1404.2 455.1 1402.3 451.5C1392.2 432.5 1378 418.3 1356.7 412.5C1355 412 1353.3 411.4 1351.5 411C1349.8 410.6 1348.1 410.4 1346.6 410.1C1341.9 416.3 1338.7 422.7 1336.4 429.5C1335.5 432.3 1335.3 435.3 1335 438.3C1334.8 440.2 1335.7 441.8 1337.6 442.6C1339.4 443.3 1341.1 443.3 1342.2 441.3C1340 439 1338.3 436.6 1340.9 433.5C1342.8 431.2 1346.3 430.3 1349.1 431.5C1350.2 432 1351.2 432.7 1351.9 433.6C1352.9 434.7 1353.6 436 1354.6 437.3V437.2ZM1351 404.1C1351.5 404.9 1351.6 405.3 1351.8 405.3C1354.6 406.3 1357.4 407.2 1360.3 408.1C1376.8 413.2 1390.4 422.5 1400.3 436.8C1401.3 438.3 1402.4 439.7 1403.4 441.2C1404.1 442.2 1404.9 443.1 1406.3 442.3C1410.2 412.6 1389.1 386.4 1362.3 388C1358.3 393.2 1353.8 398.3 1350.9 404.1H1351ZM1391.6 492.1C1395.8 496.6 1396.1 496.5 1400 495C1407.1 492.3 1410 487 1410.5 479.8C1410.8 475.3 1410.2 470.8 1408.7 466.5C1408.4 465.5 1407.6 464.7 1406.7 463.3C1401.5 473.1 1396.7 482.4 1391.6 492.1Z" fill="#CFA257"/>
<path d="M670.6 211.4C660.7 214.1 651.9 219 644.1 225.6C637 231.6 630.4 238 623.8 244.6C617.5 251 611.8 257.9 605.4 264.2C598.8 270.7 592.1 277.1 584.7 282.8C572.9 291.8 559.6 298.1 544.5 299.1C538.9 299.5 533.1 299.2 527.6 298.1C515.9 295.6 509 288 506.4 276.3C505.3 271.3 506.5 266.8 509.5 262.8C511.4 260.3 513.9 258.8 517.2 259.1C521.5 259.5 524.1 263.5 522.5 267.5C521.6 269.7 520.3 271.7 519.2 273.9C515.7 281.3 517.3 286.7 524.6 290.2C527.8 291.7 531.4 292.6 534.9 293C543.6 294 552.1 293 560.5 290.1C572.9 285.8 583.9 279.2 593.2 270.3C602.7 261.2 611.5 251.4 620.5 241.8C620.8 241.5 620.8 240.8 621.3 239.5C618.4 240.8 616 241.9 613.7 243C607.2 246.3 600.4 248.4 593.3 249.4C582.7 250.9 573 248.5 565 241.2C550 227.7 554.5 204.4 573.3 197.5C583.2 193.9 590.4 196.1 596.8 204.6C597.8 206 599.1 207.6 600.6 208C611.7 211.2 623 212.3 634.1 208.6C644.2 205.3 650.7 198.3 653.7 188.1C655 183.6 654.7 179.2 652.2 175.1C651.6 174.1 650.1 173.5 649.1 172.9C646.9 174.6 648.5 176 648.3 177.3C648.2 178.1 647.7 179.1 647.1 179.4C646.5 179.7 645.1 179.4 644.7 179C642.6 176.5 642.8 173 644.7 170.9C646.8 168.8 650.4 168.7 652.8 171.1C657.2 175.5 658.1 181 657.2 186.9C655.1 200.2 644.4 211 630.6 214.1C621.3 216.2 612.2 215.6 603.1 213.4C601.7 213.1 600.2 212.6 598.4 212.1C595.1 215.9 591.7 219.9 585.9 218.8C583.9 218.4 581.7 218 581.8 214.5C584.1 214.5 586.4 214.7 588.6 214.5C592.3 214.1 594.2 210.5 592.5 207.2C590.6 203.4 587.3 201.6 583.1 201.3C568.3 200.1 557 214.9 562 229C564.9 237.3 571.1 242.1 579.3 244.6C586.7 246.9 594.1 245.7 601.4 243.6C608.9 241.4 615.8 237.7 622.3 233.5C631.4 227.7 640.4 221.9 649.4 215.9C661.4 208 674.4 203.3 688.8 202.3C695.4 201.8 701.9 202.4 708.4 203.8C708.8 203.8 709.1 204.6 709.8 205.6C708.4 205.7 707.3 205.9 706.2 205.9C703.2 205.9 700.2 206.1 697.2 205.9C688.1 205.5 681.3 210 675.1 216C666 224.9 660.8 235.8 657.9 247.9C656.8 252.5 655.8 257.2 654.4 261.8C652.3 268.7 649.1 275.1 644.4 280.7C641.3 284.4 637.5 287.3 632.6 288.4C630.1 289 627.9 288.5 625.7 287.2C623.2 285.6 623.2 282 625.7 280.5C627.2 279.6 629 278.9 630.7 278.6C640.2 277.2 645.4 271.3 648.1 262.6C650.5 254.6 652.9 246.6 655.1 238.5C658.5 226.1 658.1 224.3 670 211.3L670.6 211.4Z" fill="#CFA257"/>
<path d="M1252.9 214.2C1251.6 218.4 1249.2 219.3 1244.7 218.5C1240.8 217.7 1239.1 214.4 1236.7 212.2C1231.6 213.1 1226.9 214.2 1222.2 214.8C1214 215.9 1206 215 1198.4 212C1188.1 207.8 1181.2 200.3 1178.1 189.5C1176.7 184.7 1176.8 180 1178.8 175.5C1179.5 173.9 1180.5 172.3 1181.7 171.1C1184 168.7 1187.6 168.6 1189.8 170.6C1192 172.6 1192.3 175.9 1190.2 178.7C1189.8 179.3 1188.6 179.7 1187.9 179.5C1187.3 179.3 1186.6 178.4 1186.4 177.6C1186.2 176.8 1186.9 175.8 1186.8 175C1186.8 174.3 1186.1 173.6 1185.5 173.2C1185.2 173 1184.1 173.2 1183.9 173.6C1182.8 175.6 1181.3 177.7 1180.8 179.9C1179.8 184.7 1180.8 189.4 1183.1 193.8C1188.3 203.5 1196.6 208.9 1207.3 210.3C1215.3 211.3 1223.4 211 1231.3 208.9C1234.3 208.1 1236.5 206.9 1238.4 204.1C1243.5 196.5 1250.6 194.3 1259.5 196.8C1278.6 202.2 1285 225.6 1271 239.9C1262.9 248.2 1252.7 250.9 1241.4 249.4C1234.6 248.5 1228 246.4 1221.7 243.4C1219.7 242.5 1217.8 240.5 1214.6 241.4C1215.2 242.5 1215.5 243.6 1216.2 244.3C1223.8 252.3 1231.2 260.6 1239.2 268.3C1251 279.7 1264.7 288.1 1280.8 292C1287.9 293.7 1295.1 293.7 1302.2 292.6C1305.4 292.1 1308.6 290.9 1311.4 289.2C1317.4 285.7 1318.7 281 1315.9 274.7C1314.9 272.5 1313.5 270.5 1312.5 268.4C1311.1 265.3 1311.4 262.8 1313.3 261C1315.7 258.6 1319.3 258.3 1322.4 260.3C1325.7 262.3 1327.4 265.4 1328 269.1C1329.5 277.8 1326.4 285 1320.5 291.1C1316.4 295.3 1311.2 297.5 1305.5 298.5C1295 300.3 1284.6 299.4 1274.6 295.9C1263.5 292 1253.3 286.3 1244.5 278.5C1238.4 273.2 1232.7 267.5 1227.1 261.7C1219.4 253.8 1212 245.5 1204.2 237.6C1196.4 229.7 1188 222.4 1178.2 217.1C1175.3 215.5 1172.4 214.1 1169.4 212.7C1167.8 212 1166.1 211.5 1162.6 210.3C1164.7 212.7 1165.4 213.8 1166.4 214.6C1172.6 219.8 1176.1 226.6 1178.2 234.3C1180.1 241.5 1182.1 248.7 1184.2 255.9C1185.3 259.6 1186.5 263.3 1188 266.9C1190.4 272.8 1194.9 276.6 1201.1 278.2C1203.4 278.8 1205.7 279.3 1208 280.2C1209.8 280.9 1211 282.4 1210.7 284.4C1210.5 286.3 1209.1 287.8 1207.3 288.1C1205.3 288.5 1203.1 288.6 1201.2 288.2C1195.9 287.1 1192.3 283.5 1189.1 279.4C1184.3 273.1 1181.2 266 1179.2 258.5C1178.3 255.3 1177.8 252.1 1177 248.9C1174.4 238.3 1170.3 228.5 1163.3 220C1155.2 210.1 1145.2 204.6 1132.2 205.7C1130.2 205.9 1128.1 205.7 1126.1 205.5C1126 205.5 1125.8 205.1 1125.7 204.8C1131.7 202.5 1136.7 201.9 1143.7 202.2C1158.7 202.9 1172.4 207.3 1185 215.6C1193 220.9 1201 226.2 1209.1 231.3C1214.2 234.5 1219.4 237.4 1224.7 240.1C1230.9 243.3 1237.5 245.1 1244.4 245.6C1253.5 246.3 1261.6 243.7 1268 236.9C1278.8 225.5 1274.7 207.8 1260.2 202.3C1256.7 201 1253.2 200.7 1249.6 201.5C1245.9 202.3 1243 204.4 1242 208.3C1241.2 211.2 1242.9 213.9 1245.8 214.3C1248.1 214.5 1250.5 214.3 1252.9 214.3V214.2Z" fill="#CFA257"/>
<path d="M1494 1031.5C1495.2 1035.8 1496.1 1039.6 1497.3 1043.4C1501.2 1055.9 1508.3 1065.8 1520.5 1071.5C1522.7 1072.5 1524.9 1073.5 1526.8 1074.8C1528.5 1075.9 1530.2 1077.3 1531.5 1078.9C1534.6 1082.9 1533.4 1087.8 1528.9 1090.2C1525 1092.3 1520.8 1092.6 1516.8 1091C1513.5 1089.8 1510.2 1088 1507.6 1085.7C1504.5 1083 1501.8 1079.6 1499.6 1076.1C1493.4 1066 1490 1054.9 1489.8 1043C1489.8 1038.9 1490 1034.7 1494.1 1031.3L1494 1031.5ZM1500.8 1066.2C1503.4 1074 1507.3 1080.8 1514.4 1085C1516.1 1086 1518.2 1086.6 1520.2 1087C1522.8 1087.5 1525.6 1087.6 1527.3 1084.9C1528.3 1083.3 1526.6 1081.2 1522.8 1079.3C1522.5 1079.2 1522.3 1079.1 1522 1079C1514.2 1076 1507.1 1071.9 1500.7 1066.2H1500.8Z" fill="#CFA257"/>
<path d="M501.9 381.6C500.4 380.5 498.8 380 498.3 378.9C492.9 368.9 491.9 358.5 495.6 347.8C497.4 342.5 501.5 338.9 505.8 335.5C512.7 330 518.3 323.5 522.9 316.1C524.3 313.8 525.5 311.4 526.8 309.1C527.4 308.1 527.8 306.9 528.6 306.1C529.1 305.5 530.2 305 530.9 305.1C531.6 305.1 532.4 306 532.8 306.7C533.2 307.4 533.3 308.4 533.3 309.3C533.3 318.4 531.8 327.2 528 335.4C526.9 337.8 525.2 339.9 523.4 341.9C521.2 344.4 518.9 346.8 516.3 348.8C507.3 355.7 503.5 365 503.4 376.1C503.4 377.3 503.2 378.5 503 379.6C503 379.9 502.7 380.1 501.9 381.6ZM528.9 318.4C528.9 318.4 528 318.1 527.5 317.9C525.8 320.3 524 322.6 522.3 325C517.8 331.4 511.9 336.5 506 341.6C498.4 348.1 497.2 356.4 498.9 366C499.7 365.2 500.3 364.8 500.4 364.4C502.7 354.1 509 346.6 517.7 341.4C522.8 338.3 525.4 334.1 526.7 328.7C527.6 325.3 528.2 321.8 528.9 318.3V318.4Z" fill="#CFA257"/>
<path d="M341.2 1031.4C345.2 1035.3 345.6 1039.9 345.3 1044.3C344.4 1058 340.4 1070.7 331.8 1081.6C328.4 1085.9 324.3 1089.3 319 1091.1C314.9 1092.5 310.8 1092.6 306.8 1090.7C301.4 1088.2 300.1 1082.7 304.2 1078.3C305.6 1076.8 307.3 1075.6 309.1 1074.5C311.1 1073.2 313.3 1072.3 315.5 1071.2C326.7 1065.8 333.4 1056.6 337.2 1045.1C338.6 1040.9 339.7 1036.6 341.2 1031.5V1031.4ZM336 1066.2C335.2 1066 333.9 1065.4 333.6 1065.7C327.5 1072.5 319.5 1076.4 311.3 1079.7C310 1080.2 308.9 1081.4 307.9 1082.4C306.9 1083.4 307.5 1085.6 308.8 1086.1C313.3 1087.9 317.5 1087 321.4 1084.5C325.7 1081.7 328.8 1077.8 331.5 1073.5C333 1071 334.6 1068.5 336.1 1066.1C335.9 1065.9 335.7 1065.8 335.6 1065.6C335.6 1065.5 335.7 1065.2 335.8 1065C335.8 1065.4 335.9 1065.8 336 1066.1V1066.2Z" fill="#CFA257"/>
<path d="M1332.5 380.9C1331.7 375.5 1331.2 370.8 1330.3 366.1C1329.1 360 1325.9 355.1 1321.2 351C1318.5 348.6 1316 346.1 1313.3 343.7C1308.8 339.8 1306.1 334.9 1304.7 329.3C1303.4 324.1 1302.4 318.8 1301.6 313.5C1301.3 311.5 1301.6 309.3 1301.9 307.3C1302.1 306.4 1303.2 305.4 1304.2 305C1304.7 304.8 1305.9 305.5 1306.4 306.1C1307.2 307 1307.7 308.1 1308.2 309.1C1313.4 319.7 1320.6 328.8 1329.9 336.1C1335.4 340.5 1339.8 345.7 1340.7 353C1341.9 361.8 1341.3 370.3 1337 378.3C1336.4 379.5 1336.3 379.5 1332.3 380.8L1332.5 380.9ZM1335.8 365.7C1335.8 365.7 1336.6 365.4 1336.6 365.3C1338.3 355.1 1335.7 346.5 1327.4 340C1320.3 334.5 1314.4 327.9 1309.5 320.2C1309 319.4 1308 318.8 1306 317C1306.9 321.2 1307.4 323.8 1307.9 326.4C1309.2 333 1312 338.3 1318.3 342C1326.4 346.8 1332.2 354 1334.5 363.6C1334.7 364.4 1335.4 365 1335.8 365.7Z" fill="#CFA257"/>
<path d="M556.501 342.9C554.501 342.6 554.201 341.2 554.601 339.7C558.201 327.3 564.501 316.7 575.301 309.2C578.301 307.2 581.301 305.3 584.501 303.7C593.101 299.5 599.801 293.4 605.101 285.6C606.401 283.7 608.001 282.1 610.501 279.1C610.701 282 611.001 283.4 610.801 284.7C608.501 296.8 601.701 306 591.801 312.9C588.101 315.4 584.201 317.6 580.201 319.6C570.501 324.3 562.701 330.9 558.301 341.1C558.101 341.6 557.601 342.1 557.201 342.5C557.001 342.7 556.701 342.8 556.401 343L556.501 342.9ZM595.001 304.6C587.001 307.3 579.701 311.8 575.101 317C584.901 313.9 590.401 310.4 595.001 304.6Z" fill="#CFA257"/>
<path d="M1046.1 1728.5C1045.3 1729.5 1044.8 1730.6 1044 1731.2C1039.4 1734.6 1037.1 1739.3 1035.4 1744.5C1033.9 1749.3 1032.3 1754.2 1030.1 1758.8C1024.1 1771.1 1013.2 1775.9 1000.4 1777.4C999.3 1777.5 998.1 1777 997 1776.6C995.7 1776.1 995.5 1773.6 996.6 1772.8C997.1 1772.5 997.6 1772.1 998.1 1771.9C1005.4 1769.5 1009.9 1764 1013.7 1757.7C1016.3 1753.3 1018.7 1748.8 1021.3 1744.5C1023.3 1741.2 1025.4 1737.9 1027.7 1734.8C1032.2 1728.8 1038 1726.2 1046.1 1728.5ZM1032.1 1735.7C1030.7 1737.6 1029.9 1738.3 1029.4 1739.3C1024.4 1748.1 1019.4 1756.9 1014.5 1765.7C1014.5 1765.8 1014.5 1766.2 1014.8 1766.4C1015 1766.6 1015.3 1766.7 1015.5 1766.9C1024.7 1761.5 1028.7 1754.3 1032.2 1735.8L1032.1 1735.7Z" fill="#CFA257"/>
<path d="M1224.6 278.9C1227.5 282.6 1229.4 284.8 1231.1 287.2C1235.9 293.9 1241.8 299.2 1249.1 303C1253.1 305.1 1257 307.3 1260.6 309.9C1271.1 317.3 1277.1 327.8 1280.4 339.9C1280.8 341.5 1280.4 342.8 1277.9 342.8C1277.4 342 1276.6 341.1 1276.2 340C1272.4 331.4 1266 325.4 1257.8 321.1C1253.6 318.9 1249.3 316.7 1245.2 314.2C1235.3 307.9 1228.1 299.3 1224.9 287.8C1224.5 286.4 1224.2 284.9 1224.1 283.4C1224.1 282.5 1224.3 281.7 1224.6 278.8V278.9ZM1236.6 301.1C1239 305.7 1243.1 308.6 1247.3 311.3C1253.8 315.3 1255.9 316.2 1260.7 316.8C1253.6 309.9 1244.2 307 1236.5 301.1H1236.6Z" fill="#CFA257"/>
<path d="M839.7 1773.9C839.1 1774.9 838.7 1776.2 837.9 1776.6C836.6 1777.2 835 1777.6 833.6 1777.4C819.8 1775.3 808.7 1769.5 803.3 1755.6C802.2 1752.8 801.2 1750 800.3 1747.2C798.033 1740.13 794.367 1734.2 789.3 1729.4C789.1 1727.7 790.2 1727.7 791.5 1727.5C798.9 1726.6 804.1 1730.1 808.2 1735.8C810.4 1738.9 812.4 1742.3 814.4 1745.6C816.8 1749.7 819.1 1753.9 821.6 1758C825.4 1764.2 830 1769.6 837.2 1772C838 1772.3 838.6 1773 839.7 1773.9ZM803.5 1738.5C803.5 1738.5 803.5 1737.5 803.5 1737L802.5 1737.4C802.5 1737.4 803.3 1738 803.7 1738.3C804.2 1745.3 807 1751.5 810 1757.7C811.9 1761.5 814.8 1764.6 818.5 1766.7C819.3 1767.1 821.6 1767.7 821.1 1766.7C817.1 1758.7 812.6 1751 808.2 1743.3C807.1 1741.4 806.6 1738.7 803.6 1738.6L803.5 1738.5Z" fill="#CFA257"/>
<path d="M1442 1214.3C1442.1 1215.4 1442.4 1216.1 1442.3 1216.6C1439.6 1224.6 1438.6 1232.8 1439.4 1241.2C1440.1 1248.5 1437.3 1254.7 1432 1259.6C1428.5 1262.8 1424.6 1265.5 1420.7 1268.3C1419.6 1269.1 1418 1269.4 1416.6 1269.8C1415.3 1270.1 1413.5 1268.3 1413.9 1267.1C1414.2 1266 1414.6 1264.8 1415.3 1263.9C1418 1259.8 1418.9 1255.2 1419.8 1250.5C1420.7 1245.6 1421.7 1240.5 1423.6 1235.9C1425.3 1231.9 1428 1228.2 1430.7 1224.7C1433.4 1221.2 1436.7 1218.2 1439.8 1215C1440.1 1214.7 1440.9 1214.7 1442 1214.5V1214.3ZM1423.7 1258.3C1428.2 1255.9 1430.4 1253.7 1432 1249.9C1434.5 1243.9 1433.5 1237.9 1432.4 1231.4C1426.4 1237.1 1423.4 1246.9 1423.8 1258.3H1423.7Z" fill="#CFA257"/>
<path d="M1461.7 1062.4C1462.8 1064 1463.5 1064.7 1463.7 1065.5C1465.8 1075.2 1467 1084.9 1466.4 1094.8C1465.8 1103.1 1462 1109.6 1454.6 1113.6C1452.6 1114.7 1450.1 1115.3 1447.8 1115.4C1442.5 1115.6 1439.6 1111.4 1441.3 1106.4C1441.9 1104.7 1442.8 1103.2 1443.8 1101.6C1451.3 1089.7 1457.2 1077 1461.7 1062.4ZM1446.9 1108.5C1447.6 1109.1 1447.8 1109.4 1448.1 1109.4C1449 1109.4 1449.9 1109.6 1450.7 1109.3C1456.5 1106.7 1459.9 1102 1460.9 1095.8C1461.4 1092.9 1461.3 1089.9 1461.3 1087C1461.3 1085.8 1461.9 1084 1459.4 1083.6C1457.5 1087.9 1455.6 1092.2 1453.5 1096.4C1451.4 1100.5 1449.1 1104.5 1446.9 1108.5Z" fill="#CFA257"/>
<path d="M373.2 1062.5C378.3 1077.7 384.3 1090.6 392 1102.8C392.9 1104.3 393.7 1106 394.2 1107.7C395.2 1111.5 392.7 1114.9 388.8 1115.5C385.7 1115.9 382.9 1115.3 380.2 1113.7C373.6 1109.8 369.8 1104 368.9 1096.4C367.9 1087.7 368.9 1079.1 370.4 1070.6C370.8 1068.4 370.8 1066 373.2 1062.7V1062.5ZM375 1082.7C372.8 1088.3 373.7 1092.7 374.5 1097C375.6 1102.6 378.9 1106.6 384 1109.1C385.3 1109.7 386.7 1110.2 387.8 1108.3C383.7 1100.2 379.6 1092.1 374.9 1082.7H375Z" fill="#CFA257"/>
<path d="M393.3 1214.4C393.8 1214.4 394.3 1214.3 394.4 1214.4C398.5 1218.6 402.8 1222.6 406.6 1227.1C410.7 1231.9 412.9 1237.8 414.2 1244C414.9 1247.5 415.1 1251.1 416.2 1254.5C417.5 1258.4 419.5 1262.1 421 1265.9C421.3 1266.6 421.3 1268 420.8 1268.4C420 1269.1 418.7 1269.6 417.7 1269.5C416.3 1269.3 414.8 1268.7 413.6 1267.8C409.8 1265 405.9 1262.2 402.5 1258.9C397.8 1254.4 395.1 1248.8 395.7 1242.1C396.5 1233.4 395.4 1224.9 392.8 1216.6C392.6 1215.9 393.1 1215.1 393.2 1214.3L393.3 1214.4ZM412 1260C410.4 1242.4 408.4 1236.3 402.3 1231.3C402.1 1235.2 401.7 1238.6 401.6 1242.1C401.4 1249.6 405.2 1254.9 412 1260Z" fill="#CFA257"/>
<path d="M1185.8 1733.4C1180.6 1737.5 1175.8 1741.6 1170.8 1745.2C1167.9 1747.3 1164.8 1749.2 1161.5 1750.4C1154.5 1753 1147 1753.6 1139.5 1753.8C1138.1 1753.8 1136.6 1753.2 1135.2 1752.8C1134.2 1752.5 1133.9 1750.4 1134.7 1749.8C1135.6 1749.1 1136.6 1748.3 1137.7 1747.9C1144 1745.7 1149.2 1741.7 1154.3 1737.6C1157.1 1735.4 1159.9 1733.1 1162.9 1731.3C1171.8 1726 1176.9 1726.6 1185.8 1733.5V1733.4ZM1179.4 1731.8C1168.4 1730.6 1163.7 1733.1 1152.2 1745.6C1163.7 1746.3 1169.7 1737.3 1179.4 1731.8Z" fill="#CFA257"/>
<path d="M649.3 1733.7C657.3 1726.7 662.5 1725.9 671.1 1730.6C673.7 1732 676.2 1733.8 678.4 1735.6C684.6 1740.7 690.9 1745.7 698.6 1748.4C699.4 1748.7 700.2 1749.4 700.5 1750.1C700.8 1750.7 700.5 1752 700 1752.3C699.1 1753 697.9 1753.6 696.8 1753.6C683.6 1753.3 670.6 1752.3 660.5 1742C657.2 1738.7 653 1736.4 649.2 1733.6L649.3 1733.7ZM656.2 1731.8C660.2 1734.8 663.3 1737.1 666.3 1739.5C670.1 1742.5 674.2 1744.9 679.1 1745.7C680.1 1745.9 681.1 1745.7 683.6 1745.5C678.5 1741.1 674.9 1737.2 670.4 1734.4C666.3 1731.8 662 1730 656.3 1731.9L656.2 1731.8Z" fill="#CFA257"/>
<path d="M1484.4 783.2C1483.4 786.4 1482.4 789.1 1481.6 791.8C1480.3 796.6 1480.7 801.3 1482.4 805.9C1483.8 809.6 1486.6 811 1490.3 809.7C1492.6 808.9 1494.6 807.6 1496.9 806.8C1503.5 804.4 1509.3 806.9 1510.6 812.6C1511.7 817.3 1507.5 822.8 1501.5 824C1494.9 825.3 1489 823.5 1484.3 818.6C1477.9 811.8 1475 803.4 1473.6 794.4C1473.1 791.4 1473.8 788.3 1476 786C1478.1 783.7 1481 783.1 1484.4 783.2ZM1489.5 816.7C1494.6 820.3 1496.9 821.1 1500.3 820.3C1502.6 819.7 1504.7 818.8 1506.1 816.6C1507.6 814.2 1506.4 810.8 1503.5 810.4C1502.4 810.2 1501 810.2 1500.1 810.6C1496.5 812.5 1493.1 814.6 1489.5 816.7Z" fill="#CFA257"/>
<path d="M351.2 783.3C354.2 783 357.1 783.7 359.1 786.1C361.3 788.7 362.1 792 361.4 795.4C359.9 803.1 357.5 810.4 352.5 816.7C348.1 822.3 342.4 824.9 335.3 824.3C331.9 824 329 822.7 326.7 820.1C324.6 817.7 323.7 814.8 324.8 811.8C326 808.4 328.5 806.3 332.2 806.1C334.2 806.1 336.3 806.4 338.3 806.9C339.7 807.3 341 808.1 342.4 808.7C349.2 811.5 352.2 809.8 353.6 802.4C354.6 797 354 791.7 351.8 786.6C351.4 785.7 350.1 784.8 351.2 783.3ZM345.5 816.5C341.8 814.4 338.3 812.3 334.6 810.5C332.2 809.3 329.6 810.5 328.6 812.7C327.7 814.5 328.4 816.8 330.3 818.2C332.5 819.9 335 820.8 337.8 820.5C340.7 820.2 343.7 819.8 345.6 816.6L345.5 816.5Z" fill="#CFA257"/>
<path d="M1492 867.3C1496.2 878.1 1493.8 893.7 1486.5 901.7C1483.3 905.2 1479.5 907.2 1474.7 907C1471.5 907 1468.7 906.2 1467.4 902.9C1466.3 900 1467.9 897.7 1469.9 895.8C1471.2 894.6 1472.7 893.6 1474.2 892.6C1475.7 891.6 1477.3 890.8 1478.8 889.8C1485.4 885.4 1489.7 879.7 1489.7 871.4C1489.7 869.7 1489.5 867.6 1492.1 867.4L1492 867.3ZM1473 900.6C1481.8 899.9 1483.3 898.7 1485.5 891.2C1481.3 894 1477.1 895.9 1473 900.6Z" fill="#CFA257"/>
<path d="M343.5 866.1C344.4 868.2 345.4 869.5 345.4 870.7C345.3 880.2 350.4 886.2 358 890.9C360.8 892.6 363.4 894.6 365.9 896.7C367.8 898.4 368.5 900.8 367.5 903.2C366.5 905.7 364.3 906.6 361.8 906.9C357.7 907.4 354.1 906.4 350.9 903.8C345.5 899.4 343.1 893.4 341.8 886.8C340.4 880.1 339.4 873.4 343.6 866L343.5 866.1ZM361.9 901.1C356 894.8 354 893.5 348.8 891.8C351 897.2 354.2 900.7 361.9 901.1Z" fill="#CFA257"/>
<path d="M1252 259.4C1256.3 254.2 1260 253.3 1264.3 255.1C1265.9 255.8 1267.6 256.5 1269.1 257.4C1276.7 261.8 1284.9 264.1 1293.7 264C1295.1 264 1296.5 264.5 1298.6 264.9C1298 266.6 1298 268.3 1297.1 269C1295.5 270.2 1293.5 271.2 1291.6 271.5C1280.5 273.5 1270.3 271.3 1261.9 263.5C1259.3 261.1 1257.2 258.5 1252 259.5V259.4ZM1274 266.1C1275 266.6 1276 267.1 1277 267.6C1277.1 267.2 1277.3 266.8 1277.4 266.4H1273.8C1270.93 264.067 1267.53 262.4 1263.6 261.4C1266.8 264.7 1270.1 266.2 1274 266V266.1Z" fill="#CFA257"/>
<path d="M581.9 258.3C579.8 259 577.8 259.3 576.2 260.3C574.7 261.2 573.9 263.1 572.5 264.2C563.9 271.3 554 273.5 543.1 271.5C541.7 271.2 540.1 270.7 539 269.8C537.9 269 536.8 267.6 536.7 266.3C536.6 264.5 538.4 264 539.9 264C550.1 264.3 559.3 261.3 568 256.3C572.7 253.6 577.5 252.6 581.8 258.2L581.9 258.3ZM562.1 266.7C565.3 265.4 569 264.8 572.1 260.6C567.6 261.8 564.9 263.4 562.4 265.3C562.1 265.5 562.3 266.3 562.2 266.8C560.8 266.3 559.4 265.7 556.5 268.1C559.6 267.3 560.8 267 562.1 266.7Z" fill="#CFA257"/>
<path d="M1339.3 1554.6C1335.1 1554.9 1331.8 1551.6 1331.7 1547.4C1331.7 1543.9 1333.8 1540.8 1336.9 1539.9C1340.3 1539 1346 1540.8 1347 1543.5C1347.6 1545 1347.7 1547.1 1347.2 1548.6C1345.9 1552.3 1342.8 1554 1339.3 1554.5V1554.6ZM1343.6 1546.8C1341.5 1545.3 1340.4 1544.2 1338.9 1543.6C1337.6 1543 1336.1 1545.1 1336.3 1547.2C1336.4 1548.8 1337.3 1550.2 1339 1549.8C1340.4 1549.5 1341.6 1548.2 1343.6 1546.9V1546.8Z" fill="#CFA257"/>
<path d="M503.4 1546.8C503.7 1552.4 498.3 1556.2 493.2 1553.7C491.2 1552.7 489.3 1551 488.1 1549.1C486.1 1545.8 487.8 1541.8 491.5 1540.6C492.9 1540.1 494.4 1539.8 495.8 1539.6C499.7 1539.3 503.1 1542.6 503.4 1546.7V1546.8ZM499.5 1546.5C498.2 1545.3 497.3 1543.8 496.3 1543.6C494.3 1543.3 492.2 1545.9 492.6 1547.4C493 1548.9 495.1 1550.3 496.7 1549.6C497.7 1549.2 498.4 1547.8 499.5 1546.4V1546.5Z" fill="#CFA257"/>
<path d="M1523.1 1019.9C1523.1 1022.8 1520.4 1025.5 1517.4 1025.6C1513.3 1025.7 1509.7 1022.2 1510.1 1018.4C1510.4 1015.7 1512.9 1013.6 1515.7 1013.8C1520 1014 1523.2 1016.6 1523.2 1019.9H1523.1Z" fill="#CFA257"/>
<path d="M319.5 1013.8C322.4 1013.7 324.7 1015.7 324.8 1018.5C325 1022.3 322.2 1025.3 318.4 1025.6C314.9 1025.8 311.9 1023.1 312 1019.8C312 1016.4 315.1 1014.1 319.5 1013.9V1013.8Z" fill="#CFA257"/>
<path d="M415.7 1195.6C415.8 1198.1 413.9 1201 411.4 1201.5C410 1201.8 408.4 1201.8 407.1 1201.5C403.1 1200.5 400.9 1196.6 401.8 1192.7C402.4 1190 404.5 1189 407.9 1188.8C411.8 1188.6 415.6 1192.1 415.8 1195.6H415.7ZM408.4 1190.6C406.1 1193.3 405.5 1195.2 407.1 1197C407.7 1197.6 409.3 1198 410.1 1197.6C410.8 1197.3 411.7 1195.6 411.5 1195C410.9 1193.5 409.7 1192.3 408.4 1190.6Z" fill="#CFA257"/>
<path d="M1428.1 1188.8C1431.4 1188.9 1433.7 1191.2 1433.6 1194.3C1433.6 1198.6 1429.9 1201.9 1425.5 1201.8C1422 1201.8 1419.4 1199 1419.5 1195.6C1419.6 1191.5 1423.2 1188.6 1428.1 1188.8ZM1424.9 1197.8C1427.6 1198 1428.9 1196.7 1428.7 1194.5C1428.6 1193.5 1428 1192.2 1427.2 1191.7C1425.8 1190.9 1423.4 1193.4 1423.5 1195.6C1423.5 1196.5 1424.6 1197.3 1424.9 1197.8Z" fill="#CFA257"/>
<path d="M490.8 284.2C490.9 285.5 491.1 286.4 491 287.2C490.8 289.3 490.6 291.4 493 292.4C493.4 292.6 494.2 292.4 494.5 292C496 290.6 495.6 288.8 495.1 287.1C494.7 285.8 494.3 284.5 493.7 282.7C498.1 284.3 499.8 286.3 499.7 289.5C499.7 292.3 498.7 294.7 496.1 296.1C494.1 297.1 491 296.8 489.6 294.9C488.4 293.3 487.6 291.3 487.2 289.4C486.9 287.3 487.6 285.3 490.7 284.1L490.8 284.2Z" fill="#CFA257"/>
<path d="M1429.8 855C1428.5 853.4 1427.4 852.1 1426.1 850.4C1427 850.2 1427.9 849.6 1428.5 849.8C1433.8 852 1434.6 856.4 1430.5 860C1428.1 862.1 1425.2 862.6 1422.2 861.8C1419.6 861.1 1417.7 858.5 1417.9 855.7C1418.1 853.1 1419.3 851.3 1422.2 851.3C1422.4 851.9 1422.9 852.4 1422.8 852.8C1422.2 854.8 1420.9 856.9 1423.7 858.1C1426.2 859.2 1428.3 858.3 1429.9 854.9L1429.8 855Z" fill="#CFA257"/>
<path d="M627.1 298.6C627.3 301.6 625.2 304.5 622.3 305.1C619.8 305.7 617 304.3 615.6 301.8C614.6 299.9 615.3 297.4 617.3 296.5C618.9 295.8 620.6 295.2 622.3 294.7C624.6 294 626.9 295.9 627.1 298.5V298.6Z" fill="#CFA257"/>
<path d="M1341.1 283.2C1341.6 283.4 1342.2 283.8 1342.7 283.9C1344.9 284.1 1347 284.8 1347.4 287.1C1347.8 289 1347.6 291.2 1347 293.1C1346.1 295.7 1343.3 297 1340.6 296.8C1338.1 296.5 1336 294.5 1335.5 291.5C1334.9 288 1335.9 285.1 1339 283.1C1339.5 282.8 1340.6 283.3 1341.4 283.4C1340.7 285.3 1339.8 287.2 1339.4 289.2C1339.2 290.1 1340 291.3 1340.5 292.3C1340.7 292.6 1341.9 292.8 1342 292.6C1342.8 291.5 1344 290.4 1344.1 289.2C1344.4 286.7 1343 284.8 1341 283.3L1341.1 283.2Z" fill="#CFA257"/>
<path d="M408.8 850.4C407.7 851.9 406.7 853.3 405.6 854.7C407.5 858.3 408.8 859.3 411.2 858.4C415 856.9 411.5 853.8 412.6 851.3C415.5 851.1 416.7 853 417.2 855.4C417.7 857.8 415.8 860.8 413.4 861.8C408.9 863.7 403.4 861 402 856.2C401.1 852.9 403.5 850.7 408.7 850.4H408.8Z" fill="#CFA257"/>
<path d="M1214.3 305.3C1209.9 305 1207.2 301.1 1208.2 297.6C1208.8 295.4 1210.8 294.2 1212.9 294.8C1214.3 295.2 1215.7 295.6 1217.1 296.2C1220.4 297.6 1221 301 1218.3 303.3C1217 304.4 1215.3 304.9 1214.3 305.3Z" fill="#CFA257"/>
<path d="M1522.5 1132.8C1520 1132.9 1517.3 1130.7 1517 1128.1C1516.6 1125.3 1519.1 1122.5 1522.2 1122.3C1525.1 1122.1 1527.4 1124 1527.6 1126.8C1527.8 1129.9 1525.4 1132.7 1522.5 1132.8Z" fill="#CFA257"/>
<path d="M421.5 708.9C418.3 708.3 416.5 707.9 414.6 707.7C411.7 707.4 409.3 708.5 407.4 710.5C405.7 712.3 404.5 714.3 406.1 716.9C406.3 717.1 406.4 717.4 406.5 717.7C407.2 719.4 407.5 721.2 406 722.6C405.5 723.1 404.3 723.2 403.7 723C401.8 722.2 401.4 720.4 401.4 718.6C401.2 713.7 403.2 709.9 407.4 707.4C411.8 704.8 416.3 704.7 421.6 708.8L421.5 708.9Z" fill="#CFA257"/>
<path d="M318 1127.9C317.8 1130.5 315.3 1132.9 312.7 1132.8C309.9 1132.8 307.2 1129.8 307.3 1126.9C307.3 1124.2 309.8 1122 312.6 1122.1C315.8 1122.2 318.2 1124.8 318 1127.8V1127.9Z" fill="#CFA257"/>
<path d="M699.3 230.1C696.8 230.1 694.6 227.4 694.7 224.6C694.7 221.7 697.2 219.3 699.8 219.5C702.4 219.7 704.7 222.4 704.6 225C704.5 227.7 702 230.1 699.4 230.1H699.3Z" fill="#CFA257"/>
<path d="M1498.5 740.299C1498.3 742.999 1495.7 745.3 1493.1 745.1C1490.4 744.9 1488.2 741.999 1488.7 739.499C1489.2 736.899 1492 734.799 1494.6 735.199C1497 735.599 1498.7 737.9 1498.5 740.4V740.299Z" fill="#CFA257"/>
<path d="M1223.2 180.1C1225.8 180.1 1227.8 182.6 1227.7 185.5C1227.6 188.4 1225.5 190.5 1222.7 190.5C1220.1 190.5 1217.7 188.3 1217.6 185.5C1217.4 182.7 1220.2 180 1223.2 180V180.1Z" fill="#CFA257"/>
<path d="M611.7 180.1C614.6 180 617 182 617.3 184.8C617.6 187.7 615.6 190.3 612.9 190.6C610.2 190.9 607.6 188.7 607.3 185.9C607 183 609.1 180.3 611.7 180.2V180.1Z" fill="#CFA257"/>
<path d="M1417.9 766.5C1417.7 769 1415.7 770.8 1413 771.1C1410.4 771.3 1408 770 1407.3 767.8C1406.7 765.7 1406.9 763.7 1408.3 761.9C1410 759.7 1412.3 759.3 1414.4 760.9C1416.3 762.4 1418.1 763.9 1417.8 766.5H1417.9ZM1412.6 768.7C1413.6 766.4 1414.2 765.7 1414.1 765.1C1414 764.6 1413.1 764.2 1412.6 763.7C1412.1 764.3 1411.4 764.9 1411.3 765.5C1411.3 766.2 1411.8 766.9 1412.5 768.6L1412.6 768.7Z" fill="#CFA257"/>
<path d="M1140.2 224.4C1140.3 227.4 1138.3 229.9 1135.8 230C1133.1 230 1130.8 227.8 1130.6 225.1C1130.4 222.3 1132.4 219.9 1135.1 219.5C1137.7 219.1 1140 221.4 1140.1 224.4H1140.2Z" fill="#CFA257"/>
<path d="M422 760.2C425.5 759 426.8 761.5 427.8 763.9C428.7 765.9 428 768 426.4 769.6C424.7 771.2 422.7 771.3 420.6 770.7C417.5 769.8 416.1 766.4 417.9 763.7C418.9 762.3 420.5 761.4 421.8 760.2C421.5 762.1 421.1 764 420.9 765.9C420.9 766.3 421.8 767.1 421.9 767C422.6 766.6 423.7 765.9 423.6 765.6C423.2 763.8 422.5 762 421.9 760.2H422Z" fill="#CFA257"/>
<path d="M340.8 735.2C343.5 735 346 737 346.2 739.8C346.5 742.6 344.3 745.1 341.6 745.2C339 745.2 336.7 742.9 336.6 740.1C336.6 737.5 338.3 735.4 340.7 735.2H340.8Z" fill="#CFA257"/>
<path d="M393.9 592.4C397 592.3 399.1 593.9 399.4 596.2C399.7 598.5 398.2 601.3 395.9 601.6C394 601.9 391.7 601.8 390 601C388.8 600.4 387.8 598.3 387.6 596.7C387.4 594.8 388.9 593.5 390.8 593C391.9 592.7 393.1 592.5 393.9 592.4ZM396.1 596.2C395.1 595.6 394.1 594.7 393.8 594.9C392.9 595.4 392.3 596.4 391.6 597.2C392.6 597.5 393.5 598.1 394.5 598.1C395 598.1 395.4 597 396.1 596.2Z" fill="#CFA257"/>
<path d="M1441.2 592.5C1445 592.8 1447.7 594.8 1447.6 597.2C1447.5 600.2 1444.1 602.6 1440.5 602.1C1437.7 601.7 1435.8 599.5 1435.8 596.7C1435.8 593.9 1438 592.2 1441.3 592.5H1441.2ZM1442 599.2C1442.6 597.9 1443.4 596.9 1443.2 596.7C1442.5 596 1441.6 595.5 1440.7 595C1440.3 595.6 1439.4 596.5 1439.6 596.8C1440 597.6 1440.9 598.2 1442 599.2Z" fill="#CFA257"/>
<path d="M478.7 514.2C481.7 514.6 482.5 516.7 482.1 519.3C481.7 521.5 480.2 522.8 478 523.5C475.7 524.1 473.9 523.2 472.4 521.7C470.7 520.1 471.4 516.8 473.7 515.8C475.3 515.1 477 514.7 478.7 514.2C477.8 515.3 476.9 516.4 476.2 517.6C476.1 517.8 476.5 518.8 476.7 518.8C477.2 518.8 478 518.6 478.1 518.2C478.4 516.9 478.6 515.5 478.8 514.2H478.7Z" fill="#CFA257"/>
<path d="M1096 159.5C1095.6 160.5 1094.9 161.4 1094.8 162.4C1094.8 163.4 1095.4 164.4 1095.7 165.4C1096.6 164.9 1097.7 164.6 1098.4 163.9C1098.9 163.3 1098.9 162.3 1099.4 160.8C1100.3 162 1101.5 162.8 1101.6 163.7C1101.6 165 1101.4 166.8 1100.6 167.7C1098.7 169.9 1094.8 170 1092.5 168.3C1090.2 166.6 1089.8 163.2 1091.8 160.4C1092.4 159.5 1093.7 159.1 1094.6 158.5C1095 158.8 1095.5 159.2 1095.9 159.5H1096Z" fill="#CFA257"/>
<path d="M1357.3 514.4C1359 515 1360.9 515.3 1362.2 516.3C1363.1 517 1363.7 518.9 1363.5 520.1C1363.1 522.4 1361 523.4 1358.9 523.6C1356.7 523.8 1354.8 522.9 1353.7 520.9C1352.7 518.9 1352.5 516.8 1354.3 515.2C1355 514.6 1356.4 514.7 1357.5 514.5C1357.9 516 1355.7 517.7 1358 519C1358.2 519.1 1358.7 519 1358.8 518.8C1359.8 516.9 1357.9 515.8 1357.4 514.4H1357.3Z" fill="#CFA257"/>
<path d="M737.6 159.5C741.5 158.8 743.3 159.5 744.2 161.7C745.3 164.3 744.3 167.5 742.1 168.7C739.4 170.2 735.7 169.5 734.1 167.2C732.8 165.4 733.4 163.8 736 161.7C736 162 736 162.3 736 162.6C736 164.2 736.7 165.4 738.5 165.5C739 165.5 739.7 165.3 740 164.9C741.3 163.5 740.4 162.3 739.5 161.2C738.9 160.6 738.2 160.1 737.5 159.5H737.6Z" fill="#CFA257"/>
<path d="M1437.5 1007.1C1437.3 1009.6 1435.3 1011.4 1432.7 1011.2C1429.9 1011.1 1428 1008.6 1428.4 1005.7C1428.7 1003.5 1430.5 1002 1432.6 1002C1435.5 1002 1437.6 1004.3 1437.5 1007.1Z" fill="#CFA257"/>
<path d="M401.899 1011.2C399.399 1011.2 397.499 1009 397.599 1006.6C397.599 1004.1 399.699 1002.1 402.099 1002C404.599 1001.9 406.699 1003.7 406.799 1006.2C406.999 1009 404.799 1011.3 401.899 1011.2Z" fill="#CFA257"/>
<path d="M497.9 1432.3C498.5 1432.3 498.8 1432.3 499.1 1432.4C501.9 1432.7 503.6 1433.9 503.6 1435.7C503.6 1438.1 500.6 1440.4 497.8 1439.7C496.5 1439.4 495.1 1438.5 494.1 1437.5C492.5 1436 493.4 1433.2 495.6 1432.7C496.5 1432.5 497.3 1432.4 497.9 1432.3Z" fill="#CFA257"/>
<path d="M446.8 633.8C446.7 636.3 444.6 638.1 442 637.9C439.5 637.7 437.5 635.5 437.8 633.2C438.1 630.8 440.3 628.9 442.7 629C445.1 629.1 446.9 631.3 446.8 633.9V633.8Z" fill="#CFA257"/>
<path d="M1392.8 637.9C1390.2 637.9 1388.1 635.9 1388.2 633.5C1388.2 631.1 1390.4 628.9 1392.7 628.9C1395.1 628.9 1397.3 631 1397.4 633.4C1397.4 635.7 1395.3 637.8 1392.8 637.9Z" fill="#CFA257"/>
<path d="M1337.4 1432.3C1338.2 1432.5 1339.1 1432.6 1339.9 1432.8C1341.5 1433.3 1342.3 1435.8 1341.2 1437.2C1339.3 1439.6 1336.9 1440.5 1334.3 1439.4C1332.6 1438.7 1331.4 1437.4 1331.7 1435.3C1331.9 1433.5 1333.2 1433 1334.7 1432.7C1335.6 1432.5 1336.4 1432.5 1337.4 1432.3Z" fill="#CFA257"/>
<path d="M1414.7 520.3C1414 520.9 1413.1 522.2 1411.9 522.6C1408.9 523.4 1405.8 521.3 1405.3 518.2C1405 516.4 1405.3 514.6 1407.2 513.6C1408.6 512.8 1410 513 1411.4 513.8C1413.6 515.1 1414.9 516.9 1414.7 520.3ZM1410.9 517.7C1410.7 517.2 1410.5 516.6 1410.3 516.1C1409.9 516.3 1409.1 516.4 1409 516.7C1409 517.2 1409.3 517.8 1409.4 518.3C1409.9 518.1 1410.3 517.9 1410.8 517.7H1410.9Z" fill="#CFA257"/>
<path d="M424.2 522.8C422.2 522.8 420 520.9 420.1 519.1C420.3 515.9 423.6 512.9 426.5 513C428.3 513.1 430.2 515.4 430.1 517.3C429.9 520.2 427.3 522.6 424.2 522.7V522.8ZM426.2 517.5C425.8 516.9 425.5 516.2 425.4 516.2C424.9 516.2 424.3 516.6 424.1 516.9C423.9 517.2 424.2 517.8 424.3 518.3C424.9 518 425.6 517.7 426.2 517.5Z" fill="#CFA257"/>
<path d="M1040.2 92.1001C1042.2 92.1001 1044.1 93.8001 1044.3 96.0001C1044.5 98.5001 1042.5 100.7 1040.1 100.7C1038.1 100.7 1036.1 98.8001 1035.9 96.8001C1035.7 94.5001 1037.9 92.1001 1040.2 92.1001Z" fill="#CFA257"/>
<path d="M379 897.7C381.5 897.7 383.5 899.9 383.3 902.2C383.1 904.2 381.1 906 379.2 906.1C376.9 906.1 374.8 903.9 374.9 901.5C375 899.4 376.9 897.7 379 897.7Z" fill="#CFA257"/>
<path d="M1455.9 897.8C1458 897.8 1459.9 899.4 1460.2 901.4C1460.5 903.8 1458.5 906.1 1456.1 906.2C1453.7 906.3 1451.7 904.1 1451.9 901.7C1452.1 899.5 1453.7 898 1455.9 897.9V897.8Z" fill="#CFA257"/>
<path d="M799.1 96.4002C799.1 98.5002 797.4 100.4 795.3 100.6C792.9 100.9 790.8 98.9002 790.8 96.3002C790.8 94.2002 792.5 92.3002 794.5 92.1002C796.9 91.9002 799.1 93.9002 799.1 96.4002Z" fill="#CFA257"/>
<path d="M1087.4 1669.8C1087 1672.5 1085 1674 1082.7 1673.9C1080.8 1673.9 1079.2 1673.2 1078.5 1671.3C1077.8 1669.3 1078.7 1667.1 1080.5 1666C1082.5 1664.8 1083.9 1666 1085.3 1667C1086.3 1667.8 1087 1669.1 1087.5 1669.7L1087.4 1669.8ZM1082.6 1668.2C1082 1668.8 1081.6 1669.2 1081.3 1669.5C1081.9 1670 1082.5 1670.6 1083.1 1671.1C1083.4 1670.7 1084.1 1670.1 1084 1669.9C1083.7 1669.3 1083.1 1668.8 1082.7 1668.2H1082.6Z" fill="#CFA257"/>
<path d="M757 1669.5C757.2 1671.9 755.301 1673.9 752.601 1674C750.201 1674 748.301 1672.7 748.001 1670.8C747.601 1668.6 750.301 1665.8 752.901 1665.6C754.501 1665.5 756.8 1667.7 757 1669.6V1669.5ZM753.701 1670.2C753.301 1669.4 753.101 1668.9 752.801 1668.5C752.101 1668.9 751.4 1669.2 750.9 1669.8C750.8 1669.9 751.501 1671.2 751.601 1671.1C752.301 1671 753.001 1670.5 753.701 1670.2Z" fill="#CFA257"/>
<path d="M1117 1634.1C1115.5 1635.6 1114.6 1637.2 1113.3 1637.7C1111.4 1638.4 1109.3 1636.4 1109.3 1634.3C1109.3 1632.2 1111.1 1630 1113 1630.5C1114.3 1630.9 1115.3 1632.5 1117 1634V1634.1Z" fill="#CFA257"/>
<path d="M725.8 1635.5C724.9 1636.1 723.6 1637.3 722.1 1637.7C720.3 1638.1 719 1636.3 719.2 1634.2C719.3 1632 720.5 1630.5 722.3 1630.5C724.4 1630.5 726.2 1632.6 725.9 1635.4L725.8 1635.5Z" fill="#CFA257"/>
<path d="M876.6 161.7C875.1 162.9 874.4 163.9 873.5 164.1C872 164.5 870.1 163 870.7 161.8C871.1 160.9 872.3 160 873.2 159.9C874 159.8 875 160.7 876.7 161.6L876.6 161.7Z" fill="#CFA257"/>
<path d="M965.6 162.3C963.7 163.2 962.8 163.9 961.8 164C960.6 164 959.5 163.4 959.7 161.8C959.9 160.4 961 159.7 962.2 160C963.1 160.2 963.9 161.1 965.6 162.3Z" fill="#CFA257"/>
<path d="M1199.3 1582.5C1199.5 1584.4 1197.6 1586.5 1195.5 1586.7C1193.4 1586.9 1191.4 1585.2 1191.3 1583C1191.2 1581.1 1192.5 1579.1 1194 1578.9C1196.3 1578.6 1199.1 1580.5 1199.4 1582.6L1199.3 1582.5ZM1196.2 1582.7C1195.4 1582.3 1194.8 1581.9 1194.1 1581.7C1194.1 1581.7 1193.6 1582.2 1193.7 1582.3C1194.1 1582.8 1194.5 1583.3 1195 1583.7C1195 1583.7 1195.6 1583.2 1196.1 1582.7H1196.2Z" fill="#CFA257"/>
<path d="M641.6 1578.9C642.3 1579.8 643.4 1580.5 643.7 1581.5C644.4 1583.9 643.3 1585.8 641.3 1586.4C639 1587.1 636.2 1585.8 635.7 1583.5C635.5 1582.6 636 1581 636.7 1580.5C638.1 1579.7 639.8 1579.4 641.4 1579C640.7 1580.4 639.9 1581.8 639.2 1583.2C641 1583.9 641.6 1583.2 641.4 1581.4C641.3 1580.6 641.4 1579.8 641.4 1578.9H641.6Z" fill="#CFA257"/>
<path d="M1277.5 1693C1277.3 1695.5 1275.3 1697.2 1272.7 1697.1C1270.5 1697 1269 1695.3 1268.9 1693C1268.9 1690.7 1270.8 1689.5 1274 1689.8C1276.3 1690 1277.6 1691.2 1277.4 1693H1277.5Z" fill="#CFA257"/>
<path d="M561.6 1689.8C564.2 1689.7 566 1690.9 566.1 1692.8C566.3 1695.1 564.1 1697.2 561.7 1697.1C559.5 1697 558 1695.6 557.6 1693.3C557.3 1691.2 558.7 1689.9 561.5 1689.8H561.6ZM562.3 1692.3C562.3 1692.3 561.9 1692.1 561.6 1692.1C561.6 1692.4 561.6 1692.7 561.5 1693C561.7 1693 562 1693 562.2 1692.9C562.3 1692.9 562.2 1692.5 562.2 1692.3H562.3Z" fill="#CFA257"/>
<path d="M986 141.5C986.7 139.8 987.2 138.5 987.7 137.2C990.5 139.6 990.7 141.4 988.6 143.2C986.7 144.9 983.5 145 982.3 143C981.5 141.6 981.1 139.7 981.1 138.1C981.1 136 982.3 134.3 984.8 134.1C986.8 136.4 981.6 138.8 985.9 141.4L986 141.5Z" fill="#CFA257"/>
<path d="M954 117.4C953.8 119.3 951.7 120.9 949.6 120.7C947.1 120.4 945.4 118.2 945.9 115.8C946.2 114.2 948 112.8 949.7 112.9C952.1 113.1 954.2 115.3 954 117.5V117.4Z" fill="#CFA257"/>
<path d="M849.8 134.3C852.7 134.3 853.6 135.9 854 138C854.4 140.2 854 142.1 852.2 143.6C850.6 144.9 848.1 144.9 846.6 143.3C844.7 141.4 844.6 139.4 846.6 136.6C847.7 138.5 848.5 139.8 849.3 141.1C853 139.1 849 136.5 849.8 134.2V134.3Z" fill="#CFA257"/>
<path d="M889.3 116.7C889.2 119.1 887 120.9 884.5 120.7C882.6 120.6 881.2 119.2 881.1 117.4C881 115 882.9 112.9 885.4 112.8C887.4 112.8 889.4 114.7 889.3 116.7Z" fill="#CFA257"/>
<path d="M879.4 82.7998C878.7 84.5998 877.2 84.9998 875.4 84.8998C875.9 82.6998 877.7 82.8998 879.4 82.7998Z" fill="#CFA257"/>
<path d="M793.7 1077.4C793.7 1077.4 793.8 1077.4 793.9 1077.4C806.6 1075.7 816.2 1065.3 816.9 1052.5C817.1 1049 817.3 1045.4 817.5 1041.9C817.5 1040.8 817.7 1039.7 818.2 1038.6C818.5 1044.2 818.8 1049.7 819.2 1055.3C819.8 1066.3 828.2 1075 839 1077.2C840 1077.4 841 1077.7 842.1 1078C841 1078.1 840 1078.3 838.9 1078.4C828.2 1079.8 820 1088.6 819.3 1099.4C818.9 1105.1 818.6 1110.9 818 1116.6C817.9 1115.4 817.7 1114.1 817.6 1112.9C817.3 1108.3 817.1 1103.7 816.8 1099C816.2 1088.7 805.4 1079.4 797.6 1078.4C796.3 1078.2 795.1 1078.1 793.8 1077.9C793.8 1077.8 793.8 1077.6 793.8 1077.5L793.7 1077.4Z" fill="#CFA257"/>
<path d="M1032.1 1122.2C983.8 1170.5 914.5 1203.4 841.7 1203.4C814.4 1203.4 785.156 1201.44 759.1 1188.7C642.17 1131.51 523.5 1048 515.5 883.5C515.5 1066.2 658.3 1234.2 886.5 1235.6H889.3C955.8 1235.6 1020.2 1211.8 1072.7 1155.8C1112.6 1113.1 1132.9 1060.6 1132.9 1009.5C1132.9 955.6 1111.2 902.4 1067.8 860.4L1048.2 843.6C1016 819.1 977.5 806.5 939.7 806.5C897 806.5 854.3 822.6 820 856.9C796.9 880 782.9 909.4 778 940.2L775.9 966.1V968.9C775.9 1008.8 789.2 1047.3 815.8 1078.1C816 1078 816 1078 816.5 1077.4C794.1 1048.7 782.9 1013 782.9 977.3V968.2L785.7 943.7C792 915.7 805.3 889.1 826.3 867.4C857.1 836.6 897.7 821.9 937.6 821.9C974 821.9 1011.1 833.8 1040.5 857.6L1058 873.7C1062.9 879.3 1067.8 885.6 1072 891.9C1089.5 919.9 1097.9 949.3 1097.9 978.7C1097.9 1030.5 1072.7 1080.9 1033.5 1120.8L1032.1 1120.1L1031.4 1121.5L1032.1 1122.2Z" fill="#CFA257"/>
<path d="M537.9 885.6C537.9 832.4 553.3 778.5 584.8 730.9L583.4 693.8C544.9 738.6 520.4 796 516.2 858.3C515.5 866.7 515.5 875.1 515.5 883.5C515.5 1045 641 1175 759.1 1188.7L779.4 1190.1C850.8 1190.1 913.8 1143.9 913.8 1085.1C913.8 1064.8 906.8 1043.8 890.7 1022.1L888.6 1023.5C900.5 1041 905.4 1057.8 905.4 1073.2C905.4 1127.1 841.7 1164.2 775.2 1164.2C756.3 1164.2 736.7 1161.4 718.5 1154.4C605.1 1111.7 537.9 999.7 537.9 885.6Z" fill="#CFA257"/>
<path fill-rule="evenodd" clip-rule="evenodd" d="M850.1 977.3C934.1 977.3 1009 936.7 1058 873.7L1067.8 860.4C1098.6 814.9 1116.8 759.6 1116.8 699.4C1116.8 546.1 997.1 421.5 850.1 421.5C704.5 421.5 586.2 543.3 583.4 693.8L584.8 730.9C597.4 843.6 673.7 936 775.9 966.1C777.938 966.7 779.333 967.122 780.729 967.545C781.426 967.756 782.123 967.967 782.9 968.2C803.9 974.5 827 977.3 850.1 977.3ZM1076.9 720.4C1076.9 765.2 1066.4 807.2 1048.2 843.6L1040.5 857.6C1011.1 908.7 964.2 945.1 906.8 957.7C894.2 960.5 880.9 961.9 868.3 961.9C840.3 961.9 812.3 955.6 785.7 943.7L778 940.2C708 906.6 650.6 835.2 631 744.9C626.1 722.5 623.3 700.1 623.3 678.4C623.3 579 673.7 491.5 752.8 455.1C717.8 485.2 698.2 527.2 698.2 565.7C698.2 609.1 724.1 648.3 782.2 658.1L782.9 655.3C736.7 644.8 717.8 614 717.8 579C717.8 528.6 758.4 467.7 816.5 443.9C826.3 439.7 836.8 438.3 847.3 438.3C949.5 446 1042.6 532.8 1069.2 653.9C1074.1 676.3 1076.9 698.7 1076.9 720.4Z" fill="#CFA257"/>
<path d="M811.544 1413.46V1410.78C817.788 1410.78 876.66 1409 876.66 1341.21V803.332C876.66 737.324 820.464 734.648 812.436 734.648H811.544V731.08H1273.6L1295.9 838.12L1286.09 841.688C1286.09 841.688 1262 748.92 1187.97 748.92H1008.68C947.128 751.596 935.532 774.788 935.532 803.332V1006.71H1123.74C1174.59 1006.71 1184.4 944.268 1184.4 944.268H1190.64V1086.99H1184.4C1184.4 1086.99 1174.59 1024.55 1123.74 1024.55H1021.16C948.912 1024.55 935.532 1049.52 935.532 1078.96V1339.42C935.532 1369.75 948.912 1394.73 1021.16 1394.73L1204.92 1393.84C1278.95 1393.84 1310.17 1304.64 1310.17 1304.64H1319.09L1291.44 1412.57L811.544 1413.46Z" fill="#CFA257"/>
</svg>
