<?xml version="1.0" encoding="UTF-8"?><svg id="a" xmlns="http://www.w3.org/2000/svg" width="1835" height="1835" viewBox="0 0 183.5 183.5"><path d="M129.03,154.6s0-.07.03-.08c.23-.17.5-.32.7-.52.18-.19.27-.46.42-.69.33-.5.75-.93,1.26-1.27.19-.13.39-.26.61-.41-.18-.23-.36-.43-.51-.65-.43-.66-.6-1.36-.36-2.14.11-.36.31-.65.63-.84.22-.12.47-.14.68.02.21.16.29.39.22.64-.07.23-.18.44-.28.65-.11.21-.25.41-.35.62-.21.46,0,1.01.41,1.36.19.16.56.14.74-.04.09-.08.15-.18.23-.27.28-.31.54-.65.84-.93.28-.26.61-.47.96-.74-.13-.12-.25-.23-.37-.35-.63-.61-.83-1.36-.73-2.21.11-.92.53-1.71,1.12-2.4.19-.22.4-.44.62-.68-.11-.26-.21-.5-.32-.75-1.03-2.49-.85-4.91.4-7.26.25-.47.59-.9.97-1.28,1.53-1.56,3.58-1.65,5.38-.79.07.03.11.11.17.18-.24.13-.43,0-.63-.04-.53-.08-1.06-.21-1.59-.23-1.46-.06-2.6.6-3.49,1.7-.75.93-1.17,2.02-1.38,3.18-.32,1.72-.12,3.39.75,5.01.17-.08.33-.15.47-.23.25-.15.49-.32.73-.47.16.17.04.26-.04.33-.28.26-.58.51-.91.79.64,1.03,1.53,1.68,2.66,2.15.08-.18.18-.33.2-.48.09-.59.16-1.18.05-1.79-.16-.93-.6-1.62-1.54-1.9-.11-.03-.21-.09-.45-.2.61-.1.99.09,1.34.34.6.43.89,1.05.96,1.76.05.5.02,1.01,0,1.52,0,.26-.06.53-.08.78.27.26.58.2.87.2,2.14,0,3.83-1.94,3.54-4.06-.07-.52-.26-.98-.77-1.25-.1.09-.17.17-.26.24-.14.1-.31.09-.4-.04-.07-.1-.12-.29-.08-.4.09-.29.42-.44.73-.37.34.08.59.28.78.56.41.6.55,1.26.45,1.96-.05.32-.13.65-.24.95-.69,1.96-2.17,2.9-4.22,2.72-.15-.01-.29-.04-.5-.07-.1.21-.22.41-.3.62-.39.98-.92,1.88-1.6,2.69-.48.58-1.04,1.07-1.68,1.47-.75.47-1.55.77-2.47.8-.13.19-.28.38-.4.58-.69,1.16-1.22,2.4-1.61,3.69-.41,1.34-.79,2.7-1.19,4.04-.11.36-.07.7,0,1.06.13.7.25,1.41.33,2.12.49,4.47-2.25,7.84-5.01,9.3-1.27.67-2.61,1.01-4.06.89-.98-.08-1.88-.39-2.66-.97-.35-.26-.72-.38-1.14-.46-.73-.13-1.45-.32-2.25-.5-.05.11-.11.27-.18.42-.1.22-.18.44-.3.65-1.2,2.07-3.99,3.07-6.24,2.26-1.18-.43-2.22-1.04-2.95-2.1-.31-.45-.73-.78-1.18-1.08-.12-.08-.25-.19-.16-.37.08-.17.23-.16.38-.12.08.02.17.03.24.04.17-.12.11-.28.1-.42-.13-1.84,1.56-3.29,3.29-3.31.88-.01,1.65.26,2.3.84.66.58.91,1.32.74,2.19-.12.67-.51,1.15-1.16,1.36-.22.07-.47.09-.7.07-.33-.02-.59-.28-.63-.55-.04-.31.12-.52.37-.66.18-.1.39-.16.57-.26.56-.28.67-.86.27-1.34-.57-.68-1.88-1.04-2.72-.71-.62.24-1.23.58-1.49,1.22-.39.95-.42,1.88.3,2.78.93,1.16,2.12,1.7,3.58,1.75,2.27.07,3.95-.93,5.24-2.81-.17-.17-.31-.32-.46-.44-.76-.58-1.28-1.33-1.67-2.19-.51-1.14-.56-2.31-.19-3.5.08-.25.17-.5.27-.81-.23-.08-.41-.18-.6-.19-.61-.06-1.19.09-1.77.25-1.83.54-3.49,1.4-4.98,2.59-1.09.87-1.96,1.93-2.62,3.16-.39.74-.76,1.49-1.13,2.25-.41.83-.85,1.65-1.43,2.38-1.14,1.44-2.6,2.36-4.41,2.71-1.35.26-2.61.08-3.83-.53-.16-.08-.32-.16-.5-.25-.16.08-.32.15-.48.23-1.42.74-2.91.85-4.44.42-1.58-.44-2.88-1.33-3.85-2.64-.44-.6-.82-1.25-1.18-1.9-.39-.71-.72-1.44-1.08-2.17-1.02-2.08-2.56-3.66-4.56-4.81-1.25-.72-2.56-1.3-3.98-1.59-.38-.08-.77-.09-1.16-.09-.16,0-.32.11-.53.19.26.86.57,1.67.51,2.55-.06.85-.33,1.64-.75,2.37-.43.77-1.03,1.39-1.8,1.89.11.21.17.37.27.51,1.39,1.96,3.89,2.84,6.18,2.25,1.18-.31,1.99-1.05,2.66-2,.25-.36.24-.8.24-1.21,0-1.1-.38-1.75-1.64-2.32-.82-.37-2.09-.06-2.75.59-.39.38-.48,1.17.27,1.46.22.08.45.18.64.32.39.29.31.8-.12,1.02-.31.16-.64.13-.96.03-.82-.27-1.34-1.16-1.22-2.07.09-.65.4-1.18.91-1.6,1.62-1.32,4.2-.78,5.17,1.08.3.58.34,1.2.31,1.89.19-.01.35-.04.51-.03.07,0,.17.08.19.15.03.07-.01.16-.03.25,0,.03-.03.05-.06.07-.69.4-1.15,1.04-1.66,1.62-1.01,1.16-2.37,1.68-3.85,1.92-.66.11-1.31-.03-1.94-.26-.82-.31-1.56-.76-2.2-1.35-.49-.45-.88-.98-1.08-1.62-.04-.14-.1-.27-.15-.39-.94.19-1.84.37-2.73.57-.17.04-.33.13-.47.24-1.7,1.27-3.58,1.4-5.54.8-3.18-.98-5.82-4.1-6.34-7.4-.21-1.35-.14-2.69.16-4.01.18-.81.18-1.57-.1-2.36-.42-1.21-.73-2.46-1.11-3.69-.36-1.14-.85-2.24-1.46-3.27-.12-.2-.26-.4-.38-.59-.43-.09-.85-.13-1.24-.25-.96-.3-1.78-.85-2.49-1.55-.86-.86-1.5-1.86-1.98-2.97-.12-.27-.23-.54-.36-.84-.71.07-1.38.13-2.06-.04-.7-.17-1.28-.5-1.75-1.02-.79-.88-1.22-1.91-1.19-3.1,0-.56.2-1.05.53-1.5.19-.25.44-.41.74-.47.27-.06.57.07.69.31.09.17.08.37-.07.49-.11.1-.26.09-.41,0-.31-.19-.41-.18-.57.02-.38.47-.52,1.01-.47,1.6.1,1.02.5,1.91,1.23,2.62.81.79,2.04,1.05,3.21.68-.04-.34-.06-.69-.12-1.04-.09-.54-.03-1.08.09-1.6.23-.95.79-1.6,1.77-1.82.06-.01.12-.02.18-.01.06,0,.11.03.26.06-.24.1-.41.18-.59.24-.64.23-1.04.7-1.24,1.33-.3.91-.23,1.81.05,2.71,1.14-.27,2.18-1.1,2.67-2.12-.27-.37-.76-.55-1.06-1.07.59.07.85.55,1.33.68.07-.11.17-.22.23-.35,1.16-2.61.92-5.14-.59-7.53-.74-1.16-1.83-1.91-3.25-1.99-.65-.04-1.3.12-1.96.19-.2.02-.4.06-.64,0,.14-.09.26-.22.41-.27,2.16-.8,4.09-.35,5.53,1.49.72.91,1.1,1.98,1.35,3.1.39,1.72.18,3.39-.52,5-.07.16-.15.33-.22.49-.01.03,0,.06-.02.16.1.12.22.28.36.43.44.46.8.97,1.05,1.55.19.44.3.91.31,1.39.02.79-.21,1.47-.82,2-.09.08-.17.16-.31.28.8.47,1.41,1.11,1.96,1.82.28.36.68.34.99,0,.37-.42.43-.91.17-1.41-.14-.26-.32-.51-.45-.77-.2-.42-.13-.79.16-.96.29-.17.68-.07.96.25.22.26.35.55.39.89.08.71-.05,1.37-.5,1.95-.13.16-.26.32-.44.53.16.11.29.21.43.3.67.42,1.23.96,1.6,1.66.21.4.52.61.88.84,1.02.65,2.12,1.12,3.3,1.35.82.16,1.66.23,2.49.27,1.35.07,2.68.19,3.99.56,1.71.48,3.18,1.37,4.41,2.64,1.21,1.26,1.91,2.74,1.97,4.5,0,.12.02.23.04.39.37,0,.72-.02,1.07,0,.33.03.65.09.97.17,2.53.68,4.77,1.89,6.62,3.77.78.8,1.39,1.72,1.9,2.71.41.8.83,1.59,1.22,2.4.23.48.58.82,1.05,1.07.64.34,1.29.64,2.02.7.32.03.67.01.97-.08.76-.23,1.13-1.05.86-1.8-.31-.86-1.12-1.38-1.95-1.25-.12.02-.23.06-.34.11-.19.1-.28.34-.2.54.03.08.09.16.14.22.1.13.16.25.03.39-.12.12-.34.1-.49-.03-.46-.42-.39-1.18.16-1.54.4-.27.85-.28,1.3-.2.86.14,1.7,1,1.86,1.87.2,1.16-.56,2.13-1.75,2.25-.55.05-1.07-.08-1.59-.24-.25-.08-.47-.26-.76-.23,1.57,2.46,5.71,3.25,7.64,1.72-.09-.11-.17-.23-.26-.33-1.09-1.22-1.42-2.67-1.25-4.25.14-1.24.57-2.38,1.26-3.42.12-.17.23-.35.34-.53.01-.02.01-.06.02-.11-.09-.28-.35-.45-.58-.63-1.47-1.17-3.12-1.59-4.96-1.12-.53.13-1.01.36-1.44.71-.76.61-.96,1.53-.53,2.41.14.29.3.59.42.89.06.17.05.36-.14.47-.17.1-.35.07-.51-.02-.3-.18-.45-.48-.55-.79-.33-.95-.14-1.83.44-2.63.41-.57.98-.96,1.63-1.22,1.34-.53,2.68-.52,4.04-.06.72.24,1.35.63,1.93,1.12.2.17.4.35.62.54.24-.21.46-.42.69-.6,1.63-1.32,3.46-1.71,5.47-1.15.7.19,1.32.55,1.82,1.09.67.73.94,1.59.74,2.57-.06.31-.22.61-.38.9-.1.19-.29.29-.52.32-.22.02-.41-.15-.4-.37.01-.38.22-.68.4-.99.33-.57.3-1.13.08-1.72-.16-.42-.47-.69-.82-.92-.97-.63-2.05-.82-3.18-.69-1.42.16-2.62.78-3.61,1.89.14.23.27.45.42.67.7,1.07,1.14,2.23,1.25,3.51.14,1.59-.2,3.03-1.32,4.23-.06.06-.1.14-.14.21.01.25.22.28.37.35,1.07.51,2.2.59,3.33.38,1.52-.28,2.8-1.02,3.82-2.19.04-.04.06-.1.08-.16,0-.02,0-.04-.03-.13-.25.1-.49.2-.74.28-.51.18-1.03.3-1.58.25-.91-.08-1.59-.66-1.78-1.52,0-.03-.02-.06-.02-.09-.22-1.14,1.11-2.96,2.85-2.47.73.21,1.04.97.63,1.56-.08.11-.23.19-.36.25-.06.03-.18-.01-.24-.06-.05-.05-.09-.16-.08-.23.03-.11.13-.2.17-.31.13-.32,0-.62-.32-.7-.42-.11-.83-.08-1.21.14-.4.24-.69.57-.87.99-.34.81.07,1.69.93,1.91.28.07.59.07.89.05.57-.04,1.1-.26,1.62-.49.7-.32,1.26-.77,1.57-1.52.24-.58.57-1.12.83-1.69,1.39-2.97,3.69-4.95,6.66-6.23.55-.24,1.12-.42,1.68-.61.77-.26,1.57-.35,2.42-.28.04-.26.08-.49.1-.72.14-1.62.81-2.98,1.92-4.15,1.43-1.5,3.16-2.46,5.18-2.85,1.02-.19,2.07-.32,3.11-.36,1.98-.06,3.86-.44,5.58-1.44.07-.04.17-.05.26-.07-.02.33-.31.42-.53.55-1.34.79-2.78,1.22-4.33,1.31-1.25.07-2.51.12-3.75.35-2.09.4-3.89,1.33-5.35,2.89-1.06,1.13-1.67,2.46-1.76,4.02,0,.1.04.21.08.42.26-.27.43-.47.61-.65.51-.51,1.1-.92,1.78-1.18.49-.18.99-.24,1.5-.12.84.2,1.46,1.1,1.31,1.88-.08.38-.37.65-.74.67-.36.02-.62-.14-.76-.51-.09-.24-.15-.5-.22-.72-1.38-.14-2.63.76-3.13,2.22.17.36.45.62.79.81.51.28,1.04.46,1.62.17.04-.02.05-.09.08-.14.01-.14-.2-.23-.08-.39.06-.02.12-.04.17-.04.23,0,.41.11.46.34.05.24-.06.42-.26.52-.21.1-.44.19-.67.21-.62.07-1.18-.1-1.69-.47-.18-.13-.36-.27-.61-.45-.25.73-.1,1.37.11,1.99.33.95.86,1.78,1.71,2.35.57.38,1.19.63,1.94.67-.16-.46-.31-.85-.42-1.24-.19-.74-.22-1.48.09-2.2.42-.97,1.46-1.48,2.43-1.2.39.11.7.34.87.71.09.2.1.4-.02.6-.11.19-.34.27-.54.18-.21-.09-.25-.25-.15-.51.03-.07.08-.14.12-.23-.38-.43-.84-.46-1.32-.29-.54.19-.91.58-1.05,1.14-.29,1.09,0,2.07.6,2.98.1.16.27.23.46.22.18,0,.36-.02.54-.04,2.25-.24,4.18-1.18,5.88-2.63,1.11-.95,1.53-2.19,1.48-3.6-.04-1.18-.96-1.96-2.16-1.92-.38.01-.74.28-.86.66-.05.14-.05.3-.11.43-.09.23-.28.38-.51.47-.3.11-.65-.09-.64-.41,0-.23.05-.48.16-.68.26-.5.71-.81,1.24-.97.52-.15,1.05-.2,1.6-.08.93.2,1.55.76,1.84,1.65.11.33.12.7.16,1.06.02.19.02.39.03.6.3-.08.35-.3.45-.47.9-1.53,1.49-3.19,2-4.88.05-.17.09-.36.06-.53-.13-.72-.28-1.44-.44-2.24-.33.19-.48.45-.67.66-.67.74-1.44,1.35-2.36,1.74-.65.28-1.32.37-2.02.3-.4-.04-.76-.19-1.07-.43-.78-.62-.8-1.78-.04-2.43.19-.17.4-.25.66-.21.2.03.32.15.39.32.07.18.07.36-.06.5-.15.16-.32.09-.48,0-.07-.04-.15-.04-.24-.07-.27.31-.35.64-.21,1.01.14.36.42.59.77.7.22.07.47.1.7.11.71.03,1.35-.19,1.96-.53,1.05-.58,1.81-1.45,2.5-2.4.08-.12.14-.27.17-.41.11-.73.21-1.45.31-2.17-.14.02-.28.04-.42.06ZM131.42,154.49c-.14-.06-.22.03-.28.13-.51.81-1.03,1.61-1.53,2.42-.08.12-.16.28-.15.41.07.62.05,1.25.34,1.88.07-.12.13-.18.16-.25.48-1.54.96-3.07,1.44-4.61.03-.04.07-.08.1-.13,0-.02,0-.05-.02-.07-.04.02-.1.05-.1.07,0,.05.03.1.05.15ZM66.57,163.49c-.08.29-.12.52-.2.75-.1.27-.31.43-.6.46-.33.03-.6-.09-.75-.38-.09-.18-.13-.4-.13-.6.02-.75.62-1.42,1.37-1.58.51-.11,1.01-.03,1.49.15.77.3,1.4.79,1.96,1.39.11.12.18.33.48.25-.04-.37-.05-.76-.12-1.13-.26-1.27-.88-2.34-1.78-3.26-1.44-1.48-3.2-2.37-5.23-2.76-1.27-.24-2.55-.27-3.84-.36-1.79-.13-3.46-.64-4.9-1.76-.07-.06-.17-.09-.29-.15.11.64.27,1.19.3,1.75.03.51.18.92.52,1.29.34.37.66.78,1.02,1.13.56.54,1.22.96,1.97,1.21.49.17.99.22,1.5.15.23-.04.46-.12.67-.23.28-.14.45-.39.5-.71.05-.34,0-.65-.3-.88-.1.05-.17.09-.24.13-.14.09-.31.11-.41-.01-.08-.1-.13-.27-.12-.4.04-.3.29-.5.57-.44.2.04.41.12.55.25.74.66.68,1.83-.11,2.43-.37.28-.79.39-1.25.42-1.1.07-2.05-.35-2.92-.96-.59-.41-1.09-.93-1.55-1.48-.08-.1-.21-.15-.36-.26-.07.37-.1.68-.19.95-.4,1.12-.13,2.16.27,3.22.48,1.26.97,2.51,1.67,3.66.07.12.12.28.38.24,0-.34-.02-.69,0-1.04.08-1.04.78-1.91,1.72-2.19.62-.18,1.25-.16,1.86.03.62.2,1.11.59,1.35,1.22.13.34.04.65-.2.8-.25.15-.65.02-.85-.3-.06-.1-.1-.22-.14-.33-.03-.08-.02-.18-.05-.26-.14-.31-.35-.59-.7-.62-.94-.11-2.04.34-2.25,1.48-.26,1.43.12,2.75,1.17,3.78,1.1,1.08,2.42,1.85,3.87,2.37.85.3,1.73.46,2.63.54.34.03.57-.1.74-.39.45-.78.66-1.6.55-2.49-.09-.67-.43-1.18-1.07-1.44-.51-.21-.99-.19-1.37.27.03.07.04.13.07.17.11.12.2.26.08.39-.09.1-.24.2-.37.2-.18,0-.34-.12-.39-.31-.09-.32.02-.59.24-.82.38-.39.87-.51,1.4-.45,1.03.12,1.78.93,1.91,2.07.08.67-.06,1.31-.29,1.93-.08.21-.15.43-.26.73.94-.11,1.7-.43,2.33-1,.76-.68,1.23-1.54,1.46-2.52.15-.65.11-.99-.13-1.45-.17.13-.32.27-.49.37-.28.16-.57.34-.88.42-.5.13-1.01.16-1.48-.14-.24-.15-.33-.38-.24-.61.09-.23.21-.26.66-.18-.06.13-.11.26-.17.41.37.3.79.26,1.2.14.6-.18,1.06-.53,1.36-1.11-.35-.83-.91-1.46-1.69-1.92-.45-.26-.93-.41-1.51-.22ZM119.34,172.4c.08.13.09.17.11.18.07.05.14.11.22.15,1.14.57,2.34.73,3.58.47,3.4-.74,5.57-2.87,6.67-6.11.57-1.66.43-3.36.09-5.05-.02-.1-.09-.19-.18-.39-.23.6-.41,1.09-.6,1.59-.63,1.66-1.44,3.22-2.58,4.59-.44.53-.88,1.06-1.34,1.57-1.43,1.58-3.17,2.62-5.32,2.86-.2.02-.4.09-.64.14ZM64.26,172.43c-.33-.07-.56-.13-.79-.17-.26-.05-.53-.07-.79-.13-1.84-.43-3.34-1.41-4.57-2.83-.25-.29-.49-.6-.75-.89-1.04-1.14-1.87-2.41-2.49-3.81-.37-.85-.69-1.72-1.03-2.58-.04-.1-.03-.25-.21-.21-.04.05-.1.08-.11.13-.22,1.06-.31,2.12-.27,3.21.13,3.48,2.83,6.91,6.31,7.9,1.42.4,2.83.4,4.19-.27.15-.08.29-.19.52-.35ZM91.81,168.45c-.12.08-.19.1-.22.15-.96,1.24-1.46,2.66-1.47,4.23,0,1,.24,1.95.83,2.78.22.31.44.63.81.78.8-.6,1.34-1.44,1.51-2.46.33-2.02-.17-3.83-1.46-5.48ZM49.69,151.57c0-.08.03-.15.01-.19-.38-.62-.85-1.15-1.42-1.6-.24-.19-.49-.32-.82-.3-.2.02-.42-.01-.62-.07-.79-.22-1.31-1.02-1.17-1.77.09-.51.45-.8.94-.76.23.02.41.21.38.41-.03.17-.19.28-.4.28-.16,0-.33-.17-.51.03-.14.38-.07.74.21,1.06.3.35.68.46,1.13.42.38-.03.68-.19.95-.45.52-.49.69-1.11.64-1.79-.08-1.18-.72-2.04-1.6-2.81-.32.34-.58.67-.88.95-.31.28-.65.52-.99.77-.33.24-.75.33-1.07.63.48,1.48,1.24,2.75,2.32,3.81.58.57,1.26,1,2.04,1.27.28.1.56.18.86.11ZM137.4,147.49c-.23.04-.41.1-.57.07-.12-.02-.25-.15-.31-.26-.07-.14.1-.36.27-.4.46-.11.91.16,1.03.63.09.36.06.71-.13,1.04-.34.6-.85.91-1.54.91-.24,0-.48-.01-.69.13-.72.5-1.3,1.11-1.71,1.91.35.13.63.04.91-.06.83-.29,1.56-.76,2.17-1.39.93-.95,1.61-2.07,2.07-3.32.05-.13.07-.28.09-.41-1.86-1.13-1.35-.69-2.89-2.26-.91.7-1.48,1.6-1.62,2.58-.13.91.28,1.83,1.01,2.23.48.26.98.29,1.45-.01.48-.31.66-.75.46-1.4ZM129.59,156.23c.3-.43.48-.69.66-.96.2-.3.38-.6.57-.9.18-.27.35-.55.54-.82.2-.29.42-.58.62-.87.17-.25.45-.44.51-.81-1.61.54-2.86,2.36-2.9,4.36ZM50.89,151.85c.35.46.61.79.85,1.12.24.34.48.68.71,1.03.25.37.47.76.72,1.12.23.33.38.73.75,1.01.06-1.77-1.31-3.78-3.03-4.28ZM53.79,159.38c.09-.61.16-1.11.23-1.61.05-.34-.04-.63-.23-.92-.46-.69-.89-1.4-1.33-2.1-.1-.17-.22-.32-.46-.65.49,1.58.92,2.95,1.35,4.33.07.23.14.45.21.68.02.05.07.09.22.27Z" fill="#cfa257"/><path d="M72.34,22.62c.74.7,1.58.72,2.43.43.86-.3,1.59-.82,2.27-1.41,1.23-1.06,2.08-2.37,2.59-3.9-.5-.33-.5-.33-.85-.05-.33.26-.64.54-.97.79-1.81,1.36-3.86,1.89-6.08,1.64-1.58-.18-2.9-.89-3.77-2.28-.27-.04-.35.22-.52.3-.3.14-.59.28-.9.38-.18.06-.38-.03-.43-.22-.03-.12.04-.28.09-.4.03-.08.13-.12.19-.19.61-.63,1.08-1.35,1.31-2.21.23-.85.74-1.49,1.53-1.9.55-.29,1.14-.38,1.74-.27.62.11,1.11.43,1.38,1.02.25.54.15,1.1-.26,1.48-.4.37-1.04.48-1.5.26-.49-.23-.57-.61-.17-1.09.05.13.07.23.13.31.18.26.48.29.77.08.21-.15.27-.42.14-.63-.15-.25-.38-.36-.66-.41-1.24-.21-2.39.81-2.33,2.1.03.75.33,1.4.91,1.88.71.58,1.52.96,2.43,1.07,2.26.26,4.26-.35,5.97-1.87.11-.09.19-.22.3-.35-.27-.15-.51-.28-.74-.41-.69-.39-1.27-.9-1.72-1.55-.47-.69-.7-1.45-.61-2.29.05-.45.19-.88.51-1.22.28-.3.62-.46,1.05-.38.21.04.37.26.33.46-.05.2-.26.34-.49.27-.14-.04-.26-.14-.4-.21-.45.23-.57.66-.64,1.11-.11.81.11,1.54.6,2.19.63.84,1.46,1.4,2.46,1.75.15-.13.29-.24.4-.37.3-.34.58-.69.87-1.03.63-.73,1.11-1.53,1.41-2.47.27-.82.71-1.58,1.1-2.43-.24-.61-1.03-.96-1.21-1.79h.53c.94-1.55,1.79-1.68,3.2-.47.92-.42,1.88-.83,2.98-.78.02-.16.03-.27.04-.39.04-.79.5-1.27,1.21-1.5.73-.23,1.42-.14,2,.42.32.31.46.69.4,1.14-.05.34-.21.45-.74.44.19-.23.48-.38.4-.73-.08-.35-.3-.58-.59-.75-.55-.31-1.09-.26-1.62.06-.68.42-.74,1.31-.11,1.81.14.11.3.19.47.25.94.33,1.81.78,2.5,1.46.11-.02.18,0,.21-.04.69-.64,1.5-1.08,2.39-1.38.38-.13.7-.32.88-.7.17-.35.17-.7-.05-1.02-.52-.81-1.93-.82-2.47-.02-.23.35-.2.55.13.93.04.04.06.1.14.22-.22-.06-.4-.06-.54-.15-.22-.14-.27-.39-.24-.64.06-.6.55-1.16,1.19-1.32.44-.11.89-.1,1.32.06.64.24,1.04.68,1.13,1.38.02.14.02.29.03.48,1.1-.06,2.06.36,2.98.78.91-.76,1.19-.88,1.76-.79.73.12,1.12.63,1.42,1.23h.45c.15.17.09.34-.03.48-.36.44-.72.87-1.11,1.34.1.17.19.36.3.53.47.77.81,1.6,1.08,2.46.14.44.33.83.62,1.18.4.48.78.98,1.18,1.47.19.23.4.44.59.66,1.09-.35,1.93-.95,2.56-1.81.44-.6.67-1.27.58-2.02-.06-.48-.17-.95-.65-1.23-.16.08-.3.18-.46.23-.23.06-.44-.1-.45-.31-.01-.17.12-.36.29-.4.31-.07.59-.02.85.16.31.21.51.5.62.85.32.95.13,1.83-.36,2.67-.45.76-1.11,1.33-1.87,1.77-.23.13-.45.26-.66.38.02.08.02.11.04.13,1.81,1.79,4,2.43,6.49,2.05.78-.12,1.48-.48,2.09-.98.69-.57,1.02-1.32.94-2.22-.1-1.12-1.16-1.96-2.26-1.81-.28.04-.52.14-.69.37-.16.21-.13.47.06.64.17.14.38.25.57.15.16-.08.26-.28.39-.43.28.24.34.41.23.63-.12.22-.31.38-.54.44-.56.15-1.07.03-1.47-.41-.35-.38-.39-1.01-.11-1.51.32-.56.83-.85,1.46-.92,1.39-.16,2.65.67,3.08,2.07.2.64.48,1.22.87,1.76.16.22.35.41.53.61.08.09.17.17.23.27.14.21-.04.53-.3.51-.23-.02-.47-.08-.68-.18-.26-.13-.49-.33-.78-.53-.06.06-.16.12-.22.21-.93,1.37-2.29,1.98-3.87,2.12-2.35.21-4.43-.47-6.25-1.97-.21-.17-.41-.35-.62-.52-.24-.19-.24-.19-.74-.02,0,.08-.04.18-.02.25.83,2.3,2.35,3.99,4.54,5.08.6.3,1.21.3,1.84.18.32-.06.63-.19.82-.55-.07-.07-.15-.15-.22-.24-.24-.33-.16-.64.2-.79.48-.21,1,.07,1.08.6.08.53-.13.94-.54,1.25-.55.42-1.19.54-1.87.44-.63-.09-1.22-.29-1.78-.59-1.98-1.05-3.39-2.62-4.27-4.67-.13-.3-.25-.6-.39-.94-2.34.09-4.47-.5-6.36-1.85-1.87-1.33-3.12-3.1-3.66-5.35-.58-.06-1.04.19-1.56.33-.47-.11-.95-.41-1.57-.32-.55,2.26-1.82,4.06-3.72,5.39-1.87,1.31-3.98,1.88-6.29,1.8-.14.33-.26.63-.39.93-.86,2.03-2.25,3.58-4.19,4.64-.58.32-1.2.54-1.86.64-.61.09-1.19-.01-1.73-.33-.41-.24-.66-.6-.72-1.08-.08-.64.52-1.11,1.1-.89.33.13.49.53.22.79-.08.08-.16.16-.27.28ZM99.57,9.57c-.05-.34-.29-.43-.58-.52.08.41.07.43.18.46.14.03.28.03.42.04-.45.25-.7.21-.83-.16-.08-.22-.1-.45-.16-.72-.46-.2-.91-.43-1.39-.59-.42-.14-.86-.21-1.3-.27-.25-.04-.32.11-.28.48-.63.25-1.26.49-1.87.77-.09.04-.09.28-.16.5.47-.02.85-.06,1.23-.05.62.02,1.24.07,1.86.1.03,0,.06,0,.08-.03.02-.02.02-.05.04-.12-.23-.35-.56-.64-.92-.9-.11-.08-.2-.2-.29-.3.38.03.69.25.9.53.65.87,1.59,1.3,2.51,1.77.54.28.99.23,1.6-.11-.41-.32-.54-.78-1.05-.87ZM87.9,8.3c0-.39-.06-.5-.3-.5-.06,0-.12,0-.18,0-.92.14-1.79.42-2.53.94-.14.69-.15.78-.36.91-.1.07-.26.04-.57.08.26-.16.4-.22.49-.32.09-.1.16-.25-.08-.38-.49.43-1.07.78-1.38,1.44.55.3,1.03.36,1.54.02.29-.19.63-.34.96-.46.34-.13.63-.32.86-.61.19-.23.4-.44.61-.65.17-.16.33-.35.6-.35-.24.26-.48.51-.7.78-.08.1-.24.19-.15.34,1.06-.02,2.1-.05,3.12-.07.1-.25.03-.42-.2-.52-.52-.22-1.04-.44-1.56-.66-.05-.02-.12-.01-.18-.01ZM93.71,10.32c.71,4.01,5.57,7.51,9.45,6.88-.16-.85-.32-1.68-.96-2.35-.51-.54-.95-1.15-1.47-1.69-.52-.53-1.06-1.06-1.65-1.5-1.58-1.18-3.38-1.55-5.38-1.33ZM89.76,10.35c-.12-.03-.24-.07-.35-.07-2.27-.14-4.24.53-5.89,2.12-.89.85-1.68,1.78-2.44,2.75-.42.53-.64,1.24-.67,2.1,1.03.15,2.02-.04,3-.33,2.79-.85,4.81-2.59,6.02-5.25.18-.4.38-.81.33-1.3ZM99.13,8.52c.65.59,1.26,1.14,1.86,1.69.54-.52.63-.68.61-1.14-.01-.38-.16-.69-.44-.94-.67-.61-1.38-.49-2.04.39ZM84.39,8.49c-.39-.55-.83-.86-1.47-.71-.54.13-1,.66-1.04,1.22-.01.23.04.48.14.68.11.22.22.5.52.51.61-.56,1.2-1.1,1.85-1.7ZM82.71,10.84c-.66.78-.97,1.41-1,2.07.59-.62,1.22-1.15,1.81-1.82-.33-.1-.57-.18-.81-.25ZM101.83,12.94c-.11-.8-.72-1.94-1.08-2.09-.22.11-.5.1-.76.29.63.62,1.22,1.19,1.83,1.8ZM91.23,9.85c-.42-.23-.62-.52-1.01-.55.05.45.08.47,1.01.55ZM92.44,9.83c.3.13.52-.07.76-.16.16-.06.14-.23.02-.37-.31.09-.58.25-.78.53ZM103.74,16.6c-.06.04-.13.09-.19.13.03.11.04.23.09.32.06.11.16.2.28.09.04-.04.02-.16,0-.23-.04-.11-.12-.21-.18-.32ZM79.92,16.68c-.08.03-.12.03-.14.05-.12.11-.31.19-.21.41.01.02.05.04.07.04.25,0,.23-.21.3-.36,0-.02,0-.05-.03-.14Z" fill="#cfa257"/><path d="M35.84,94.95c-.75.45-1.35.88-1.89,1.41-.66.65-1.07,1.43-1.27,2.33-.14.64-.06,1.26.35,1.79.16.2.4.35.64.46.22.11.47.08.68-.08-.04-.17-.1-.34-.1-.52,0-.26.19-.46.42-.51.28-.05.54.11.62.39.18.63-.21,1.27-.89,1.41-.45.1-.89.03-1.29-.24-.61-.41-.92-1.01-1.02-1.72-.07-.47-.04-.95.09-1.42.27-.94.73-1.77,1.46-2.43.42-.38.89-.7,1.34-1.05.19-.14.37-.28.55-.42-.35-1.04-.87-1.78-2.01-2.85.17,0,.28,0,.36.02.53.2.88.61,1.2,1.04.33.46.62.94.93,1.42,2.46-.94,3.91-3.16,2.94-6.4.36.13.44.44.52.73.49,1.73.25,3.33-.99,4.68-.4.43-.91.77-1.38,1.13-.23.18-.49.33-.76.52.06.2.11.37.17.53.76,2.1,1.22,4.25,1.17,6.49-.01.54.03,1.08.03,1.61,0,.75.34,1.31.91,1.77.19.15.38.28.56.44.14.12.08.36-.09.45-.4.21-.78.11-1.08-.16-.21-.19-.39-.46-.51-.72-.12-.27-.15-.58-.2-.87-.08-.47-.14-.94-.23-1.54-.12.2-.2.29-.23.39-.47,1.52-1.16,2.94-1.86,4.37-.43.89-.83,1.79-1.19,2.71-.42,1.06-.68,2.16-.74,3.3.22.08.24-.11.33-.21.25-.29.48-.62.77-.86.84-.67,1.87-.53,2.54.29.25.31.42.65.48,1.05.08.51-.04.96-.51,1.24-.47.28-.97.28-1.45,0-.29-.17-.3-.36-.09-.84.17-.07.17.09.24.17.23.3.52.38.85.25.27-.11.4-.4.33-.75-.07-.36-.26-.67-.53-.92-.37-.34-.88-.42-1.32-.15-.25.15-.49.35-.66.59-.62.84-.84,1.76-.57,2.8.44,1.69,1.57,2.59,3.3,2.6.21,0,.41-.03.68-.04-.03-.16-.02-.32-.08-.43-.33-.63-.79-1.12-1.49-1.34-.08-.03-.16-.07-.24-.11-.02-.01-.02-.05-.03-.08.82-.22,1.26.1,2.43,1.81.68-.15,1.24-.53,1.69-1.07.47-.56.77-1.21.91-1.93.07-.37.02-.71-.19-1.03-.2-.31-.45-.33-.73-.06-.13.12-.24.27-.39.36-.39.25-.86.06-1-.39-.14-.45.09-.97.56-1.19.63-.3,1.23-.21,1.78.19.4.29.66.7.75,1.19.05.32.09.66.05.98-.23,1.61-1.02,2.85-2.52,3.57-.21.1-.44.19-.7.3.02.95.05,1.9-.15,2.84-.2.93-.41,1.87-.62,2.84.18.19.36.38.55.57,1.48,1.54,2.13,3.36,1.83,5.49-.03.21-.06.42-.09.62-.03.2-.08.4-.12.63.49.29.98.27,1.48.14,1.3-.33,2.22-1.56,2.13-2.85-.03-.34-.12-.65-.33-.91-.36-.45-1-.57-1.45-.29-.43.28-.59.94-.31,1.44.1.18.25.33.38.48-.24.49-.52.55-.85.17-.5-.58-.49-1.63.03-2.24.49-.59,1.35-.75,2.04-.38.64.34.93.91,1.01,1.6.2,1.77-1.08,3.03-2.2,3.45-.4.15-.81.23-1.23.2-.26-.02-.53-.04-.84-.07-.3.69-.29,1.4-.27,2.12.02.79.22,1.53.61,2.21.82-.15,1-.47.76-1.31.17-.17.34-.13.44.05.27.48.16.93-.17,1.33-.17.2-.39.36-.58.54.28.54.42.71.89,1.07.84.64,1.78.98,2.84.88,1.25-.11,2.11-1.43,1.73-2.62-.1-.32-.28-.59-.58-.77-.18-.1-.39-.02-.41.18-.02.24,0,.48-.02.71-.04.32-.23.52-.5.54-.28.03-.51-.1-.65-.37-.13-.25-.16-.5-.11-.78.16-.9,1.43-1.68,2.38-.81.76.7.92,1.59.73,2.55-.24,1.24-1.11,2.05-2.36,2.28-.15.03-.3.03-.44.07-.91.27-1.34.82-1.37,1.77-.02.44.05.84.52,1.05.08.04.15.1.2.17.03.04.05.12.03.16-.04.07-.1.15-.17.17-.29.09-.53-.03-.75-.21-1-.81-1.03-2.46-.03-3.22.18-.14.38-.26.63-.43-1.36-.42-2.34-1.22-3.05-2.27-.13-.04-.18-.06-.24-.07-1.07-.06-1.6-.74-1.81-1.69-.2-.89-.19-1.77.41-2.56-.02.15-.02.31-.05.46-.14.72-.13,1.43.11,2.12.14.4.35.76.74.98.09.05.21.05.41.09-.13-.44-.25-.8-.33-1.17-.08-.38-.15-.76-.18-1.15-.02-.36,0-.72.03-1.07.03-.38.1-.77.16-1.2-.13-.09-.28-.19-.42-.28-1.14-.75-1.77-1.83-2.06-3.14-.24-1.08-.14-2.14.08-3.2.07-.35.16-.7.24-1.06-.95-1.09-1.4-2.36-1.32-3.8.02-.32,0-.72.46-.96-.17,1.05-.08,2.03.28,2.96.15.39.31.77.65,1.06.34-.53.55-1.25.81-2.69.15-.83.15-1.51-.02-2.27-.19,0-.39,0-.59-.03-.53-.06-1.08-.07-1.59-.22-1.32-.38-2.23-1.25-2.75-2.51-.45-1.1-.56-2.25-.48-3.43.12-1.63.58-3.17,1.26-4.65.35-.76.74-1.5,1.12-2.25.61-1.2,1.18-2.42,1.6-3.7.77-2.42.72-4.83-.17-7.21-.07-.19-.17-.37-.29-.65ZM37.32,125.8c-.42,1.46-.49,2.84-.03,4.21.27.81.74,1.5,1.43,2.01.13.1.3.13.46.2.7-2.49-.02-5.05-1.87-6.42Z" fill="#cfa257"/><path d="M149.18,100.89c.52.24.93.04,1.25-.36.38-.46.51-1.02.42-1.6-.12-.85-.47-1.6-1.02-2.26-.5-.6-1.28-1.2-2.11-1.63-.25.06-.26.31-.33.49-.95,2.47-.98,4.96-.13,7.46.41,1.22.97,2.38,1.54,3.53.46.91.92,1.81,1.33,2.74.63,1.44,1.02,2.94,1.05,4.52.02.93-.05,1.85-.36,2.74-.56,1.63-1.88,2.96-4.21,3.05-.26,0-.53,0-.81,0-.18.29-.19.59-.17.88.06,1.38.34,2.72.81,4.02,0,.03.04.04.06.06.8-.72,1.02-1.51,1.07-4.01.14.21.27.33.29.47.23,1.29-.02,2.5-.72,3.6-.14.23-.32.43-.5.69.07.36.15.73.23,1.11.21.94.27,1.89.12,2.85-.22,1.46-.88,2.65-2.14,3.48-.1.07-.2.13-.3.2-.02.02-.03.05-.04.06.05.79.17,1.56.12,2.33-.05.73-.27,1.45-.42,2.19.12.11.25.04.38-.03.41-.25.62-.65.75-1.08.19-.64.25-1.29.07-1.95-.05-.19-.09-.39-.17-.74.16.17.26.23.29.32.43.91.46,1.85.14,2.79-.26.76-.75,1.29-1.61,1.35-.09,0-.17.03-.22.04-.49.49-.91,1.01-1.42,1.4-.5.39-1.11.64-1.69.98.17.11.34.21.51.32,1.05.68,1.03,2.51,0,3.27-.2.15-.41.25-.66.2-.08-.02-.17-.07-.2-.14-.03-.07,0-.17.04-.25.02-.05.08-.09.13-.12.5-.22.57-.65.54-1.12-.03-.52-.13-1.02-.6-1.34-.35-.23-.72-.4-1.15-.45-1.72-.21-2.73-1.86-2.39-3.58.11-.58.42-1.05.91-1.39.5-.35,1.01-.31,1.52,0,.51.31.74.77.67,1.36-.02.19-.12.41-.25.56-.3.36-.89.22-.99-.24-.07-.31-.05-.65-.07-.94-.21-.18-.37-.09-.51.02-.29.23-.44.56-.51.92-.21,1.11.65,2.26,1.78,2.38.8.08,1.54-.1,2.25-.48.62-.33,1.13-.78,1.56-1.39-.21-.19-.41-.36-.58-.55-.41-.45-.49-.93-.22-1.39.06-.09.23-.12.44-.22,0,.4-.27.7-.06,1.01.18.25.37.46.69.51.78-.98.96-2.58.48-4.33-.21.01-.44.02-.67.03-1.47.09-2.53-.58-3.25-1.81-.4-.67-.47-1.41-.3-2.17.18-.83.84-1.4,1.62-1.45.7-.04,1.22.25,1.56.86.35.62.27,1.44-.15,1.94-.28.33-.51.32-.88-.09.07-.1.15-.22.24-.33.05-.07.12-.14.16-.21.29-.52.16-1.13-.29-1.44-.47-.32-1.14-.18-1.51.32-.22.3-.31.66-.31,1.02,0,2,2.15,3.21,3.44,2.66.05-.02.09-.07.14-.1-.68-3.45.12-5.28,2.21-7.35-.38-1.81-.99-3.62-.75-5.59-.17-.09-.35-.19-.53-.26-1.64-.71-2.48-2.01-2.74-3.72-.11-.71.08-1.37.59-1.91.5-.53,1.27-.71,1.89-.45.49.2.77.65.7,1.13-.07.53-.64.79-1.07.48-.17-.12-.29-.3-.44-.44-.13-.13-.37-.13-.48.02-.14.19-.26.4-.33.62-.05.16-.03.36-.01.53.16,1.39,1.2,2.59,2.64,3.02.14-.24.29-.5.45-.74.37-.57.85-1,1.54-1.15.13-.03.28,0,.55,0-.32.35-.7.32-.94.53-.22.2-.46.38-.65.61-.2.25-.44.5-.4.86,1.43.29,2.64-.11,3.35-1.15.83-1.2,1.02-2.48.28-3.79-.19-.33-.46-.63-.76-.86-.5-.39-1.1-.3-1.53.16-.25.27-.42.58-.45.95-.02.31.12.55.38.64.32.1.57.03.78-.23.07-.08.13-.17.19-.25.25.16.31.37.23.57-.06.15-.2.32-.35.38-.5.2-1,.2-1.44-.14-.4-.31-.54-.82-.35-1.38.11-.3.26-.61.46-.86.68-.83,1.71-.94,2.54-.25.34.28.6.65.91.98.2-.06.14-.24.12-.36-.15-.76-.26-1.54-.5-2.27-.32-.96-.71-1.9-1.15-2.82-.77-1.62-1.59-3.22-2.13-4.94-.02-.05-.07-.09-.12-.17-.2.32-.22.67-.27,1.02-.05.35-.09.71-.17,1.06-.08.35-.26.67-.56.9-.3.23-.62.35-1,.21-.26-.1-.33-.38-.11-.56.18-.15.39-.28.57-.43.5-.42.82-.93.82-1.62,0-.93.06-1.85.08-2.78.04-1.85.49-3.61,1.11-5.33.06-.17.12-.34.2-.55-.15-.12-.3-.26-.46-.37-.41-.3-.86-.56-1.24-.89-1.56-1.36-1.98-3.07-1.48-5.03.08-.32.19-.67.57-.87-.98,3.48.47,5.35,2.87,6.49.11-.15.22-.32.33-.48.33-.46.64-.94.99-1.39.24-.31.55-.56.93-.67.07-.02.16,0,.37,0-1.02.81-1.69,1.73-2.12,2.85.27.19.52.35.75.53.45.35.91.68,1.32,1.08.75.73,1.2,1.63,1.4,2.66.16.83.02,1.61-.5,2.3-.43.57-1,.84-1.72.73-.58-.09-1.01-.55-1.01-1.09,0-.17.06-.36.14-.51.11-.21.32-.26.54-.23.2.03.34.17.37.35.03.22-.02.46-.03.71ZM146.21,125.83c-.85.53-1.49,1.44-1.88,2.61-.41,1.25-.42,2.51-.02,3.82.18-.08.32-.13.43-.21.75-.55,1.24-1.29,1.51-2.17.4-1.33.31-2.65-.04-4.05Z" fill="#cfa257"/><path d="M141.27,73.79c-.16-.29-.34-.56-.46-.86-.36-.87-.08-1.72.69-2.18.42-.25.86-.26,1.27,0,.44.27.66.68.6,1.21,0,.08-.04.19-.1.24-.08.07-.2.12-.31.12-.05,0-.13-.13-.14-.2-.01-.11,0-.25.05-.34.17-.29.08-.51-.12-.72-.25-.26-.56-.34-.91-.24-.67.2-1.09.95-.91,1.64.1.38.3.72.59.99.37.36.82.6,1.3.78.13.05.29.07.43.06.87-.12,1.68-.39,2.38-.96.78-.63,1.38-1.41,1.81-2.31.61-1.28.99-2.63,1.15-4.03.08-.71.1-1.43.13-2.15,0-.17-.04-.34-.08-.65-.15.2-.23.27-.27.36-.34.67-.75,1.3-1.31,1.81-.23.21-.34.47-.45.76-.29.83-.79,1.54-1.43,2.15-.4.38-.86.64-1.41.74-.33.06-.66.03-.96-.12-.34-.17-.46-.58-.27-.92.05-.09.18-.18.28-.19.1-.02.23.03.32.1.05.03.04.17.02.25-.03.1-.1.19-.18.34.47.19.87.15,1.25-.05.86-.48,1.49-1.18,1.85-2.1,0-.01-.03-.04-.08-.11-.26.08-.53.19-.81.26-2.31.62-3.85-.5-4.62-2.1-.45-.93-.36-1.87.18-2.75.48-.79,1.31-1.14,2.06-.89.79.26,1.33,1.09,1.27,1.97-.01.17-.06.35-.14.51-.09.21-.27.31-.51.3-.21-.02-.38-.16-.43-.39-.03-.14-.03-.3-.05-.44-.02-.18,0-.36-.04-.53-.09-.42-.4-.67-.78-.78-.32-.09-.57.14-.78.36-.59.62-.73,1.67-.32,2.52.64,1.32,2.1,2.4,4.14,1.71.52-.17.98-.44,1.39-.8.88-.76,1.48-1.71,1.88-2.8.12-.32.12-.63.05-.96-.6-2.97-2.15-5.28-4.7-6.92-.08-.05-.15-.1-.22-.16-.01-.01,0-.05,0-.09.11-.16.27-.1.4-.05.4.19.84.35,1.19.61,2.28,1.69,3.78,3.89,4.19,6.74.12.86.26,1.72.32,2.58.11,1.52.13,3.05-.3,4.54-.48,1.65-1.29,3.09-2.71,4.12-.81.59-.99,1.38-.8,2.29.17.81.63,1.22,1.54,1.44.4-.27.68-.61.68-1.15,0-.1.18-.26.29-.27.12-.01.28.09.37.19.09.11.14.27.14.41.02.35-.11.65-.38.87-.36.31-.78.42-1.25.32-.98-.2-1.74-1.02-1.87-2.05-.04-.29-.03-.59-.04-.89-.2-.06-.28.07-.36.2-.78,1.27-.77,2.55-.04,3.82.26.46.63.87.97,1.28.44.53.92,1.02,1.34,1.56.67.86,1.14,1.82,1.28,2.92.07.55.02,1.08-.12,1.6-.14.51-.41.93-.88,1.2-.46.25-.92.25-1.36-.03-.4-.25-.68-.6-.64-1.1,0-.12.12-.27.23-.34.14-.1.36,0,.46.16.02.03.03.05.04.08.01.03.02.06.03.08.1.28.16.61.55.6.41-.01.77-.18.95-.57.13-.29.22-.62.26-.94.08-.63-.03-1.25-.26-1.85-.26-.68-.63-1.29-1.09-1.85-.38-.46-.77-.91-1.18-1.36-.74-.81-1.33-1.7-1.52-2.8-.01-.08-.07-.16-.13-.29-.62.78-.94,1.62-.81,2.58.08.58.4,1.07.84,1.45.32.27.67.5,1.01.74.34.25.68.49,1,.75.24.19.39.45.46.75.1.49-.29.91-.77.83-.19-.03-.35-.16-.34-.35,0-.12.13-.25.24-.32.11-.07.27-.07.41-.1-.04-.42-.31-.62-.57-.81-.34-.25-.69-.47-1.04-.7-.45-.3-.87-.63-1.19-1.08-.48-.68-.6-1.43-.43-2.22.16-.74.46-1.42,1.19-1.83.17-.58.34-1.18.52-1.81-.13,0-.27-.02-.4,0-.51.08-1.01.04-1.51-.03-.71-.1-1.42-.18-2.1-.43-.92-.34-1.7-.87-2.28-1.67-.49-.68-.73-1.43-.65-2.28.04-.43.19-.82.5-1.13.51-.52,1.3-.43,1.69.19.22.34.25.73.25,1.12,0,.36-.03.72,0,1.08.05.89.49,1.51,1.34,1.82.06.04.11.08.18.11,0,0,.04-.03.06-.05-.06-.04-.12-.09-.17-.13Z" fill="#cfa257"/><path d="M38.2,74.8c-.02.39-.01.66-.05.93-.14,1.09-.9,1.93-1.91,2.12-.67.13-1.32-.2-1.55-.78-.12-.3-.12-.6.09-.84.08-.1.26-.19.37-.18.11.02.26.17.29.28.17.73.16.73.66,1.14.53,0,.92-.31,1.23-.73.63-.84.47-2.27-.37-2.91-1.86-1.4-2.81-3.32-3.09-5.57-.14-1.09-.21-2.2-.03-3.3.14-.91.21-1.84.36-2.75.46-2.71,1.92-4.79,4.08-6.42.31-.23.66-.41,1.01-.57.18-.08.39-.08.78-.16-.21.21-.27.3-.35.35-2.52,1.62-4.06,3.91-4.71,6.82-.1.46-.07.88.11,1.31.37.86.85,1.65,1.52,2.31.68.67,1.48,1.1,2.43,1.24,1.79.27,3.15-1,3.53-2.28.22-.72.08-1.43-.4-2.03-.23-.28-.51-.57-.91-.43-.42.14-.71.44-.76.91-.02.24,0,.48-.03.72-.03.28-.19.47-.43.5-.26.04-.51-.14-.61-.43-.25-.74.15-1.77.85-2.19.69-.41,1.54-.29,2.12.36.68.77.92,1.67.63,2.67-.58,2.03-2.7,3.16-4.75,2.55-.31-.09-.61-.21-1.03-.36.1.23.13.36.2.48.34.57.74,1.09,1.26,1.51.49.39,1.02.61,1.73.41-.06-.14-.13-.26-.14-.39,0-.1.03-.25.11-.3.08-.05.24-.05.33,0,.39.23.37.8-.02,1.04-.29.18-.62.22-.95.17-.51-.08-.97-.3-1.36-.65-.68-.61-1.21-1.32-1.52-2.19-.13-.38-.35-.67-.61-.97-.39-.45-.71-.96-1.05-1.44-.12-.17-.2-.35-.3-.51-.23.04-.17.19-.17.29-.07,2.09.27,4.11,1.08,6.05.39.92.91,1.75,1.65,2.43.72.68,1.56,1.09,2.54,1.24.28.04.54.05.78-.08.34-.19.7-.36.99-.6.6-.51.96-1.14.7-1.98-.01-.04.03-.1.05-.15.47.76.37,1.28-.48,2.45.16.16.28,0,.39-.06.79-.46,1.21-1.13,1.14-2.07-.02-.3-.05-.6-.01-.9.04-.32.09-.66.23-.95.36-.72,1.27-.81,1.79-.19.28.33.42.72.44,1.15.05.71-.15,1.36-.53,1.96-.46.73-1.08,1.28-1.86,1.64-.68.32-1.38.56-2.14.6-.39.02-.77.13-1.15.15-.41.02-.82-.04-1.31-.06.11.3.22.57.29.84.08.29.12.58.19.91.7.4,1.07,1.07,1.25,1.85.22.96.03,1.85-.68,2.58-.29.3-.63.55-.97.79-.31.23-.65.43-.97.65-.27.19-.52.4-.6.71.07.29.32.14.44.24.08.07.2.19.19.27-.02.13-.11.29-.22.35-.23.12-.47.08-.66-.1-.21-.2-.29-.45-.22-.74.09-.33.29-.59.55-.8.31-.24.63-.45.95-.68.31-.23.65-.43.93-.69.83-.75,1.12-1.67.75-2.76-.15-.44-.31-.88-.71-1.29-.07.17-.13.27-.15.38-.13.86-.53,1.58-1.08,2.23-.42.51-.87.99-1.3,1.49-.51.59-.95,1.23-1.27,1.94-.36.79-.45,1.61-.31,2.46.09.53.33.96.89,1.12.35.1.56.02.72-.32.08-.16.12-.35.23-.48.08-.09.27-.12.4-.1.09.01.19.15.22.25.03.14.03.3-.02.44-.31.94-1.42,1.26-2.19.64-.34-.27-.54-.63-.66-1.04-.27-.93-.18-1.83.14-2.73.25-.71.63-1.36,1.11-1.94.4-.48.84-.94,1.24-1.42.36-.44.75-.87,1.02-1.36.71-1.28.69-2.57-.13-3.82-.04-.07-.13-.11-.29-.24Z" fill="#cfa257"/><path d="M44.91,50.2c-.93.47-1.55.39-2.22-.29-.75-.76-1-1.69-.85-2.72.07-.47.2-.94.4-1.37.23-.49.28-.95.2-1.47-.13-.84-.07-1.67.19-2.48.61-1.93,1.87-3.16,3.93-3.46.11-.02.21-.06.38-.11-.17-.33-.31-.62-.46-.91-.74-1.39-.7-4.02.88-5.59.86-.85,1.86-1.29,3.08-1.05.15.03.29.15.55.29-.46.16-.79.26-1.12.39-.47.19-.95.37-1.4.6-.79.41-1.27,1.08-1.46,1.94-.26,1.17-.2,2.31.42,3.39.56.99,1.21,1.92,1.89,2.88.2-.03.41-.05.6-.1.87-.22,1.71-.53,2.48-1.01,1.01-.63,1.72-1.49,1.91-2.69.16-1.02.09-2.03-.25-3.01-.09-.24-.27-.47-.2-.81.12.09.24.13.29.22.16.25.32.51.42.78.39,1,.43,2.05.22,3.09-.24,1.14-.93,1.99-1.87,2.64-.72.49-1.52.83-2.35,1.09-.28.09-.55.19-.88.31.14.29.26.52.36.76.2.47.39.94.56,1.41.07.19.1.41.12.61.07.95-.36,1.45-1.32,1.55-.12.01-.24,0-.41,0-.02.18-.04.35-.05.51-.04.48-.02.96-.12,1.43-.09.46-.13.88.07,1.31.05.11.09.23.08.34,0,.1-.08.21-.16.28-.04.03-.19,0-.23-.06-.13-.19-.26-.39-.35-.61-.06-.15-.05-.33-.09-.64-.15.24-.25.35-.29.48-.16.42-.27.86-.45,1.27-.26.6-.51,1.21-.85,1.78-.26.44-.36.81-.23,1.33.33,1.29.16,2.55-.46,3.74-.34.65-.8,1.19-1.38,1.63-.83.63-1.77.86-2.79.66-.71-.14-1.28-.49-1.61-1.16-.17-.34-.2-.69-.09-1.04.1-.33.42-.62.7-.61.34.01.62.15.76.46-.17.26-.35.09-.51.1-.28,0-.45.16-.46.43-.03.55.27.91.71,1.16.6.34,1.24.42,1.91.24.62-.16,1.16-.47,1.61-.93,1.26-1.32,1.63-2.88,1.25-4.64-.01-.05-.06-.1-.13-.2-.11.08-.23.15-.33.23-.41.34-.8.73-1.24,1.02-1.24.79-2.6,1.02-4.04.65-.75-.19-1.37-.6-1.81-1.24-.5-.73-.56-1.5-.14-2.29.19-.36.47-.61.87-.73.38-.11.74.06.87.43.04.12.01.29-.04.41-.07.15-.22.16-.38.14-.46-.07-.54-.02-.69.3-.24.51-.15.99.14,1.44.33.49.79.81,1.35.98,1.01.31,2.01.24,2.99-.15.94-.38,1.69-1,2.33-1.8-.18-.58-.39-1.12-.81-1.55ZM48.81,40.98c-.7.14-1.34.37-1.97.64-1.01.43-1.86,1.08-2.52,1.96-.37.5-.68,1.05-1.03,1.57-.2.3-.2.6-.08.93.33.9.77,1.75,1.26,2.57.49.82.97,1.64,1.46,2.46.02.03.09.04.18.07.24-.25.42-.56.55-.89.23-.58.44-1.17.64-1.77.21-.62.39-1.26.94-1.69.07-.05.12-.14.14-.22.15-.73.12-1.43-.37-2.04-.28-.35-.67-.5-1.1-.51-.92,0-1.67.66-1.76,1.58-.02.24,0,.48,0,.71,0,.18.02.36.02.54,0,.2-.11.34-.29.41-.18.07-.42-.05-.52-.24-.05-.11-.09-.22-.12-.34-.11-.42-.06-.83.04-1.24.39-1.56,1.85-2.37,3.39-1.87.11.04.22.07.35.1.13-.16.22-.31.35-.42.28-.27.69-.27.97-.04.21.18.21.32,0,.78-.02.04,0,.11,0,.16.48.08.67-.02.68-.39,0-.15.01-.3-.03-.45-.24-.87-.6-1.68-1.19-2.39ZM47.29,38.77c-2.87.04-5.13,2.97-4.31,5.55.29-.38.54-.73.83-1.06.29-.34.59-.68.93-.97.36-.31.76-.58,1.18-.81.39-.22.81-.38,1.22-.54.41-.16.84-.28,1.23-.42,0-.1.02-.18,0-.22-.35-.51-.72-1.02-1.08-1.54ZM42.81,46.28c-.32.61-.35,1.13-.34,1.67.02.77.35,1.3,1.09,1.58.36.13.45.11.76-.35-.48-.91-.96-1.83-1.51-2.89Z" fill="#cfa257"/><path d="M144.24,50.86c-.13.04-.21.07-.29.1-.15.06-.29.05-.41-.08-.14-.15-.15-.32-.06-.5.16-.32.49-.48.82-.4.36.09.64.3.85.62.46.7.45,1.64-.05,2.37-.46.67-1.09,1.1-1.88,1.29-1.83.44-3.42-.05-4.82-1.27-.22-.2-.44-.4-.66-.6-.02-.01-.05,0-.13,0-.19.22-.17.54-.2.82-.16,1.41.23,2.66,1.15,3.75.49.59,1.12.99,1.87,1.18.6.15,1.19.07,1.75-.18.37-.17.64-.44.78-.82.2-.53-.04-.83-.63-.79-.06,0-.12,0-.18,0-.03,0-.05-.03-.11-.07.01-.31.27-.4.5-.5.25-.11.48-.03.66.15.34.31.44.71.32,1.15-.17.61-.56,1.05-1.14,1.3-.74.32-1.51.34-2.28.1-.52-.16-.99-.43-1.38-.81-1.32-1.26-1.89-2.8-1.65-4.62.03-.27.08-.53.16-.79.08-.28.07-.51-.1-.76-.59-.84-.95-1.79-1.27-2.76-.1-.32-.15-.69-.48-.96-.13.43-.1.89-.49,1.15-.06.04-.18.06-.24.04-.07-.03-.11-.12-.15-.2-.02-.05,0-.12.02-.17.01-.06.04-.11.06-.17.19-.46.19-.9.09-1.39-.13-.6-.1-1.24-.15-1.9-.17,0-.34-.01-.51-.03-.82-.1-1.24-.55-1.22-1.37,0-.32.06-.66.16-.96.18-.51.41-.99.62-1.49.07-.16.13-.31.22-.52-.33-.12-.61-.22-.89-.31-.77-.25-1.52-.56-2.2-1-2.07-1.35-2.77-4.08-1.59-6.25.08-.16.2-.3.31-.44.03-.04.1-.04.16-.06.17.13.03.27-.01.39-.25.58-.4,1.19-.45,1.82-.2,2.2.66,3.56,2.34,4.44.82.43,1.69.73,2.65.92.13-.16.28-.3.39-.47.55-.85,1.13-1.69,1.64-2.57.62-1.07.6-2.23.31-3.39-.2-.8-.68-1.4-1.39-1.78-.47-.25-.98-.43-1.48-.63-.3-.12-.6-.22-1.04-.38.26-.14.39-.26.54-.29,1.12-.23,2.07.12,2.88.87.92.85,1.4,1.92,1.51,3.16.09,1.01-.07,1.97-.57,2.86-.11.2-.2.41-.32.67.18.05.29.09.39.1,2.25.35,3.88,2.05,4.1,4.34.06.59.04,1.2-.02,1.79-.04.44,0,.82.2,1.21.27.54.42,1.12.45,1.73.04.9-.18,1.72-.82,2.39-.39.4-.84.69-1.42.64-.28-.03-.56-.15-.91-.26-.35.39-.54.91-.72,1.41,1.31,2.05,3.74,2.55,5.24,2.07.56-.18,1.03-.48,1.38-.95.2-.27.3-.59.3-.92,0-.33-.09-.51-.48-.98ZM135.46,43.72c.15-.04.21-.04.27-.06,1.98-.88,3.9,1.02,3.54,3.05-.03.17-.11.35-.23.47-.09.09-.28.15-.4.12-.11-.03-.25-.18-.28-.3-.04-.2,0-.41,0-.62,0-.27.03-.54,0-.8-.16-1.24-1.59-1.85-2.51-1.3-.5.3-.72.79-.78,1.35-.06.5-.07.98.38,1.39.27.25.43.64.58.99.16.35.25.73.36,1.11.19.63.44,1.24.79,1.8.07.12.13.28.37.25.05-.08.11-.17.17-.27.39-.67.78-1.34,1.18-2,.53-.87,1.02-1.76,1.37-2.72.13-.35.15-.67-.04-1.03-1.01-1.9-2.43-3.32-4.56-3.9-.17-.05-.34-.11-.52-.15-.17-.04-.34-.06-.49-.09-.47.62-.79,1.26-1.02,1.94-.09.28-.11.58-.14.88-.02.19.07.35.26.43.18.07.35.07.46-.13-.22-.23-.39-.47-.13-.78.19-.23.54-.32.82-.2.11.05.21.12.28.21.1.11.17.24.27.37ZM135.1,40.41c.05.08.06.12.08.12.28.1.56.19.85.28,1.65.51,3.01,1.44,4,2.87.1.15.21.29.31.44.07.1.15.19.29.11.39-2.97-1.72-5.59-4.4-5.43-.4.52-.85,1.03-1.14,1.61ZM139.16,49.21c.42.45.45.44.84.29.71-.27,1-.8,1.05-1.52.03-.45-.03-.9-.18-1.33-.03-.1-.11-.18-.2-.32-.52.98-1,1.91-1.51,2.88Z" fill="#cfa257"/><path d="M67.06,21.14c-.99.27-1.87.76-2.65,1.42-.71.6-1.37,1.24-2.03,1.9-.63.64-1.2,1.33-1.84,1.96-.66.65-1.33,1.29-2.07,1.86-1.18.9-2.51,1.53-4.02,1.63-.56.04-1.14.01-1.69-.1-1.17-.25-1.86-1.01-2.12-2.18-.11-.5.01-.95.31-1.35.19-.25.44-.4.77-.37.43.04.69.44.53.84-.09.22-.22.42-.33.64-.35.74-.19,1.28.54,1.63.32.15.68.24,1.03.28.87.1,1.72,0,2.56-.29,1.24-.43,2.34-1.09,3.27-1.98.95-.91,1.83-1.89,2.73-2.85.03-.03.03-.1.08-.23-.29.13-.53.24-.76.35-.65.33-1.33.54-2.04.64-1.06.15-2.03-.09-2.83-.82-1.5-1.35-1.05-3.68.83-4.37.99-.36,1.71-.14,2.35.71.1.14.23.3.38.34,1.11.32,2.24.43,3.35.06,1.01-.33,1.66-1.03,1.96-2.05.13-.45.1-.89-.15-1.3-.06-.1-.21-.16-.31-.22-.22.17-.06.31-.08.44-.01.08-.06.18-.12.21-.06.03-.2,0-.24-.04-.21-.25-.19-.6,0-.81.21-.21.57-.22.81.02.44.44.53.99.44,1.58-.21,1.33-1.28,2.41-2.66,2.72-.93.21-1.84.15-2.75-.07-.14-.03-.29-.08-.47-.13-.33.38-.67.78-1.25.67-.2-.04-.42-.08-.41-.43.23,0,.46.02.68,0,.37-.04.56-.4.39-.73-.19-.38-.52-.56-.94-.59-1.48-.12-2.61,1.36-2.11,2.77.29.83.91,1.31,1.73,1.56.74.23,1.48.11,2.21-.1.75-.22,1.44-.59,2.09-1.01.91-.58,1.81-1.16,2.71-1.76,1.2-.79,2.5-1.26,3.94-1.36.66-.05,1.31.01,1.96.15.04,0,.07.08.14.18-.14.01-.25.03-.36.03-.3,0-.6.02-.9,0-.91-.04-1.59.41-2.21,1.01-.91.89-1.43,1.98-1.72,3.19-.11.46-.21.93-.35,1.39-.21.69-.53,1.33-1,1.89-.31.37-.69.66-1.18.77-.25.06-.47.01-.69-.12-.25-.16-.25-.52,0-.67.15-.09.33-.16.5-.19.95-.14,1.47-.73,1.74-1.6.24-.8.48-1.6.7-2.41.34-1.24.3-1.42,1.49-2.72Z" fill="#cfa257"/><path d="M125.29,21.42c-.13.42-.37.51-.82.43-.39-.08-.56-.41-.8-.63-.51.09-.98.2-1.45.26-.82.11-1.62.02-2.38-.28-1.03-.42-1.72-1.17-2.03-2.25-.14-.48-.13-.95.07-1.4.07-.16.17-.32.29-.44.23-.24.59-.25.81-.05.22.2.25.53.04.81-.04.06-.16.1-.23.08-.06-.02-.13-.11-.15-.19-.02-.08.05-.18.04-.26,0-.07-.07-.14-.13-.18-.03-.02-.14,0-.16.04-.11.2-.26.41-.31.63-.1.48,0,.95.23,1.39.52.97,1.35,1.51,2.42,1.65.8.1,1.61.07,2.4-.14.3-.08.52-.2.71-.48.51-.76,1.22-.98,2.11-.73,1.91.54,2.55,2.88,1.15,4.31-.81.83-1.83,1.1-2.96.95-.68-.09-1.34-.3-1.97-.6-.2-.09-.39-.29-.71-.2.06.11.09.22.16.29.76.8,1.5,1.63,2.3,2.4,1.18,1.14,2.55,1.98,4.16,2.37.71.17,1.43.17,2.14.06.32-.05.64-.17.92-.34.6-.35.73-.82.45-1.45-.1-.22-.24-.42-.34-.63-.14-.31-.11-.56.08-.74.24-.24.6-.27.91-.07.33.2.5.51.56.88.15.87-.16,1.59-.75,2.2-.41.42-.93.64-1.5.74-1.05.18-2.09.09-3.09-.26-1.11-.39-2.13-.96-3.01-1.74-.61-.53-1.18-1.1-1.74-1.68-.77-.79-1.51-1.62-2.29-2.41-.78-.79-1.62-1.52-2.6-2.05-.29-.16-.58-.3-.88-.44-.16-.07-.33-.12-.68-.24.21.24.28.35.38.43.62.52.97,1.2,1.18,1.97.19.72.39,1.44.6,2.16.11.37.23.74.38,1.1.24.59.69.97,1.31,1.13.23.06.46.11.69.2.18.07.3.22.27.42-.02.19-.16.34-.34.37-.2.04-.42.05-.61.01-.53-.11-.89-.47-1.21-.88-.48-.63-.79-1.34-.99-2.09-.09-.32-.14-.64-.22-.96-.26-1.06-.67-2.04-1.37-2.89-.81-.99-1.81-1.54-3.11-1.43-.2.02-.41,0-.61-.02-.01,0-.03-.04-.04-.07.6-.23,1.1-.29,1.8-.26,1.5.07,2.87.51,4.13,1.34.8.53,1.6,1.06,2.41,1.57.51.32,1.03.61,1.56.88.62.32,1.28.5,1.97.55.91.07,1.72-.19,2.36-.87,1.08-1.14.67-2.91-.78-3.46-.35-.13-.7-.16-1.06-.08-.37.08-.66.29-.76.68-.08.29.09.56.38.6.23.02.47,0,.71,0Z" fill="#cfa257"/><path d="M149.4,103.15c.12.43.21.81.33,1.19.39,1.25,1.1,2.24,2.32,2.81.22.1.44.2.63.33.17.11.34.25.47.41.31.4.19.89-.26,1.13-.39.21-.81.24-1.21.08-.33-.12-.66-.3-.92-.53-.31-.27-.58-.61-.8-.96-.62-1.01-.96-2.12-.98-3.31,0-.41.02-.83.43-1.17ZM150.08,106.62c.26.78.65,1.46,1.36,1.88.17.1.38.16.58.2.26.05.54.06.71-.21.1-.16-.07-.37-.45-.56-.03-.01-.05-.02-.08-.03-.78-.3-1.49-.71-2.13-1.28Z" fill="#cfa257"/><path d="M50.19,38.16c-.15-.11-.31-.16-.36-.27-.54-1-.64-2.04-.27-3.11.18-.53.59-.89,1.02-1.23.69-.55,1.25-1.2,1.71-1.94.14-.23.26-.47.39-.7.06-.1.1-.22.18-.3.05-.06.16-.11.23-.1.07,0,.15.09.19.16.04.07.05.17.05.26,0,.91-.15,1.79-.53,2.61-.11.24-.28.45-.46.65-.22.25-.45.49-.71.69-.9.69-1.28,1.62-1.29,2.73,0,.12-.02.24-.04.35,0,.03-.03.05-.11.2ZM52.89,31.84s-.09-.03-.14-.05c-.17.24-.35.47-.52.71-.45.64-1.04,1.15-1.63,1.66-.76.65-.88,1.48-.71,2.44.08-.08.14-.12.15-.16.23-1.03.86-1.78,1.73-2.3.51-.31.77-.73.9-1.27.09-.34.15-.69.22-1.04Z" fill="#cfa257"/><path d="M34.12,103.14c.4.39.44.85.41,1.29-.09,1.37-.49,2.64-1.35,3.73-.34.43-.75.77-1.28.95-.41.14-.82.15-1.22-.04-.54-.25-.67-.8-.26-1.24.14-.15.31-.27.49-.38.2-.13.42-.22.64-.33,1.12-.54,1.79-1.46,2.17-2.61.14-.42.25-.85.4-1.36ZM33.6,106.62c-.08-.02-.21-.08-.24-.05-.61.68-1.41,1.07-2.23,1.4-.13.05-.24.17-.34.27-.1.1-.04.32.09.37.45.18.87.09,1.26-.16.43-.28.74-.67,1.01-1.1.15-.25.31-.5.46-.74-.02-.02-.04-.03-.05-.05,0-.01.01-.04.02-.06,0,.04.01.08.02.11Z" fill="#cfa257"/><path d="M133.25,38.09c-.08-.54-.13-1.01-.22-1.48-.12-.61-.44-1.1-.91-1.51-.27-.24-.52-.49-.79-.73-.45-.39-.72-.88-.86-1.44-.13-.52-.23-1.05-.31-1.58-.03-.2,0-.42.03-.62.02-.09.13-.19.23-.23.05-.02.17.05.22.11.08.09.13.2.18.3.52,1.06,1.24,1.97,2.17,2.7.55.44.99.96,1.08,1.69.12.88.06,1.73-.37,2.53-.06.12-.07.12-.47.25ZM133.58,36.57s.08-.03.08-.04c.17-1.02-.09-1.88-.92-2.53-.71-.55-1.3-1.21-1.79-1.98-.05-.08-.15-.14-.35-.32.09.42.14.68.19.94.13.66.41,1.19,1.04,1.56.81.48,1.39,1.2,1.62,2.16.02.08.09.14.13.21Z" fill="#cfa257"/><path d="M55.65,34.29c-.2-.03-.23-.17-.19-.32.36-1.24.99-2.3,2.07-3.05.3-.2.6-.39.92-.55.86-.42,1.53-1.03,2.06-1.81.13-.19.29-.35.54-.65.02.29.05.43.03.56-.23,1.21-.91,2.13-1.9,2.82-.37.25-.76.47-1.16.67-.97.47-1.75,1.13-2.19,2.15-.02.05-.07.1-.11.14-.02.02-.05.03-.08.05ZM59.5,30.46c-.8.27-1.53.72-1.99,1.24.98-.31,1.53-.66,1.99-1.24Z" fill="#cfa257"/><path d="M104.61,172.85c-.08.1-.13.21-.21.27-.46.34-.69.81-.86,1.33-.15.48-.31.97-.53,1.43-.6,1.23-1.69,1.71-2.97,1.86-.11.01-.23-.04-.34-.08-.13-.05-.15-.3-.04-.38.05-.03.1-.07.15-.09.73-.24,1.18-.79,1.56-1.42.26-.44.5-.89.76-1.32.2-.33.41-.66.64-.97.45-.6,1.03-.86,1.84-.63ZM103.21,173.57c-.14.19-.22.26-.27.36-.5.88-1,1.76-1.49,2.64,0,.01,0,.05.03.07.02.02.05.03.07.05.92-.54,1.32-1.26,1.67-3.11Z" fill="#cfa257"/><path d="M122.46,27.89c.29.37.48.59.65.83.48.67,1.07,1.2,1.8,1.58.4.21.79.43,1.15.69,1.05.74,1.65,1.79,1.98,3,.04.16,0,.29-.25.29-.05-.08-.13-.17-.17-.28-.38-.86-1.02-1.46-1.84-1.89-.42-.22-.85-.44-1.26-.69-.99-.63-1.71-1.49-2.03-2.64-.04-.14-.07-.29-.08-.44,0-.09.02-.17.05-.46ZM123.66,30.11c.24.46.65.75,1.07,1.02.65.4.86.49,1.34.55-.71-.69-1.65-.98-2.42-1.57Z" fill="#cfa257"/><path d="M83.97,177.39c-.06.1-.1.23-.18.27-.13.06-.29.1-.43.08-1.38-.21-2.49-.79-3.03-2.18-.11-.28-.21-.56-.3-.84q-.34-1.06-1.1-1.78c-.02-.17.09-.17.22-.19.74-.09,1.26.26,1.67.83.22.31.42.65.62.98.24.41.47.83.72,1.24.38.62.84,1.16,1.56,1.4.08.03.14.1.25.19ZM80.35,173.85s0-.1,0-.15l-.1.04s.08.06.12.09c.05.7.33,1.32.63,1.94.19.38.48.69.85.9.08.04.31.1.26,0-.4-.8-.85-1.57-1.29-2.34-.11-.19-.16-.46-.46-.47Z" fill="#cfa257"/><path d="M144.2,121.43c.01.11.04.18.03.23-.27.8-.37,1.62-.29,2.46.07.73-.21,1.35-.74,1.84-.35.32-.74.59-1.13.87-.11.08-.27.11-.41.15-.13.03-.31-.15-.27-.27.03-.11.07-.23.14-.32.27-.41.36-.87.45-1.34.09-.49.19-1,.38-1.46.17-.4.44-.77.71-1.12.27-.35.6-.65.91-.97.03-.03.11-.03.22-.05ZM142.37,125.83c.45-.24.67-.46.83-.84.25-.6.15-1.2.04-1.85-.6.57-.9,1.55-.86,2.69Z" fill="#cfa257"/><path d="M146.17,106.24c.11.16.18.23.2.31.21.97.33,1.94.27,2.93-.06.83-.44,1.48-1.18,1.88-.2.11-.45.17-.68.18-.53.02-.82-.4-.65-.9.06-.17.15-.32.25-.48.75-1.19,1.34-2.46,1.79-3.92ZM144.69,110.85c.07.06.09.09.12.09.09,0,.18.02.26-.01.58-.26.92-.73,1.02-1.35.05-.29.04-.59.04-.88,0-.12.06-.3-.19-.34-.19.43-.38.86-.59,1.28-.21.41-.44.81-.66,1.21Z" fill="#cfa257"/><path d="M37.32,106.25c.51,1.52,1.11,2.81,1.88,4.03.09.15.17.32.22.49.1.38-.15.72-.54.78-.31.04-.59-.02-.86-.18-.66-.39-1.04-.97-1.13-1.73-.1-.87,0-1.73.15-2.58.04-.22.04-.46.28-.79ZM37.5,108.27c-.22.56-.13,1-.05,1.43.11.56.44.96.95,1.21.13.06.27.11.38-.08-.41-.81-.82-1.62-1.29-2.56Z" fill="#cfa257"/><path d="M39.33,121.44c.05,0,.1-.01.11,0,.41.42.84.82,1.22,1.27.41.48.63,1.07.76,1.69.07.35.09.71.2,1.05.13.39.33.76.48,1.14.03.07.03.21-.02.25-.08.07-.21.12-.31.11-.14-.02-.29-.08-.41-.17-.38-.28-.77-.56-1.11-.89-.47-.45-.74-1.01-.68-1.68.08-.87-.03-1.72-.29-2.55-.02-.07.03-.15.04-.23ZM41.2,126c-.16-1.76-.36-2.37-.97-2.87-.02.39-.06.73-.07,1.08-.02.75.36,1.28,1.04,1.79Z" fill="#cfa257"/><path d="M118.58,173.34c-.52.41-1,.82-1.5,1.18-.29.21-.6.4-.93.52-.7.26-1.45.32-2.2.34-.14,0-.29-.06-.43-.1-.1-.03-.13-.24-.05-.3.09-.07.19-.15.3-.19.63-.22,1.15-.62,1.66-1.03.28-.22.56-.45.86-.63.89-.53,1.4-.47,2.29.22ZM117.94,173.18c-1.1-.12-1.57.13-2.72,1.38,1.15.07,1.75-.83,2.72-1.38Z" fill="#cfa257"/><path d="M64.93,173.37c.8-.7,1.32-.78,2.18-.31.26.14.51.32.73.5.62.51,1.25,1.01,2.02,1.28.08.03.16.1.19.17.03.06,0,.19-.05.22-.09.07-.21.13-.32.13-1.32-.03-2.62-.13-3.63-1.16-.33-.33-.75-.56-1.13-.84ZM65.62,173.18c.4.3.71.53,1.01.77.38.3.79.54,1.28.62.1.02.2,0,.45-.02-.51-.44-.87-.83-1.32-1.11-.41-.26-.84-.44-1.41-.25Z" fill="#cfa257"/><path d="M148.44,78.32c-.1.32-.2.59-.28.86-.13.48-.09.95.08,1.41.14.37.42.51.79.38.23-.08.43-.21.66-.29.66-.24,1.24.01,1.37.58.11.47-.31,1.02-.91,1.14-.66.13-1.25-.05-1.72-.54-.64-.68-.93-1.52-1.07-2.42-.05-.3.02-.61.24-.84.21-.23.5-.29.84-.28ZM148.95,81.67c.51.36.74.44,1.08.36.23-.06.44-.15.58-.37.15-.24.03-.58-.26-.62-.11-.02-.25-.02-.34.02-.36.19-.7.4-1.06.61Z" fill="#cfa257"/><path d="M35.12,78.33c.3-.03.59.04.79.28.22.26.3.59.23.93-.15.77-.39,1.5-.89,2.13-.44.56-1.01.82-1.72.76-.34-.03-.63-.16-.86-.42-.21-.24-.3-.53-.19-.83.12-.34.37-.55.74-.57.2,0,.41.03.61.08.14.04.27.12.41.18.68.28.98.11,1.12-.63.1-.54.04-1.07-.18-1.58-.04-.09-.17-.18-.06-.33ZM34.55,81.65c-.37-.21-.72-.42-1.09-.6-.24-.12-.5,0-.6.22-.09.18-.02.41.17.55.22.17.47.26.75.23.29-.03.59-.07.78-.39Z" fill="#cfa257"/><path d="M149.2,86.73c.42,1.08.18,2.64-.55,3.44-.32.35-.7.55-1.18.53-.32,0-.6-.08-.73-.41-.11-.29.05-.52.25-.71.13-.12.28-.22.43-.32.15-.1.31-.18.46-.28.66-.44,1.09-1.01,1.09-1.84,0-.17-.02-.38.24-.4ZM147.3,90.06c.88-.07,1.03-.19,1.25-.94-.42.28-.84.47-1.25.94Z" fill="#cfa257"/><path d="M34.35,86.61c.09.21.19.34.19.46-.01.95.5,1.55,1.26,2.02.28.17.54.37.79.58.19.17.26.41.16.65-.1.25-.32.34-.57.37-.41.05-.77-.05-1.09-.31-.54-.44-.78-1.04-.91-1.7-.14-.67-.24-1.34.18-2.08ZM36.19,90.11c-.59-.63-.79-.76-1.31-.93.22.54.54.89,1.31.93Z" fill="#cfa257"/><path d="M125.2,25.94c.43-.52.8-.61,1.23-.43.16.07.33.14.48.23.76.44,1.58.67,2.46.66.14,0,.28.05.49.09-.06.17-.06.34-.15.41-.16.12-.36.22-.55.25-1.11.2-2.13-.02-2.97-.8-.26-.24-.47-.5-.99-.4ZM127.4,26.61c.1.05.2.1.3.15.01-.04.03-.08.04-.12h-.36q-.43-.35-1.02-.5c.32.33.65.48,1.04.46Z" fill="#cfa257"/><path d="M58.19,25.83c-.21.07-.41.1-.57.2-.15.09-.23.28-.37.39-.86.71-1.85.93-2.94.73-.14-.03-.3-.08-.41-.17-.11-.08-.22-.22-.23-.35-.01-.18.17-.23.32-.23,1.02.03,1.94-.27,2.81-.77.47-.27.95-.37,1.38.19ZM56.21,26.67c.32-.13.69-.19,1-.61-.45.12-.72.28-.97.47-.03.02-.01.1-.02.15-.14-.05-.28-.11-.57.13.31-.08.43-.11.56-.14Z" fill="#cfa257"/><path d="M133.93,155.46c-.42.03-.75-.3-.76-.72,0-.35.21-.66.52-.75.34-.09.91.09,1.01.36.06.15.07.36.02.51-.13.37-.44.54-.79.59ZM134.36,154.68c-.21-.15-.32-.26-.47-.32-.13-.06-.28.15-.26.36.01.16.1.3.27.26.14-.03.26-.16.46-.29Z" fill="#cfa257"/><path d="M50.34,154.68c.03.56-.51.94-1.02.69-.2-.1-.39-.27-.51-.46-.2-.33-.03-.73.34-.85.14-.05.29-.08.43-.1.39-.03.73.3.76.71ZM49.95,154.65c-.13-.12-.22-.27-.32-.29-.2-.03-.41.23-.37.38.04.15.25.29.41.22.1-.04.17-.18.28-.32Z" fill="#cfa257"/><path d="M152.31,101.99c0,.29-.27.56-.57.57-.41.01-.77-.34-.73-.72.03-.27.28-.48.56-.46.43.02.75.28.75.61Z" fill="#cfa257"/><path d="M31.95,101.38c.29-.01.52.19.53.47.02.38-.26.68-.64.71-.35.02-.65-.25-.64-.58,0-.34.31-.57.75-.59Z" fill="#cfa257"/><path d="M41.57,119.56c.01.25-.18.54-.43.59-.14.03-.3.03-.43,0-.4-.1-.62-.49-.53-.88.06-.27.27-.37.61-.39.39-.02.77.33.79.68ZM40.84,119.06c-.23.27-.29.46-.13.64.06.06.22.1.3.06.07-.03.16-.2.14-.26-.06-.15-.18-.27-.31-.44Z" fill="#cfa257"/><path d="M142.81,118.88c.33.01.56.24.55.55,0,.43-.37.76-.81.75-.35,0-.61-.28-.6-.62.01-.41.37-.7.86-.68ZM142.49,119.78c.27.02.4-.11.38-.33-.01-.1-.07-.23-.15-.28-.14-.08-.38.17-.37.39,0,.09.11.17.14.22Z" fill="#cfa257"/><path d="M49.08,28.42c.01.13.03.22.02.3-.02.21-.04.42.2.52.04.02.12,0,.15-.04.15-.14.11-.32.06-.49-.04-.13-.08-.26-.14-.44.44.16.61.36.6.68,0,.28-.1.52-.36.66-.2.1-.51.07-.65-.12-.12-.16-.2-.36-.24-.55-.03-.21.04-.41.35-.53Z" fill="#cfa257"/><path d="M142.98,85.5c-.13-.16-.24-.29-.37-.46.09-.02.18-.08.24-.06.53.22.61.66.2,1.02-.24.21-.53.26-.83.18-.26-.07-.45-.33-.43-.61.02-.26.14-.44.43-.44.02.06.07.11.06.15-.06.2-.19.41.09.53.25.11.46.02.62-.32Z" fill="#cfa257"/><path d="M62.71,29.86c.02.3-.19.59-.48.65-.25.06-.53-.08-.67-.33-.1-.19-.03-.44.17-.53.16-.07.33-.13.5-.18.23-.07.46.12.48.38Z" fill="#cfa257"/><path d="M134.11,28.32c.05.02.11.06.16.07.22.02.43.09.47.32.04.19.02.41-.04.6-.09.26-.37.39-.64.37-.25-.03-.46-.23-.51-.53-.06-.35.04-.64.35-.84.05-.03.16.02.24.03-.07.19-.16.38-.2.58-.02.09.06.21.11.31.02.03.14.05.15.03.08-.11.2-.22.21-.34.03-.25-.11-.44-.31-.59Z" fill="#cfa257"/><path d="M40.88,85.04c-.11.15-.21.29-.32.43.19.36.32.46.56.37.38-.15.03-.46.14-.71.29-.02.41.17.46.41.05.24-.14.54-.38.64-.45.19-1-.08-1.14-.56-.09-.33.15-.55.67-.58Z" fill="#cfa257"/><path d="M121.43,30.53c-.44-.03-.71-.42-.61-.77.06-.22.26-.34.47-.28.14.04.28.08.42.14.33.14.39.48.12.71-.13.11-.3.16-.4.2Z" fill="#cfa257"/><path d="M152.25,113.28c-.25.01-.52-.21-.55-.47-.04-.28.21-.56.52-.58.29-.02.52.17.54.45.02.31-.22.59-.51.6Z" fill="#cfa257"/><path d="M42.15,70.89c-.32-.06-.5-.1-.69-.12-.29-.03-.53.08-.72.28-.17.18-.29.38-.13.64.02.02.03.05.04.08.07.17.1.35-.05.49-.05.05-.17.06-.23.04-.19-.08-.23-.26-.23-.44-.02-.49.18-.87.6-1.12.44-.26.89-.27,1.42.14Z" fill="#cfa257"/><path d="M31.8,112.79c-.02.26-.27.5-.53.49-.28,0-.55-.3-.54-.59,0-.27.25-.49.53-.48.32.01.56.27.54.57Z" fill="#cfa257"/><path d="M69.93,23.01c-.25,0-.47-.27-.46-.55,0-.29.25-.53.51-.51.26.02.49.29.48.55-.01.27-.26.51-.52.51Z" fill="#cfa257"/><path d="M149.85,74.03c-.02.27-.28.5-.54.48-.27-.02-.49-.31-.44-.56.05-.26.33-.47.59-.43.24.04.41.27.39.52Z" fill="#cfa257"/><path d="M122.32,18.01c.26,0,.46.25.45.54-.01.29-.22.5-.5.5-.26,0-.5-.22-.51-.5-.02-.28.26-.55.56-.55Z" fill="#cfa257"/><path d="M61.17,18.01c.29-.01.53.19.56.47.03.29-.17.55-.44.58-.27.03-.53-.19-.56-.47-.03-.29.18-.56.44-.57Z" fill="#cfa257"/><path d="M141.79,76.65c-.02.25-.22.43-.49.46-.26.02-.5-.11-.57-.33-.06-.21-.04-.41.1-.59.17-.22.4-.26.61-.1.19.15.37.3.34.56ZM141.26,76.87c.1-.23.16-.3.15-.36-.01-.05-.1-.09-.15-.14-.05.06-.12.12-.13.18,0,.07.05.14.12.31Z" fill="#cfa257"/><path d="M114.02,22.44c.01.3-.19.55-.44.56-.27,0-.5-.22-.52-.49-.02-.28.18-.52.45-.56.26-.04.49.19.5.49Z" fill="#cfa257"/><path d="M42.2,76.02c.35-.12.48.13.58.37.09.2.02.41-.14.57-.17.16-.37.17-.58.11-.31-.09-.45-.43-.27-.7.1-.14.26-.23.39-.35-.03.19-.07.38-.09.57,0,.04.09.12.1.11.07-.04.18-.11.17-.14-.04-.18-.11-.36-.17-.54Z" fill="#cfa257"/><path d="M34.08,73.52c.27-.02.52.18.54.46.03.28-.19.53-.46.54-.26,0-.49-.23-.5-.51,0-.26.17-.47.41-.49Z" fill="#cfa257"/><path d="M39.39,59.24c.31-.01.52.15.55.38.03.23-.12.51-.35.54-.19.03-.42.02-.59-.06-.12-.06-.22-.27-.24-.43-.02-.19.13-.32.32-.37.11-.03.23-.05.31-.06ZM39.61,59.62c-.1-.06-.2-.15-.23-.13-.09.05-.15.15-.22.23.1.03.19.09.29.09.05,0,.09-.11.16-.19Z" fill="#cfa257"/><path d="M144.12,59.25c.38.03.65.23.64.47-.01.3-.35.54-.71.49-.28-.04-.47-.26-.47-.54,0-.28.22-.45.55-.42ZM144.2,59.92c.06-.13.14-.23.12-.25-.07-.07-.16-.12-.25-.17-.04.06-.13.15-.11.18.04.08.13.14.24.24Z" fill="#cfa257"/><path d="M47.87,51.42c.3.04.38.25.34.51-.04.22-.19.35-.41.42-.23.06-.41-.03-.56-.18-.17-.16-.1-.49.13-.59.16-.07.33-.11.5-.16-.09.11-.18.22-.25.34-.01.02.03.12.05.12.05,0,.13-.02.14-.06.03-.13.05-.27.07-.4Z" fill="#cfa257"/><path d="M109.6,15.95c-.04.1-.11.19-.12.29,0,.1.06.2.09.3.09-.05.2-.08.27-.15.05-.06.05-.16.1-.31.09.12.21.2.22.29,0,.13-.02.31-.1.4-.19.22-.58.23-.81.06-.23-.17-.27-.51-.07-.79.06-.09.19-.13.28-.19.04.03.09.07.13.1Z" fill="#cfa257"/><path d="M135.73,51.44c.17.06.36.09.49.19.09.07.15.26.13.38-.04.23-.25.33-.46.35-.22.02-.41-.07-.52-.27-.1-.2-.12-.41.06-.57.07-.06.21-.05.32-.07.04.15-.18.32.05.45.02.01.07,0,.08-.02.1-.19-.09-.3-.14-.44Z" fill="#cfa257"/><path d="M73.76,15.95c.39-.07.57,0,.66.22.11.26.01.58-.21.7-.27.15-.64.08-.8-.15-.13-.18-.07-.34.19-.55,0,.03,0,.06,0,.09,0,.16.07.28.25.29.05,0,.12-.02.15-.06.13-.14.04-.26-.05-.37-.06-.06-.13-.11-.2-.17Z" fill="#cfa257"/><path d="M143.75,100.71c-.02.25-.22.43-.48.41-.28-.01-.47-.26-.43-.55.03-.22.21-.37.42-.37.29,0,.5.23.49.51Z" fill="#cfa257"/><path d="M40.19,101.12c-.25,0-.44-.22-.43-.46,0-.25.21-.45.45-.46.25-.01.46.17.47.42.02.28-.2.51-.49.5Z" fill="#cfa257"/><path d="M49.79,143.23c.06,0,.09,0,.12.01.28.03.45.15.45.33,0,.24-.3.47-.58.4-.13-.03-.27-.12-.37-.22-.16-.15-.07-.43.15-.48.09-.02.17-.03.23-.04Z" fill="#cfa257"/><path d="M44.68,63.38c-.01.25-.22.43-.48.41-.25-.02-.45-.24-.42-.47.03-.24.25-.43.49-.42.24.01.42.23.41.49Z" fill="#cfa257"/><path d="M139.28,63.79c-.26,0-.47-.2-.46-.44,0-.24.22-.46.45-.46.24,0,.46.21.47.45,0,.23-.21.44-.46.45Z" fill="#cfa257"/><path d="M133.74,143.23c.08.02.17.03.25.05.16.05.24.3.13.44-.19.24-.43.33-.69.22-.17-.07-.29-.2-.26-.41.02-.18.15-.23.3-.26.09-.02.17-.02.27-.04Z" fill="#cfa257"/><path d="M141.47,52.03c-.07.06-.16.19-.28.23-.3.08-.61-.13-.66-.44-.03-.18,0-.36.19-.46.14-.08.28-.06.42.02.22.13.35.31.33.65ZM141.09,51.77c-.02-.05-.04-.11-.06-.16-.04.02-.12.03-.13.06,0,.05.03.11.04.16.05-.02.09-.04.14-.06Z" fill="#cfa257"/><path d="M42.42,52.28c-.2,0-.42-.19-.41-.37.02-.32.35-.62.64-.61.18.01.37.24.36.43-.02.29-.28.53-.59.54ZM42.62,51.75c-.04-.06-.07-.13-.08-.13-.05,0-.11.04-.13.07-.02.03.01.09.02.14.06-.03.13-.06.19-.08Z" fill="#cfa257"/><path d="M104.02,9.21c.2,0,.39.17.41.39.02.25-.18.47-.42.47-.2,0-.4-.19-.42-.39-.02-.23.2-.47.43-.47Z" fill="#cfa257"/><path d="M37.9,89.77c.25,0,.45.22.43.45-.02.2-.22.38-.41.39-.23,0-.44-.22-.43-.46.01-.21.2-.38.41-.38Z" fill="#cfa257"/><path d="M145.59,89.78c.21,0,.4.16.43.36.03.24-.17.47-.41.48-.24.01-.44-.21-.42-.45.02-.22.18-.37.4-.38Z" fill="#cfa257"/><path d="M79.91,9.64c0,.21-.17.4-.38.42-.24.03-.45-.17-.45-.43,0-.21.17-.4.37-.42.24-.02.46.18.46.43Z" fill="#cfa257"/><path d="M108.74,166.98c-.04.27-.24.42-.47.41-.19,0-.35-.07-.42-.26-.07-.2.02-.42.2-.53.2-.12.34,0,.48.1.1.08.17.21.22.27ZM108.26,166.82c-.06.06-.1.1-.13.13.06.05.12.11.18.16.03-.04.1-.1.09-.12-.03-.06-.09-.11-.13-.17Z" fill="#cfa257"/><path d="M75.7,166.95c.02.24-.17.44-.44.45-.24,0-.43-.13-.46-.32-.04-.22.23-.5.49-.52.16-.01.39.21.41.4ZM75.37,167.02c-.04-.08-.06-.13-.09-.17-.07.04-.14.07-.19.13-.01.01.06.14.07.13.07-.01.14-.06.21-.09Z" fill="#cfa257"/><path d="M111.7,163.41c-.15.15-.24.31-.37.36-.19.07-.4-.13-.4-.34,0-.21.18-.43.37-.38.13.04.23.2.4.35Z" fill="#cfa257"/><path d="M72.58,163.55c-.09.06-.22.18-.37.22-.18.04-.31-.14-.29-.35.01-.22.13-.37.31-.37.21,0,.39.21.36.49Z" fill="#cfa257"/><path d="M87.66,16.17c-.15.12-.22.22-.31.24-.15.04-.34-.11-.28-.23.04-.09.16-.18.25-.19.08-.01.18.08.35.17Z" fill="#cfa257"/><path d="M96.56,16.23c-.19.09-.28.16-.38.17-.12,0-.23-.06-.21-.22.02-.14.13-.21.25-.18.09.02.17.11.34.23Z" fill="#cfa257"/><path d="M119.93,158.25c.02.19-.17.4-.38.42-.21.02-.41-.15-.42-.37-.01-.19.12-.39.27-.41.23-.03.51.16.54.37ZM119.62,158.27c-.08-.04-.14-.08-.21-.1,0,0-.05.05-.04.06.04.05.08.1.13.14,0,0,.06-.05.11-.1Z" fill="#cfa257"/><path d="M64.16,157.89c.07.09.18.16.21.26.07.24-.04.43-.24.49-.23.07-.51-.06-.56-.29-.02-.09.03-.25.1-.3.14-.08.31-.11.47-.15-.07.14-.15.28-.22.42.18.07.24,0,.22-.18-.01-.08,0-.16,0-.25Z" fill="#cfa257"/><path d="M127.75,169.3c-.02.25-.22.42-.48.41-.22-.01-.37-.18-.38-.41,0-.23.19-.35.51-.32.23.02.36.14.34.32Z" fill="#cfa257"/><path d="M56.16,168.98c.26-.01.44.11.45.3.02.23-.2.44-.44.43-.22-.01-.37-.15-.41-.38-.03-.21.11-.34.39-.35ZM56.23,169.23s-.04-.02-.07-.02c0,.03,0,.06-.01.09.02,0,.05,0,.07-.01.01,0,0-.04,0-.06Z" fill="#cfa257"/><path d="M98.6,14.15c.07-.17.12-.3.17-.43.28.24.3.42.09.6-.19.17-.51.18-.63-.02-.08-.14-.12-.33-.12-.49,0-.21.12-.38.37-.4.2.23-.32.47.11.73Z" fill="#cfa257"/><path d="M95.4,11.74c-.02.19-.23.35-.44.33-.25-.03-.42-.25-.37-.49.03-.16.21-.3.38-.29.24.02.45.24.43.46Z" fill="#cfa257"/><path d="M84.98,13.43c.29,0,.38.16.42.37.04.22,0,.41-.18.56-.16.13-.41.13-.56-.03-.19-.19-.2-.39,0-.67.11.19.19.32.27.45.37-.2-.03-.46.05-.69Z" fill="#cfa257"/><path d="M88.93,11.67c-.01.24-.23.42-.48.4-.19-.01-.33-.15-.34-.33-.01-.24.18-.45.43-.46.2,0,.4.19.39.39Z" fill="#cfa257"/><path d="M87.94,8.28c-.07.18-.22.22-.4.21.05-.22.23-.2.4-.21Z" fill="#cfa257"/><path d="M87.87,83.29c1.8-.71,3.69-1.08,5.58-1.11v-1.53c-1.89.06-3.77.44-5.58,1.15v1.48Z" fill="#cfa257"/><path d="M88.06,96.06v1.4c1.72-.21,3.4-.57,5-1.1v-1.35c-.78.28-1.57.52-2.39.7-.85.19-1.74.29-2.61.35Z" fill="#cfa257"/><path d="M93.3,118.47c-1.73.66-3.53,1.17-5.39,1.45v3.48c.24,0,.48.02.73.02h.28c1.47,0,2.93-.12,4.38-.37v-4.59Z" fill="#cfa257"/><path d="M113.17,99.85c-.26-5.02-2.39-9.93-6.44-13.85,3.07-4.54,4.89-10.05,4.89-16.06,0-15.29-11.94-27.72-26.6-27.72s-26.32,12.15-26.6,27.16c-3.84,4.47-6.28,10.19-6.7,16.41-.07.84-.07,1.68-.07,2.51,0,17.76,13.53,34.11,35.28,35.07v-3.32c-.91.1-1.82.16-2.74.16-2.72,0-5.52-.49-8.24-1.47l2.02.14c3.37,0,6.54-1.04,8.95-2.74v-2.65c-2.45,1.77-5.87,2.81-9.37,2.81-1.89,0-3.84-.28-5.66-.98-11.31-4.26-18.01-15.43-18.01-26.81,0-5.31,1.54-10.68,4.68-15.43,1.26,11.24,8.87,20.46,19.06,23.46v.28c0,3.8,1.22,7.46,3.64,10.46.01-.02.03-.05.04-.07,0-.02.01-.04.02-.06-1.99-2.77-3-6.13-3-9.49v-.91c2.09.63,4.4.91,6.7.91.69,0,1.37-.03,2.04-.08v-1.46c-.08,0-.15.01-.23.01-2.79,0-5.59-.63-8.24-1.82.63-2.79,1.96-5.45,4.05-7.61,1.27-1.27,2.7-2.24,4.23-2.97v-1.5c-1.73.81-3.37,1.93-4.86,3.42-2.3,2.3-3.7,5.24-4.19,8.31-6.98-3.35-12.71-10.47-14.66-19.48-.49-2.23-.77-4.47-.77-6.63,0-9.91,5.03-18.64,12.92-22.27-3.49,3-5.45,7.19-5.45,11.03,0,4.33,2.58,8.24,8.38,9.22l.07-.28c-4.61-1.05-6.49-4.12-6.49-7.61,0-5.03,4.05-11.1,9.84-13.48.98-.42,2.02-.56,3.07-.56,10.19.77,19.48,9.43,22.13,21.5.49,2.23.77,4.47.77,6.63,0,4.47-1.05,8.66-2.86,12.29-3.07-2.34-6.72-3.57-10.33-3.68v1.54c3.4.14,6.81,1.31,9.56,3.53-2.33,4.05-5.77,7.14-9.94,8.89v1.4c4.62-1.74,8.65-4.78,11.69-8.68.49.56.98,1.19,1.4,1.82,1.75,2.79,2.58,5.73,2.58,8.66,0,.69-.05,1.37-.13,2.05h3.57Z" fill="#cfa257"/><path d="M113.16,102.14c.03-.42.06-.84.06-1.26,0,0,0-.02,0-.02h-3.78c-.08.43-.19.86-.3,1.29h4.02Z" fill="#cfa257"/><path d="M108.84,103.14c-1.05,3.22-2.99,6.25-5.53,8.84l-.14-.07-.07.14.07.07c-2.48,2.48-5.51,4.55-8.87,5.97v4.78c4.68-.99,9.11-3.34,12.92-7.4,3.39-3.63,5.35-7.97,5.86-12.33h-4.24Z" fill="#cfa257"/><path d="M91.37,108.42c0-2.02-.7-4.12-2.3-6.28l-.21.14c1.19,1.75,1.67,3.42,1.67,4.96,0,2.13-1,3.98-2.61,5.46v2.68c2.12-1.84,3.45-4.26,3.45-6.95Z" fill="#cfa257"/><path d="M127.31,73.09h-15.4l-.28,1.78h7.12c7.4,0,9.8,9.27,9.8,9.27l.98-.36-2.23-10.7Z" fill="#cfa257"/><path d="M130.97,130.4s-3.12,8.91-10.52,8.91l-18.36.09c-7.22,0-8.56-2.5-8.56-5.53v-26.03c0-2.94,1.34-5.44,8.56-5.44h10.25c5.08,0,6.06,6.24,6.06,6.24h.62v-14.26h-.62s-.98,6.24-6.06,6.24h-18.81v-20.32c0-2.85,1.16-5.17,7.31-5.44h5.57l.53-1.78h-25.8v.36h.09c.8,0,6.42.27,6.42,6.86v53.75c0,6.77-5.88,6.95-6.51,6.95v.27l47.95-.09,2.76-10.78h-.89Z" fill="#cfa257"/><path d="M79.37,107.74s.01,0,.02,0c1.27-.17,2.23-1.21,2.3-2.49.02-.35.04-.71.06-1.06,0-.11.02-.22.07-.33.03.56.06,1.11.1,1.67.06,1.1.9,1.97,1.98,2.19.1.02.2.05.31.08-.11.01-.21.03-.32.04-1.07.14-1.89,1.02-1.96,2.1-.04.57-.07,1.15-.13,1.72-.01-.12-.03-.25-.04-.37-.03-.46-.05-.92-.08-1.39-.06-1.03-1.14-1.96-1.92-2.06-.13-.02-.25-.03-.38-.05,0-.01,0-.03,0-.04Z" fill="#cfa257"/></svg>